<svg width="48" height="48" viewBox="0 0 48 48" fill="none" xmlns="http://www.w3.org/2000/svg">
<circle cx="24" cy="24" r="22.5" fill="#43E5BA" stroke="#FBFBFB" stroke-width="3"/>
<path d="M19.9383 14.4815L20.2637 14.8611L20.2637 14.8611L19.9383 14.4815ZM18.1667 16V16.5H18.3516L18.4921 16.3796L18.1667 16ZM28.0617 14.4815L27.7363 14.8611V14.8611L28.0617 14.4815ZM29.8333 16L29.5079 16.3796L29.6484 16.5H29.8333V16ZM19.6129 14.1019L17.8413 15.6204L18.4921 16.3796L20.2637 14.8611L19.6129 14.1019ZM21.2398 13.5C20.6431 13.5 20.066 13.7135 19.6129 14.1019L20.2637 14.8611C20.5355 14.6281 20.8818 14.5 21.2398 14.5V13.5ZM26.7602 13.5H21.2398V14.5H26.7602V13.5ZM28.3871 14.1019C27.934 13.7135 27.3569 13.5 26.7602 13.5V14.5C27.1182 14.5 27.4645 14.6281 27.7363 14.8611L28.3871 14.1019ZM30.1587 15.6204L28.3871 14.1019L27.7363 14.8611L29.5079 16.3796L30.1587 15.6204ZM29.8333 16.5H33V15.5H29.8333V16.5ZM33 16.5C33.8284 16.5 34.5 17.1716 34.5 18H35.5C35.5 16.6193 34.3807 15.5 33 15.5V16.5ZM34.5 18V30H35.5V18H34.5ZM34.5 30C34.5 30.8284 33.8284 31.5 33 31.5V32.5C34.3807 32.5 35.5 31.3807 35.5 30H34.5ZM33 31.5H15V32.5H33V31.5ZM15 31.5C14.1716 31.5 13.5 30.8284 13.5 30H12.5C12.5 31.3807 13.6193 32.5 15 32.5V31.5ZM13.5 30V18H12.5V30H13.5ZM13.5 18C13.5 17.1716 14.1716 16.5 15 16.5V15.5C13.6193 15.5 12.5 16.6193 12.5 18H13.5ZM15 16.5H18.1667V15.5H15V16.5ZM27.5 24C27.5 25.933 25.933 27.5 24 27.5V28.5C26.4853 28.5 28.5 26.4853 28.5 24H27.5ZM24 20.5C25.933 20.5 27.5 22.067 27.5 24H28.5C28.5 21.5147 26.4853 19.5 24 19.5V20.5ZM20.5 24C20.5 22.067 22.067 20.5 24 20.5V19.5C21.5147 19.5 19.5 21.5147 19.5 24H20.5ZM24 27.5C22.067 27.5 20.5 25.933 20.5 24H19.5C19.5 26.4853 21.5147 28.5 24 28.5V27.5ZM31 21.5C31.8284 21.5 32.5 20.8284 32.5 20H31.5C31.5 20.2761 31.2761 20.5 31 20.5V21.5ZM29.5 20C29.5 20.8284 30.1716 21.5 31 21.5V20.5C30.7239 20.5 30.5 20.2761 30.5 20H29.5ZM31 18.5C30.1716 18.5 29.5 19.1716 29.5 20H30.5C30.5 19.7239 30.7239 19.5 31 19.5V18.5ZM32.5 20C32.5 19.1716 31.8284 18.5 31 18.5V19.5C31.2761 19.5 31.5 19.7239 31.5 20H32.5Z" fill="#1F2E71"/>
</svg>
