<svg width="156" height="156" viewBox="0 0 156 156" fill="none" xmlns="http://www.w3.org/2000/svg">
<path d="M76.5948 71.7749L78.0712 44M67.5002 84H50.4129C49.3496 84 48.4722 83.168 48.4157 82.1062L46.3901 44" stroke="#092532" stroke-width="1.5"/>
<path d="M65 44.1155H45C44.4477 44.1155 44 43.6678 44 43.1155V42.418C44 40.2088 45.7909 38.418 48 38.418H55.7109L56.0778 37.3675C56.35 36.5509 57.1143 36 57.9752 36H66.4872C67.348 36 68.1123 36.5509 68.3846 37.3675L68.6983 38.3089L68.7369 38.418H76.4642C78.6733 38.418 80.4642 40.2088 80.4642 42.418V43.1155C80.4642 43.6678 80.0165 44.1155 79.4642 44.1155H72.7321" stroke="#092532" stroke-width="1.5"/>
<path d="M91.1668 38.6149C89.2763 41.7317 87.791 48.5701 86.9808 51.9521C73.5977 84.9635 65.9605 74.7979 66.5772 93.9667C55.5449 96.5217 41.5038 95.5213 41.0024 98.5224C40.7516 100.023 60.5595 99.0226 66.5772 97.4679C67.5811 100.469 86.1353 99.9687 91.6514 99.9687C91.854 99.6372 91.6514 97.4679 90.6485 96.9677C89.3322 96.3112 85.1315 95.4672 84.2802 95.3799C86.4407 93.2578 90.1461 89.4651 87.6388 86.9642C89.7993 86.4337 92.4495 83.6423 94.1374 80.3266C92.1522 88.9649 94.6049 94.1795 97.1676 99.9687C98.1705 99.9687 103.185 99.9687 103.687 99.9687C104.767 97.8467 102.644 96.7725 101.227 95.9104C98.261 94.1627 100.084 85.423 101.227 83.1781C102.239 81.1886 103.455 79.2655 104.197 77.1435C106.02 72.0373 104.872 66.5995 104.535 61.3607C104.467 60.1007 103.32 49.8883 104.332 49.5568C115.22 50.4516 115 40.9483 115 39.0128C111.894 38.5486 107.843 38.416 103.927 37.9518C102.635 37.1471 103.455 35.2992 101.564 34.5697C97.3364 32.9384 93.3923 34.9717 91.1668 38.6149Z" stroke="#092532" stroke-width="1.5" stroke-miterlimit="10" stroke-linecap="round" stroke-linejoin="round"/>
<path d="M98.1612 39.687C98.1612 39.687 100.62 42.505 99.7728 45.3474C98.0272 50.229 90.5718 50.9181 89.569 45.7704C89.3281 44.6812 89.4234 42.8889 89.8086 41.8127" stroke="#092532" stroke-width="1.5" stroke-miterlimit="10" stroke-linecap="round" stroke-linejoin="round"/>
<path d="M62 49.5V76" stroke="#092532" stroke-width="1.5"/>
<path fill-rule="evenodd" clip-rule="evenodd" d="M54.3828 75.9628L53.4492 49.5312H54.9492L55.8731 75.9628L54.3828 75.9628Z" fill="#092532"/>
<path fill-rule="evenodd" clip-rule="evenodd" d="M70.0664 75.9628L71 49.5312H69.5L68.5761 75.9628L70.0664 75.9628Z" fill="#092532"/>
</svg>
