<svg width="156" height="156" viewBox="0 0 156 156" fill="none" xmlns="http://www.w3.org/2000/svg">
<path d="M91.1668 38.6149C89.2763 41.7317 87.791 48.5701 86.9808 51.9521C73.5977 84.9635 65.9605 74.7979 66.5772 93.9667C55.5449 96.5217 41.5038 95.5213 41.0024 98.5224C40.7516 100.023 60.5595 99.0226 66.5772 97.4679C67.5811 100.469 86.1353 99.9687 91.6514 99.9687C91.854 99.6372 91.6514 97.4679 90.6485 96.9677C89.3322 96.3112 85.1315 95.4672 84.2802 95.3799C86.4407 93.2578 90.1461 89.4651 87.6388 86.9642C89.7993 86.4337 92.4495 83.6423 94.1374 80.3266C92.1522 88.9649 94.6049 94.1795 97.1676 99.9687C98.1705 99.9687 103.185 99.9687 103.687 99.9687C104.767 97.8467 102.644 96.7725 101.227 95.9104C98.261 94.1627 100.084 85.423 101.227 83.1781C102.239 81.1886 103.455 79.2655 104.197 77.1435C106.02 72.0373 104.872 66.5995 104.535 61.3607C104.467 60.1007 103.32 49.8883 104.332 49.5568C115.22 50.4516 115 40.9483 115 39.0128C111.894 38.5486 107.843 38.416 103.927 37.9518C102.635 37.1471 103.455 35.2992 101.564 34.5697C97.3364 32.9384 93.3923 34.9717 91.1668 38.6149Z" stroke="#092532" stroke-width="1.5" stroke-miterlimit="10" stroke-linecap="round" stroke-linejoin="round"/>
<path d="M98.1572 39.687C98.1572 39.687 100.616 42.505 99.7689 45.3474C98.0233 50.229 90.5679 50.9181 89.565 45.7704C89.3242 44.6812 89.4195 42.8889 89.8047 41.8127" stroke="#092532" stroke-width="1.5" stroke-miterlimit="10" stroke-linecap="round" stroke-linejoin="round"/>
<path d="M51 59.8065C51.085 62.8018 52.4393 65.6481 54.7743 67.739C57.1092 69.8299 60.2402 71 63.5 71C66.7598 71 69.8908 69.8299 72.2257 67.739C74.5607 65.6481 75.915 62.8018 76 59.8065C76 53.4613 69.159 46.4759 63.5 35C56.9566 46.7701 51 53.4613 51 59.8065Z" stroke="#092532" stroke-width="1.5" stroke-linecap="round" stroke-linejoin="round" stroke-dasharray="5 5"/>
</svg>
