<svg width="156" height="156" viewBox="0 0 156 156" fill="none" xmlns="http://www.w3.org/2000/svg">
<path d="M73.2439 38.6149C71.3596 41.7317 69.8791 48.5701 69.0715 51.9521C55.7318 84.9635 48.1193 74.7979 48.734 93.9667C34.6465 90.992 40.5867 72.6207 39.259 72.3025C35.7382 71.4588 31.2395 95.8801 48.734 97.4679C49.7346 100.469 68.2288 99.9687 73.727 99.9687C73.9289 99.6372 73.727 97.4679 72.7274 96.9677C71.4153 96.3112 67.2282 95.4672 66.3796 95.3799C68.5331 93.2578 72.2266 89.4651 69.7274 86.9642C71.8809 86.4337 74.5226 83.6423 76.205 80.3266C74.2261 88.9649 76.671 94.1795 79.2253 99.9687C80.225 99.9687 85.2234 99.9687 85.7233 99.9687C86.8 97.8467 84.6844 96.7725 83.2711 95.9104C80.3152 94.1627 82.132 85.423 83.2711 83.1781C84.2806 81.1886 85.4919 79.2655 86.2322 77.1435C88.0492 72.0373 86.9052 66.5995 86.5687 61.3607C86.5014 60.1007 85.3573 49.8883 86.3668 49.5568C97.2189 50.4516 96.9995 40.9483 96.9997 39.0128C93.904 38.5486 89.8662 38.416 85.963 37.9518C84.6755 37.1471 85.4919 35.2992 83.6076 34.5697C79.3935 32.9384 75.4622 34.9717 73.2439 38.6149Z" stroke="#092532" stroke-width="1.5" stroke-miterlimit="10" stroke-linecap="round" stroke-linejoin="round"/>
<path d="M38.075 66.2822C38.075 66.2822 33.546 66.4089 33.3428 71.6673" stroke="#092532" stroke-width="1.5" stroke-miterlimit="10" stroke-linecap="round" stroke-linejoin="round"/>
<path d="M43.5458 75.115C43.5458 75.115 47.2177 72.4607 44.4255 68.0002" stroke="#092532" stroke-width="1.5" stroke-miterlimit="10" stroke-linecap="round" stroke-linejoin="round"/>
<path d="M32.8729 64.1092C32.8729 64.1092 30.0586 64.4904 29.7515 67.3932" stroke="#092532" stroke-width="1.5" stroke-miterlimit="10" stroke-linecap="round" stroke-linejoin="round"/>
<path d="M48.4686 75.4723C48.4686 75.4723 50.58 73.573 49.1998 71.0009" stroke="#092532" stroke-width="1.5" stroke-miterlimit="10" stroke-linecap="round" stroke-linejoin="round"/>
<path d="M80.1073 39.1091C80.1073 39.1091 82.4934 41.9328 81.6807 44.7724C80.0044 49.6486 72.7941 50.3187 71.8109 45.1695C71.5752 44.0799 71.6628 42.2882 72.0328 41.2132" stroke="#092532" stroke-width="1.5" stroke-miterlimit="10" stroke-linecap="round" stroke-linejoin="round"/>
<path d="M91.7018 87.9453V87.1953H91.1717L90.9948 87.6949L91.7018 87.9453ZM116.611 87.9453L117.318 87.6949L117.141 87.1953H116.611V87.9453ZM90.3844 91.6653L91.0913 91.9157L91.0913 91.9157L90.3844 91.6653ZM117.929 91.6653L118.636 91.415L117.929 91.6653ZM91.7018 88.6953H116.611V87.1953H91.7018V88.6953ZM115.904 88.1957L117.222 91.9157L118.636 91.415L117.318 87.6949L115.904 88.1957ZM112.273 98.9183H96.0402V100.418H112.273V98.9183ZM91.0913 91.9157L92.4087 88.1957L90.9948 87.6949L89.6774 91.415L91.0913 91.9157ZM96.0402 98.9183C92.4155 98.9183 89.8813 95.3324 91.0913 91.9157L89.6774 91.415C88.1217 95.8079 91.3799 100.418 96.0402 100.418V98.9183ZM117.222 91.9157C118.432 95.3324 115.897 98.9183 112.273 98.9183V100.418C116.933 100.418 120.191 95.8079 118.636 91.415L117.222 91.9157Z" fill="#092532"/>
<path d="M93.002 88L92.2523 88.0231L92.2748 88.75H93.002V88ZM114.772 88V88.75H115.323L115.488 88.2248L114.772 88ZM111 82H110.25V82.75H111V82ZM103.162 80.8711L102.717 81.4755L103.58 82.109L103.881 81.0824L103.162 80.8711ZM96.0211 84.0619L96.1612 84.7987L96.7135 84.6936L96.7676 84.134L96.0211 84.0619ZM93.002 88.75H114.772V87.25H93.002V88.75ZM115.488 88.2248C115.658 87.683 115.75 87.1023 115.75 86.5H114.25C114.25 86.9496 114.181 87.3786 114.057 87.7752L115.488 88.2248ZM115.75 86.5C115.75 83.686 113.704 81.25 111 81.25V82.75C112.714 82.75 114.25 84.3434 114.25 86.5H115.75ZM111.75 82C111.75 79.3766 109.623 77.25 107 77.25V78.75C108.795 78.75 110.25 80.2051 110.25 82H111.75ZM107 77.25C104.841 77.25 103.02 78.6897 102.442 80.6598L103.881 81.0824C104.277 79.7336 105.525 78.75 107 78.75V77.25ZM103.606 80.2667C102.736 79.6277 101.661 79.25 100.5 79.25V80.75C101.331 80.75 102.096 81.0193 102.717 81.4755L103.606 80.2667ZM100.5 79.25C97.7725 79.25 95.5316 81.3293 95.2745 83.9898L96.7676 84.134C96.951 82.2351 98.5525 80.75 100.5 80.75V79.25ZM95.8809 83.3251C93.7896 83.723 92.25 85.6303 92.25 87.872H93.75C93.75 86.3102 94.8166 85.0545 96.1612 84.7987L95.8809 83.3251ZM92.25 87.872C92.25 87.9225 92.2508 87.9729 92.2523 88.0231L93.7516 87.9769C93.7505 87.9421 93.75 87.9071 93.75 87.872H92.25Z" fill="#092532"/>
</svg>
