<svg width="156" height="156" viewBox="0 0 156 156" fill="none" xmlns="http://www.w3.org/2000/svg">
<path d="M91 93.9674C89.1087 93.7068 87.2256 93.3842 85.4228 92.9667C86.0395 73.7979 78.4023 83.9635 65.0192 50.9521C64.209 47.5701 62.7237 40.7317 60.8333 37.6149C58.6077 33.9717 54.6636 31.9384 50.4359 33.5697C48.5454 34.2992 49.3645 36.1471 48.0728 36.9518C44.1569 37.416 40.106 37.5486 37.0003 38.0128C37.0005 39.9483 36.7803 49.4516 47.6677 48.5568C48.6805 48.8883 47.5327 59.1007 47.4652 60.3607C47.1276 65.5995 45.9799 71.0373 47.8028 76.1435C48.5454 78.2655 49.7607 80.1886 50.7735 82.1781C51.9163 84.423 53.739 93.1627 50.7735 94.9104C49.3556 95.7725 47.2331 96.8467 48.3134 98.9687C48.8148 98.9687 53.8295 98.9687 54.8324 98.9687C57.3951 93.1795 59.8478 87.9649 57.8626 79.3266C59.5505 82.6423 62.2007 85.4337 64.3612 85.9642C61.8539 88.4651 65.5593 92.2578 67.7198 94.3799C66.8685 94.4672 62.6678 95.3112 61.3515 95.9677C60.3486 96.4679 60.146 98.6372 60.3486 98.9687C65.8647 98.9687 84.4189 99.4689 85.4228 96.4679C86.9671 96.8668 89.2114 97.2069 92 97.5" stroke="#092532" stroke-width="1.5" stroke-miterlimit="10" stroke-linecap="round" stroke-linejoin="round"/>
<path d="M53.8388 38.687C53.8388 38.687 51.3796 41.505 52.2272 44.3474C53.9728 49.229 61.4282 49.9181 62.431 44.7704C62.6719 43.6812 62.5766 41.8889 62.1914 40.8127" stroke="#092532" stroke-width="1.5" stroke-miterlimit="10" stroke-linecap="round" stroke-linejoin="round"/>
<path d="M92.7129 88V87.25H92.1765L92.0031 87.7577L92.7129 88ZM117.29 88L118 87.7577L117.827 87.25H117.29V88ZM91.3265 92.0617L92.0363 92.304L91.3265 92.0617ZM118.677 92.0617L117.967 92.304L118.677 92.0617ZM92.7129 88.75H117.29V87.25H92.7129V88.75ZM116.58 88.2423L117.967 92.304L119.386 91.8194L118 87.7577L116.58 88.2423ZM112.998 99.25H97.0048V100.75H112.998V99.25ZM92.0363 92.304L93.4227 88.2423L92.0031 87.7577L90.6167 91.8194L92.0363 92.304ZM97.0048 99.25C93.4054 99.25 90.8735 95.7103 92.0363 92.304L90.6167 91.8194C89.1217 96.199 92.377 100.75 97.0048 100.75V99.25ZM117.967 92.304C119.13 95.7104 116.598 99.25 112.998 99.25V100.75C117.626 100.75 120.881 96.199 119.386 91.8194L117.967 92.304Z" fill="#092532"/>
<path d="M93.9668 88L93.2172 88.0231L93.2396 88.75H93.9668V88ZM115.737 88V88.75H116.288L116.453 88.2248L115.737 88ZM111.965 82H111.215V82.75H111.965V82ZM104.126 80.8711L103.682 81.4755L104.545 82.109L104.846 81.0824L104.126 80.8711ZM96.9859 84.0619L97.1261 84.7987L97.6784 84.6936L97.7324 84.134L96.9859 84.0619ZM93.9668 88.75H115.737V87.25H93.9668V88.75ZM116.453 88.2248C116.623 87.683 116.715 87.1023 116.715 86.5H115.215C115.215 86.9496 115.146 87.3786 115.022 87.7752L116.453 88.2248ZM116.715 86.5C116.715 83.686 114.669 81.25 111.965 81.25V82.75C113.679 82.75 115.215 84.3434 115.215 86.5H116.715ZM112.715 82C112.715 79.3766 110.588 77.25 107.965 77.25V78.75C109.76 78.75 111.215 80.2051 111.215 82H112.715ZM107.965 77.25C105.806 77.25 103.985 78.6897 103.407 80.6598L104.846 81.0824C105.242 79.7336 106.49 78.75 107.965 78.75V77.25ZM104.57 80.2667C103.701 79.6277 102.626 79.25 101.465 79.25V80.75C102.296 80.75 103.061 81.0193 103.682 81.4755L104.57 80.2667ZM101.465 79.25C98.7373 79.25 96.4964 81.3293 96.2394 83.9898L97.7324 84.134C97.9159 82.2351 99.5174 80.75 101.465 80.75V79.25ZM96.8457 83.3251C94.7544 83.723 93.2148 85.6303 93.2148 87.872H94.7148C94.7148 86.3102 95.7814 85.0545 97.1261 84.7987L96.8457 83.3251ZM93.2148 87.872C93.2148 87.9225 93.2156 87.9729 93.2172 88.0231L94.7165 87.9769C94.7154 87.9421 94.7148 87.9071 94.7148 87.872H93.2148Z" fill="#092532"/>
</svg>
