<?xml version="1.0" standalone="no"?>
<!DOCTYPE svg PUBLIC "-//W3C//DTD SVG 1.1//EN" "http://www.w3.org/Graphics/SVG/1.1/DTD/svg11.dtd" >
<svg xmlns="http://www.w3.org/2000/svg" xmlns:xlink="http://www.w3.org/1999/xlink" version="1.1">
<metadata>
Created by FontForge 20190801 at Wed Dec 18 13:05:35 2019
 By Jimmy Wärting
Copyright 2019 CoType Foundry. All Rights Reserved
</metadata>
<defs>
<font id="Aeonik-Bold" horiz-adv-x="600" >
  <font-face 
    font-family="Aeonik"
    font-weight="700"
    font-stretch="normal"
    units-per-em="1000"
    panose-1="2 11 8 3 3 3 0 0 0 0"
    ascent="750"
    descent="-250"
    x-height="514"
    cap-height="700"
    bbox="-407 -206 2173 924"
    underline-thickness="86"
    underline-position="-200"
    stemh="119"
    stemv="150"
    unicode-range="U+000D-1F10C"
  />
<missing-glyph horiz-adv-x="620" 
d="M60 720h500v-829h-500v829zM217 632c-55 0 -85 -35 -85 -90s30 -90 85 -90c44 0 71 28 74 67h-46c-4 -17 -12 -29 -30 -29c-25 0 -35 21 -35 52c0 30 10 52 35 52c18 0 26 -13 30 -30h46c-3 40 -30 68 -74 68zM394 632c-54 0 -87 -39 -87 -90c0 -52 33 -90 87 -90
c53 0 87 38 87 90c0 51 -34 90 -87 90zM394 490c-26 0 -39 22 -39 52s13 52 39 52s39 -22 39 -52s-13 -52 -39 -52zM142 400v-40h49v-138h47v138h50v40h-146zM417 288l64 112h-52l-35 -65l-33 65h-55l64 -112v-66h47v66zM231 46c40 0 67 24 67 61c0 38 -27 62 -67 62h-74
v-178h46v55h28zM463 -9v40h-78v31h60v37h-60v30h75v40h-122v-178h125zM227 131c14 0 24 -9 24 -24c0 -14 -10 -23 -24 -23h-24v47h24z" />
    <glyph glyph-name="f_f.liga" unicode="ff" horiz-adv-x="680" 
d="M591 580c-29 0 -43 -13 -43 -42v-24h129v-119h-129v-395h-141v395h-184v-395h-141v395h-85v119h85v45c0 89 51 141 155 141h99v-120h-71c-29 0 -42 -13 -42 -42v-24h184v45c0 89 52 141 155 141h116v-120h-87z" />
    <glyph glyph-name="f_f_i.liga" unicode="ffi" horiz-adv-x="923" 
d="M804 569c-46 0 -82 34 -82 79c0 46 36 80 82 80s82 -34 82 -80c0 -45 -36 -79 -82 -79zM874 514v-514h-141v395h-185v-395h-141v395h-184v-395h-141v395h-85v119h85v45c0 89 51 141 155 141h99v-120h-71c-29 0 -42 -13 -42 -42v-24h184v45c0 89 52 141 155 141h99v-120
h-70c-29 0 -43 -13 -43 -42v-24h326z" />
    <glyph glyph-name="f_f_t.liga" unicode="fft" horiz-adv-x="1007" 
d="M924 119h72v-119h-116c-98 0 -148 49 -148 147v248h-184v-395h-141v395h-184v-395h-141v395h-85v119h85v45c0 89 51 141 155 141h99v-120h-71c-29 0 -42 -13 -42 -42v-24h184v45c0 89 52 141 155 141h99v-120h-70c-29 0 -43 -13 -43 -42v-24h184v144h142v-144h117v-119
h-117v-225c0 -36 14 -51 50 -51z" />
    <glyph glyph-name="f_t.liga" unicode="ft" horiz-adv-x="681" 
d="M598 119h73v-119h-117c-98 0 -147 49 -147 147v248h-184v-395h-141v395h-85v119h85v45c0 89 51 141 155 141h99v-120h-71c-29 0 -42 -13 -42 -42v-24h184v144h141v-144h117v-119h-117v-225c0 -36 14 -51 50 -51z" />
    <glyph glyph-name="fi" unicode="fi" horiz-adv-x="597" 
d="M478 569c-46 0 -81 34 -81 79c0 46 35 80 81 80s82 -34 82 -80c0 -45 -36 -79 -82 -79zM548 514v-514h-141v395h-184v-395h-141v395h-85v119h85v45c0 89 51 141 155 141h99v-120h-71c-29 0 -42 -13 -42 -42v-24h325z" />
    <glyph glyph-name="t_t.liga" unicode="tt" horiz-adv-x="688" 
d="M604 119h73v-119h-117c-98 0 -147 49 -147 147v248h-190v-225c0 -36 14 -51 50 -51h60v-119h-104c-98 0 -147 49 -147 147v248h-85v119h85v144h141v-144h190v144h141v-144h118v-119h-118v-225c0 -36 15 -51 50 -51z" />
    <glyph glyph-name=".notdef" horiz-adv-x="620" 
d="M60 720h500v-829h-500v829zM217 632c-55 0 -85 -35 -85 -90s30 -90 85 -90c44 0 71 28 74 67h-46c-4 -17 -12 -29 -30 -29c-25 0 -35 21 -35 52c0 30 10 52 35 52c18 0 26 -13 30 -30h46c-3 40 -30 68 -74 68zM394 632c-54 0 -87 -39 -87 -90c0 -52 33 -90 87 -90
c53 0 87 38 87 90c0 51 -34 90 -87 90zM394 490c-26 0 -39 22 -39 52s13 52 39 52s39 -22 39 -52s-13 -52 -39 -52zM142 400v-40h49v-138h47v138h50v40h-146zM417 288l64 112h-52l-35 -65l-33 65h-55l64 -112v-66h47v66zM231 46c40 0 67 24 67 61c0 38 -27 62 -67 62h-74
v-178h46v55h28zM463 -9v40h-78v31h60v37h-60v30h75v40h-122v-178h125zM227 131c14 0 24 -9 24 -24c0 -14 -10 -23 -24 -23h-24v47h24z" />
    <glyph glyph-name="CR" unicode="&#xd;" 
 />
    <glyph glyph-name="space" unicode=" " horiz-adv-x="248" 
 />
    <glyph glyph-name="A" unicode="A" horiz-adv-x="698" 
d="M4 0l256 700h180l254 -700h-161l-54 153h-266l-54 -153h-155zM253 274h185l-93 266z" />
    <glyph glyph-name="Aacute" unicode="&#xc1;" horiz-adv-x="698" 
d="M301 755l73 141h161l-131 -141h-103zM4 0l256 700h180l254 -700h-161l-54 153h-266l-54 -153h-155zM253 274h185l-93 266z" />
    <glyph glyph-name="Abreve" unicode="&#x102;" horiz-adv-x="698" 
d="M194 896h101c0 -34 21 -56 55 -56c32 0 55 22 55 56h101c-4 -88 -67 -147 -159 -147c-89 0 -149 59 -153 147zM4 0l256 700h180l254 -700h-161l-54 153h-266l-54 -153h-155zM253 274h185l-93 266z" />
    <glyph glyph-name="Acircumflex" unicode="&#xc2;" horiz-adv-x="698" 
d="M350 813l-62 -59h-129l128 142h126l128 -142h-130zM4 0l256 700h180l254 -700h-161l-54 153h-266l-54 -153h-155zM253 274h185l-93 266z" />
    <glyph glyph-name="Adieresis" unicode="&#xc4;" horiz-adv-x="698" 
d="M169 835c0 42 33 73 76 73s75 -31 75 -73c0 -41 -32 -73 -75 -73s-76 32 -76 73zM380 835c0 42 33 73 75 73c43 0 76 -31 76 -73c0 -41 -33 -73 -76 -73c-42 0 -75 32 -75 73zM4 0l256 700h180l254 -700h-161l-54 153h-266l-54 -153h-155zM253 274h185l-93 266z" />
    <glyph glyph-name="Agrave" unicode="&#xc0;" horiz-adv-x="698" 
d="M169 896h161l70 -144h-106zM4 0l256 700h180l254 -700h-161l-54 153h-266l-54 -153h-155zM253 274h185l-93 266z" />
    <glyph glyph-name="Amacron" unicode="&#x100;" horiz-adv-x="698" 
d="M195 785v100h311v-100h-311zM4 0l256 700h180l254 -700h-161l-54 153h-266l-54 -153h-155zM253 274h185l-93 266z" />
    <glyph glyph-name="Aogonek" unicode="&#x104;" horiz-adv-x="698" 
d="M632 -106h64v-94h-90c-67 0 -119 37 -119 97c0 43 23 76 56 103h-10l-54 153h-266l-54 -153h-155l256 700h180l254 -700c-60 -27 -95 -52 -95 -80c0 -17 12 -26 33 -26zM253 274h185l-93 266z" />
    <glyph glyph-name="Aring" unicode="&#xc5;" horiz-adv-x="698" 
d="M444 690l250 -690h-161l-54 153h-266l-54 -153h-155l252 688c-24 22 -38 52 -38 86c0 67 58 121 130 121c73 0 131 -54 131 -121c0 -33 -13 -62 -35 -84zM348 832c-32 0 -58 -25 -58 -58c0 -34 26 -59 58 -59c33 0 59 25 59 59c0 33 -26 58 -59 58zM253 274h185l-93 266z
" />
    <glyph glyph-name="Atilde" unicode="&#xc3;" horiz-adv-x="698" 
d="M309 809c-21 0 -34 -18 -34 -39h-82v20c0 61 39 107 95 107c58 0 67 -43 104 -43c20 0 33 17 33 39h82v-21c0 -61 -40 -107 -95 -107c-58 0 -70 44 -103 44zM4 0l256 700h180l254 -700h-161l-54 153h-266l-54 -153h-155zM253 274h185l-93 266z" />
    <glyph glyph-name="AE" unicode="&#xc6;" horiz-adv-x="996" 
d="M634 129h332v-129h-482v148h-246l-89 -148h-155l410 700h550v-129h-320v-157h260v-123h-260v-162zM307 269h177v304z" />
    <glyph glyph-name="AEacute" unicode="&#x1fc;" horiz-adv-x="996" 
d="M753 896l-131 -141h-103l73 141h161zM634 129h332v-129h-482v148h-246l-89 -148h-155l410 700h550v-129h-320v-157h260v-123h-260v-162zM307 269h177v304z" />
    <glyph glyph-name="B" unicode="B" horiz-adv-x="646" 
d="M60 700h266c162 0 256 -67 256 -184c0 -88 -52 -141 -138 -157c99 -13 163 -62 163 -162c0 -121 -96 -197 -268 -197h-279v700zM210 582v-170h120c64 0 102 33 102 85s-37 85 -102 85h-120zM210 296v-177h130c72 0 113 33 113 87c0 57 -42 90 -113 90h-130z" />
    <glyph glyph-name="C" unicode="C" horiz-adv-x="702" 
d="M32 350c0 215 131 356 343 356c166 0 283 -104 300 -256h-150c-17 78 -74 129 -158 129c-114 0 -182 -94 -182 -229c0 -134 68 -229 182 -229c84 0 141 51 158 129h150c-17 -152 -134 -256 -300 -256c-212 0 -343 141 -343 356z" />
    <glyph glyph-name="Cacute" unicode="&#x106;" horiz-adv-x="702" 
d="M326 755l73 141h161l-131 -141h-103zM32 350c0 215 131 356 343 356c166 0 283 -104 300 -256h-150c-17 78 -74 129 -158 129c-114 0 -182 -94 -182 -229c0 -134 68 -229 182 -229c84 0 141 51 158 129h150c-17 -152 -134 -256 -300 -256c-212 0 -343 141 -343 356z" />
    <glyph glyph-name="Ccaron" unicode="&#x10c;" horiz-adv-x="702" 
d="M375 837l62 59h129l-128 -142h-126l-128 142h130zM32 350c0 215 131 356 343 356c166 0 283 -104 300 -256h-150c-17 78 -74 129 -158 129c-114 0 -182 -94 -182 -229c0 -134 68 -229 182 -229c84 0 141 51 158 129h150c-17 -152 -134 -256 -300 -256
c-212 0 -343 141 -343 356z" />
    <glyph glyph-name="Ccedilla" unicode="&#xc7;" horiz-adv-x="702" 
d="M367 121c84 0 141 51 158 129h150c-16 -141 -117 -241 -264 -254l-7 -26h17c55 0 91 -29 91 -77c0 -57 -43 -93 -109 -93h-119v69h92c17 0 29 7 29 25c0 14 -12 22 -29 22h-59l20 80c-190 16 -305 152 -305 354c0 215 131 356 343 356c166 0 283 -104 300 -256h-150
c-17 78 -74 129 -158 129c-114 0 -182 -94 -182 -229c0 -134 68 -229 182 -229z" />
    <glyph glyph-name="Ccircumflex" unicode="&#x108;" horiz-adv-x="702" 
d="M375 813l-62 -59h-129l128 142h126l128 -142h-130zM32 350c0 215 131 356 343 356c166 0 283 -104 300 -256h-150c-17 78 -74 129 -158 129c-114 0 -182 -94 -182 -229c0 -134 68 -229 182 -229c84 0 141 51 158 129h150c-17 -152 -134 -256 -300 -256
c-212 0 -343 141 -343 356z" />
    <glyph glyph-name="Cdotaccent" unicode="&#x10a;" horiz-adv-x="702" 
d="M375 765c-46 0 -82 34 -82 79c0 46 36 80 82 80s82 -34 82 -80c0 -45 -36 -79 -82 -79zM32 350c0 215 131 356 343 356c166 0 283 -104 300 -256h-150c-17 78 -74 129 -158 129c-114 0 -182 -94 -182 -229c0 -134 68 -229 182 -229c84 0 141 51 158 129h150
c-17 -152 -134 -256 -300 -256c-212 0 -343 141 -343 356z" />
    <glyph glyph-name="D" unicode="D" horiz-adv-x="688" 
d="M60 0v700h243c214 0 353 -145 353 -350s-139 -350 -353 -350h-243zM210 125h93c130 0 200 92 200 225s-70 225 -200 225h-93v-450z" />
    <glyph glyph-name="Eth" unicode="&#xd0;" horiz-adv-x="704" 
d="M319 700c214 0 353 -145 353 -350s-139 -350 -353 -350h-243v303h-79v104h79v293h243zM319 125c130 0 200 92 200 225s-70 225 -200 225h-93v-168h112v-104h-112v-178h93z" />
    <glyph glyph-name="Dcaron" unicode="&#x10e;" horiz-adv-x="688" 
d="M330 837l62 59h129l-128 -142h-126l-128 142h130zM60 0v700h243c214 0 353 -145 353 -350s-139 -350 -353 -350h-243zM210 125h93c130 0 200 92 200 225s-70 225 -200 225h-93v-450z" />
    <glyph glyph-name="Dcroat" unicode="&#x110;" horiz-adv-x="704" 
d="M319 700c214 0 353 -145 353 -350s-139 -350 -353 -350h-243v303h-79v104h79v293h243zM319 125c130 0 200 92 200 225s-70 225 -200 225h-93v-168h112v-104h-112v-178h93z" />
    <glyph glyph-name="E" unicode="E" horiz-adv-x="571" 
d="M60 700h470v-129h-320v-157h260v-123h-260v-162h331v-129h-481v700z" />
    <glyph glyph-name="Eacute" unicode="&#xc9;" horiz-adv-x="571" 
d="M250 755l73 141h161l-131 -141h-103zM60 700h470v-129h-320v-157h260v-123h-260v-162h331v-129h-481v700z" />
    <glyph glyph-name="Ebreve" unicode="&#x114;" horiz-adv-x="571" 
d="M143 896h101c0 -34 21 -56 55 -56c32 0 55 22 55 56h101c-4 -88 -67 -147 -159 -147c-89 0 -149 59 -153 147zM60 700h470v-129h-320v-157h260v-123h-260v-162h331v-129h-481v700z" />
    <glyph glyph-name="Ecaron" unicode="&#x11a;" horiz-adv-x="571" 
d="M299 837l62 59h129l-128 -142h-126l-128 142h130zM60 700h470v-129h-320v-157h260v-123h-260v-162h331v-129h-481v700z" />
    <glyph glyph-name="Ecircumflex" unicode="&#xca;" horiz-adv-x="571" 
d="M299 813l-62 -59h-129l128 142h126l128 -142h-130zM60 700h470v-129h-320v-157h260v-123h-260v-162h331v-129h-481v700z" />
    <glyph glyph-name="Edieresis" unicode="&#xcb;" horiz-adv-x="571" 
d="M118 835c0 42 33 73 76 73s75 -31 75 -73c0 -41 -32 -73 -75 -73s-76 32 -76 73zM329 835c0 42 33 73 75 73c43 0 76 -31 76 -73c0 -41 -33 -73 -76 -73c-42 0 -75 32 -75 73zM60 700h470v-129h-320v-157h260v-123h-260v-162h331v-129h-481v700z" />
    <glyph glyph-name="Edotaccent" unicode="&#x116;" horiz-adv-x="571" 
d="M299 765c-46 0 -82 34 -82 79c0 46 36 80 82 80s82 -34 82 -80c0 -45 -36 -79 -82 -79zM60 700h470v-129h-320v-157h260v-123h-260v-162h331v-129h-481v700z" />
    <glyph glyph-name="Egrave" unicode="&#xc8;" horiz-adv-x="571" 
d="M118 896h161l70 -144h-106zM60 700h470v-129h-320v-157h260v-123h-260v-162h331v-129h-481v700z" />
    <glyph glyph-name="Emacron" unicode="&#x112;" horiz-adv-x="571" 
d="M144 785v100h311v-100h-311zM60 700h470v-129h-320v-157h260v-123h-260v-162h331v-129h-481v700z" />
    <glyph glyph-name="Eogonek" unicode="&#x118;" horiz-adv-x="571" 
d="M479 -106h64v-94h-90c-67 0 -119 37 -119 97c0 43 23 76 56 103h-330v700h470v-129h-320v-157h260v-123h-260v-162h331v-129c-60 -27 -95 -52 -95 -80c0 -17 12 -26 33 -26z" />
    <glyph glyph-name="F" unicode="F" horiz-adv-x="544" 
d="M60 700h462v-129h-312v-164h256v-123h-256v-284h-150v700z" />
    <glyph glyph-name="G" unicode="G" horiz-adv-x="749" 
d="M32 350c0 215 132 356 347 356c169 0 286 -104 305 -255h-148c-18 77 -75 128 -161 128c-117 0 -190 -94 -190 -229s70 -229 190 -229c80 0 161 42 175 140v9h-174v119h313v-389h-104l-16 87c-37 -49 -105 -93 -204 -93c-200 0 -333 141 -333 356z" />
    <glyph glyph-name="Gbreve" unicode="&#x11e;" horiz-adv-x="749" 
d="M223 896h101c0 -34 21 -56 55 -56c32 0 55 22 55 56h101c-4 -88 -67 -147 -159 -147c-89 0 -149 59 -153 147zM32 350c0 215 132 356 347 356c169 0 286 -104 305 -255h-148c-18 77 -75 128 -161 128c-117 0 -190 -94 -190 -229s70 -229 190 -229c80 0 161 42 175 140v9
h-174v119h313v-389h-104l-16 87c-37 -49 -105 -93 -204 -93c-200 0 -333 141 -333 356z" />
    <glyph glyph-name="Gcircumflex" unicode="&#x11c;" horiz-adv-x="749" 
d="M379 813l-62 -59h-129l128 142h126l128 -142h-130zM32 350c0 215 132 356 347 356c169 0 286 -104 305 -255h-148c-18 77 -75 128 -161 128c-117 0 -190 -94 -190 -229s70 -229 190 -229c80 0 161 42 175 140v9h-174v119h313v-389h-104l-16 87c-37 -49 -105 -93 -204 -93
c-200 0 -333 141 -333 356z" />
    <glyph glyph-name="uni0122" unicode="&#x122;" horiz-adv-x="749" 
d="M32 350c0 215 132 356 347 356c169 0 286 -104 305 -255h-148c-18 77 -75 128 -161 128c-117 0 -190 -94 -190 -229s70 -229 190 -229c80 0 161 42 175 140v9h-174v119h313v-389h-104l-16 87c-37 -49 -105 -93 -204 -93c-200 0 -333 141 -333 356zM294 -48h137l-85 -147
h-105z" />
    <glyph glyph-name="Gdotaccent" unicode="&#x120;" horiz-adv-x="749" 
d="M379 765c-46 0 -82 34 -82 79c0 46 36 80 82 80s82 -34 82 -80c0 -45 -36 -79 -82 -79zM32 350c0 215 132 356 347 356c169 0 286 -104 305 -255h-148c-18 77 -75 128 -161 128c-117 0 -190 -94 -190 -229s70 -229 190 -229c80 0 161 42 175 140v9h-174v119h313v-389
h-104l-16 87c-37 -49 -105 -93 -204 -93c-200 0 -333 141 -333 356z" />
    <glyph glyph-name="H" unicode="H" horiz-adv-x="697" 
d="M60 700h150v-281h278v281h150v-700h-150v289h-278v-289h-150v700z" />
    <glyph glyph-name="Hbar" unicode="&#x126;" horiz-adv-x="721" 
d="M724 597v-103h-74v-494h-150v266h-279v-266h-150v494h-74v103h74v103h150v-103h279v103h150v-103h74zM500 396v98h-279v-98h279z" />
    <glyph glyph-name="Hcircumflex" unicode="&#x124;" horiz-adv-x="697" 
d="M349 813l-62 -59h-129l128 142h126l128 -142h-130zM60 700h150v-281h278v281h150v-700h-150v289h-278v-289h-150v700z" />
    <glyph glyph-name="I" unicode="I" horiz-adv-x="269" 
d="M60 700h150v-700h-150v700z" />
    <glyph glyph-name="IJ" unicode="&#x132;" horiz-adv-x="654" 
d="M55 273h151c0 -93 37 -152 120 -152c84 0 122 51 122 150v429h151v-425c0 -185 -97 -281 -273 -281c-175 0 -273 93 -271 279zM57 700h150v-339h-150v339z" />
    <glyph glyph-name="Iacute" unicode="&#xcd;" horiz-adv-x="269" 
d="M85 755l73 141h161l-131 -141h-103zM60 700h150v-700h-150v700z" />
    <glyph glyph-name="Ibreve" unicode="&#x12c;" horiz-adv-x="269" 
d="M-22 896h101c0 -34 21 -56 55 -56c32 0 55 22 55 56h101c-4 -88 -67 -147 -159 -147c-89 0 -149 59 -153 147zM60 700h150v-700h-150v700z" />
    <glyph glyph-name="Icircumflex" unicode="&#xce;" horiz-adv-x="269" 
d="M134 813l-62 -59h-129l128 142h126l128 -142h-130zM60 700h150v-700h-150v700z" />
    <glyph glyph-name="Idieresis" unicode="&#xcf;" horiz-adv-x="269" 
d="M-47 835c0 42 33 73 76 73s75 -31 75 -73c0 -41 -32 -73 -75 -73s-76 32 -76 73zM164 835c0 42 33 73 75 73c43 0 76 -31 76 -73c0 -41 -33 -73 -76 -73c-42 0 -75 32 -75 73zM60 700h150v-700h-150v700z" />
    <glyph glyph-name="Idotaccent" unicode="&#x130;" horiz-adv-x="269" 
d="M134 765c-46 0 -82 34 -82 79c0 46 36 80 82 80s82 -34 82 -80c0 -45 -36 -79 -82 -79zM60 700h150v-700h-150v700z" />
    <glyph glyph-name="Igrave" unicode="&#xcc;" horiz-adv-x="269" 
d="M-47 896h161l70 -144h-106zM60 700h150v-700h-150v700z" />
    <glyph glyph-name="Imacron" unicode="&#x12a;" horiz-adv-x="269" 
d="M-21 785v100h311v-100h-311zM60 700h150v-700h-150v700z" />
    <glyph glyph-name="Iogonek" unicode="&#x12e;" horiz-adv-x="269" 
d="M148 -106h64v-94h-90c-67 0 -119 37 -119 97c0 43 24 76 57 104v699h150v-700c-60 -27 -95 -52 -95 -80c0 -17 12 -26 33 -26z" />
    <glyph glyph-name="Itilde" unicode="&#x128;" horiz-adv-x="269" 
d="M93 809c-21 0 -34 -18 -34 -39h-82v20c0 61 39 107 95 107c58 0 67 -43 104 -43c20 0 33 17 33 39h82v-21c0 -61 -40 -107 -95 -107c-58 0 -70 44 -103 44zM60 700h150v-700h-150v700z" />
    <glyph glyph-name="J" unicode="J" horiz-adv-x="397" 
d="M187 700h150v-514c0 -118 -68 -186 -186 -186h-129v129h83c59 0 82 28 82 86v485z" />
    <glyph glyph-name="J.ss07" horiz-adv-x="619" 
d="M20 273h151c0 -93 37 -152 121 -152s121 51 121 150v429h151v-425c0 -185 -97 -281 -272 -281s-273 93 -272 279z" />
    <glyph glyph-name="Jcircumflex" unicode="&#x134;" horiz-adv-x="397" 
d="M262 813l-62 -59h-129l128 142h126l128 -142h-130zM187 700h150v-514c0 -118 -68 -186 -186 -186h-129v129h83c59 0 82 28 82 86v485z" />
    <glyph glyph-name="Jcircumflex.ss07" horiz-adv-x="619" 
d="M490 813l-62 -59h-129l128 142h126l128 -142h-130zM20 273h151c0 -93 37 -152 121 -152s121 51 121 150v429h151v-425c0 -185 -97 -281 -272 -281s-273 93 -272 279z" />
    <glyph glyph-name="K" unicode="K" horiz-adv-x="683" 
d="M60 700h150v-315l280 315h182l-257 -289l274 -411h-180l-200 295l-99 -111v-184h-150v700z" />
    <glyph glyph-name="uni0136" unicode="&#x136;" horiz-adv-x="683" 
d="M60 700h150v-315l280 315h182l-257 -289l274 -411h-180l-200 295l-99 -111v-184h-150v700zM268 -48h137l-85 -147h-105z" />
    <glyph glyph-name="L" unicode="L" horiz-adv-x="509" 
d="M60 0v700h150v-571h278v-129h-428z" />
    <glyph glyph-name="Lacute" unicode="&#x139;" horiz-adv-x="509" 
d="M85 755l73 141h161l-131 -141h-103zM60 0v700h150v-571h278v-129h-428z" />
    <glyph glyph-name="Lcaron" unicode="&#x13d;" horiz-adv-x="509" 
d="M60 0v700h150v-571h278v-129h-428zM285 700h132l-68 -148h-99z" />
    <glyph glyph-name="uni013B" unicode="&#x13b;" horiz-adv-x="509" 
d="M60 0v700h150v-571h278v-129h-428zM199 -48h137l-85 -147h-105z" />
    <glyph glyph-name="Ldot" unicode="&#x13f;" horiz-adv-x="509" 
d="M60 0v700h150v-571h278v-129h-428zM384 302c-46 0 -81 34 -81 80s35 79 81 79c47 0 82 -33 82 -79s-35 -80 -82 -80z" />
    <glyph glyph-name="Lslash" unicode="&#x141;" horiz-adv-x="521" 
d="M221 129h278v-129h-428v265l-74 -39v116l74 39v319h150v-240l140 74v-115l-140 -74v-216z" />
    <glyph glyph-name="M" unicode="M" horiz-adv-x="892" 
d="M60 700h197l194 -514l188 514h193v-700h-143v469l-182 -469h-122l-182 469v-469h-143v700z" />
    <glyph glyph-name="N" unicode="N" horiz-adv-x="700" 
d="M60 0v700h136l297 -441v441h148v-700h-137l-297 441v-441h-147z" />
    <glyph glyph-name="Nacute" unicode="&#x143;" horiz-adv-x="700" 
d="M290 755l73 141h161l-131 -141h-103zM60 0v700h136l297 -441v441h148v-700h-137l-297 441v-441h-147z" />
    <glyph glyph-name="Ncaron" unicode="&#x147;" horiz-adv-x="700" 
d="M339 837l62 59h129l-128 -142h-126l-128 142h130zM60 0v700h136l297 -441v441h148v-700h-137l-297 441v-441h-147z" />
    <glyph glyph-name="uni0145" unicode="&#x145;" horiz-adv-x="700" 
d="M60 0v700h136l297 -441v441h148v-700h-137l-297 441v-441h-147zM275 -48h137l-85 -147h-105z" />
    <glyph glyph-name="Eng" unicode="&#x14a;" horiz-adv-x="700" 
d="M493 700h148v-735c0 -104 -53 -165 -156 -165h-88v122h49c34 0 51 17 51 57v31l-290 431v-441h-147v700h136l297 -441v441z" />
    <glyph glyph-name="Ntilde" unicode="&#xd1;" horiz-adv-x="700" 
d="M298 809c-21 0 -34 -18 -34 -39h-82v20c0 61 39 107 95 107c58 0 67 -43 104 -43c20 0 33 17 33 39h82v-21c0 -61 -40 -107 -95 -107c-58 0 -70 44 -103 44zM60 0v700h136l297 -441v441h148v-700h-137l-297 441v-441h-147z" />
    <glyph glyph-name="O" unicode="O" horiz-adv-x="757" 
d="M726 350c0 -204 -141 -356 -347 -356s-347 152 -347 356s141 356 347 356s347 -152 347 -356zM185 350c0 -132 76 -229 194 -229c117 0 193 97 193 229s-76 229 -193 229c-118 0 -194 -97 -194 -229z" />
    <glyph glyph-name="Oacute" unicode="&#xd3;" horiz-adv-x="757" 
d="M330 755l73 141h161l-131 -141h-103zM726 350c0 -204 -141 -356 -347 -356s-347 152 -347 356s141 356 347 356s347 -152 347 -356zM185 350c0 -132 76 -229 194 -229c117 0 193 97 193 229s-76 229 -193 229c-118 0 -194 -97 -194 -229z" />
    <glyph glyph-name="Obreve" unicode="&#x14e;" horiz-adv-x="757" 
d="M223 896h101c0 -34 21 -56 55 -56c32 0 55 22 55 56h101c-4 -88 -67 -147 -159 -147c-89 0 -149 59 -153 147zM726 350c0 -204 -141 -356 -347 -356s-347 152 -347 356s141 356 347 356s347 -152 347 -356zM185 350c0 -132 76 -229 194 -229c117 0 193 97 193 229
s-76 229 -193 229c-118 0 -194 -97 -194 -229z" />
    <glyph glyph-name="Ocircumflex" unicode="&#xd4;" horiz-adv-x="757" 
d="M379 813l-62 -59h-129l128 142h126l128 -142h-130zM726 350c0 -204 -141 -356 -347 -356s-347 152 -347 356s141 356 347 356s347 -152 347 -356zM185 350c0 -132 76 -229 194 -229c117 0 193 97 193 229s-76 229 -193 229c-118 0 -194 -97 -194 -229z" />
    <glyph glyph-name="Odieresis" unicode="&#xd6;" horiz-adv-x="757" 
d="M198 835c0 42 33 73 76 73s75 -31 75 -73c0 -41 -32 -73 -75 -73s-76 32 -76 73zM409 835c0 42 33 73 75 73c43 0 76 -31 76 -73c0 -41 -33 -73 -76 -73c-42 0 -75 32 -75 73zM726 350c0 -204 -141 -356 -347 -356s-347 152 -347 356s141 356 347 356s347 -152 347 -356z
M185 350c0 -132 76 -229 194 -229c117 0 193 97 193 229s-76 229 -193 229c-118 0 -194 -97 -194 -229z" />
    <glyph glyph-name="Ograve" unicode="&#xd2;" horiz-adv-x="757" 
d="M198 896h161l70 -144h-106zM726 350c0 -204 -141 -356 -347 -356s-347 152 -347 356s141 356 347 356s347 -152 347 -356zM185 350c0 -132 76 -229 194 -229c117 0 193 97 193 229s-76 229 -193 229c-118 0 -194 -97 -194 -229z" />
    <glyph glyph-name="Ohungarumlaut" unicode="&#x150;" horiz-adv-x="757" 
d="M219 752l73 144h154l-131 -144h-96zM418 752l74 144h153l-130 -144h-97zM726 350c0 -204 -141 -356 -347 -356s-347 152 -347 356s141 356 347 356s347 -152 347 -356zM185 350c0 -132 76 -229 194 -229c117 0 193 97 193 229s-76 229 -193 229
c-118 0 -194 -97 -194 -229z" />
    <glyph glyph-name="Omacron" unicode="&#x14c;" horiz-adv-x="757" 
d="M224 785v100h311v-100h-311zM726 350c0 -204 -141 -356 -347 -356s-347 152 -347 356s141 356 347 356s347 -152 347 -356zM185 350c0 -132 76 -229 194 -229c117 0 193 97 193 229s-76 229 -193 229c-118 0 -194 -97 -194 -229z" />
    <glyph glyph-name="Oslash" unicode="&#xd8;" horiz-adv-x="757" 
d="M726 634l-66 -68c42 -59 66 -133 66 -216c0 -204 -141 -356 -347 -356c-81 0 -153 24 -210 66l-64 -66l-73 73l65 67c-41 59 -65 133 -65 216c0 204 141 356 347 356c81 0 153 -24 210 -67l65 67zM185 350c0 -39 7 -75 19 -107l289 298c-30 25 -69 38 -114 38
c-118 0 -194 -97 -194 -229zM572 350c0 39 -6 75 -19 106l-288 -297c31 -24 69 -38 114 -38c117 0 193 97 193 229z" />
    <glyph glyph-name="Otilde" unicode="&#xd5;" horiz-adv-x="757" 
d="M338 809c-21 0 -34 -18 -34 -39h-82v20c0 61 39 107 95 107c58 0 67 -43 104 -43c20 0 33 17 33 39h82v-21c0 -61 -40 -107 -95 -107c-58 0 -70 44 -103 44zM726 350c0 -204 -141 -356 -347 -356s-347 152 -347 356s141 356 347 356s347 -152 347 -356zM185 350
c0 -132 76 -229 194 -229c117 0 193 97 193 229s-76 229 -193 229c-118 0 -194 -97 -194 -229z" />
    <glyph glyph-name="OE" unicode="&#x152;" horiz-adv-x="1115" 
d="M753 129h332v-129h-482v75c-48 -51 -117 -81 -211 -81c-214 0 -360 152 -360 356s146 356 360 356c94 0 163 -30 211 -81v75h470v-129h-320v-157h260v-123h-260v-162zM394 121c127 0 209 97 209 229s-82 229 -209 229c-128 0 -209 -97 -209 -229s81 -229 209 -229z" />
    <glyph glyph-name="P" unicode="P" horiz-adv-x="622" 
d="M60 700h285c152 0 253 -91 253 -233c0 -141 -101 -232 -253 -232h-135v-235h-150v700zM210 575v-215h121c70 0 115 41 115 107c0 67 -45 108 -115 108h-121z" />
    <glyph glyph-name="Thorn" unicode="&#xde;" horiz-adv-x="623" 
d="M60 700h150v-108h120c167 0 269 -89 269 -233c0 -145 -105 -232 -268 -232h-121v-127h-150v700zM210 467v-215h116c74 0 121 39 121 107c0 69 -47 108 -120 108h-117z" />
    <glyph glyph-name="Q" unicode="Q" horiz-adv-x="764" 
d="M683 129h69v-129h-72c-60 0 -85 17 -109 47c-53 -34 -119 -53 -192 -53c-206 0 -347 152 -347 356s141 356 347 356s347 -152 347 -356c0 -83 -23 -158 -65 -217c6 -2 13 -4 22 -4zM185 350c0 -132 76 -229 194 -229c41 0 77 12 107 33l-10 12c-15 20 -28 31 -50 31h-65
v127h76c59 0 79 -21 103 -51l16 -20c11 29 16 62 16 97c0 132 -76 229 -193 229c-118 0 -194 -97 -194 -229z" />
    <glyph glyph-name="Q.ss08" horiz-adv-x="757" 
d="M726 350c0 -126 -54 -232 -143 -295l87 -133h-151l-53 82c-28 -7 -57 -10 -87 -10c-206 0 -347 152 -347 356s141 356 347 356s347 -152 347 -356zM379 121h10l-71 109h151l38 -58c41 41 65 104 65 178c0 132 -76 229 -193 229c-118 0 -194 -97 -194 -229
s76 -229 194 -229z" />
    <glyph glyph-name="R" unicode="R" horiz-adv-x="642" 
d="M60 700h285c154 0 257 -91 257 -233c0 -90 -47 -162 -120 -197l138 -270h-166l-117 235h-127v-235h-150v700zM210 575v-215h123c71 0 116 42 116 107c0 66 -45 108 -116 108h-123z" />
    <glyph glyph-name="Racute" unicode="&#x154;" horiz-adv-x="642" 
d="M245 755l73 141h161l-131 -141h-103zM60 700h285c154 0 257 -91 257 -233c0 -90 -47 -162 -120 -197l138 -270h-166l-117 235h-127v-235h-150v700zM210 575v-215h123c71 0 116 42 116 107c0 66 -45 108 -116 108h-123z" />
    <glyph glyph-name="Rcaron" unicode="&#x158;" horiz-adv-x="642" 
d="M294 837l62 59h129l-128 -142h-126l-128 142h130zM60 700h285c154 0 257 -91 257 -233c0 -90 -47 -162 -120 -197l138 -270h-166l-117 235h-127v-235h-150v700zM210 575v-215h123c71 0 116 42 116 107c0 66 -45 108 -116 108h-123z" />
    <glyph glyph-name="uni0156" unicode="&#x156;" horiz-adv-x="642" 
d="M60 700h285c154 0 257 -91 257 -233c0 -90 -47 -162 -120 -197l138 -270h-166l-117 235h-127v-235h-150v700zM210 575v-215h123c71 0 116 42 116 107c0 66 -45 108 -116 108h-123zM247 -48h137l-85 -147h-105z" />
    <glyph glyph-name="S" unicode="S" horiz-adv-x="625" 
d="M32 230l147 -2c5 -68 59 -115 145 -115c69 0 120 30 120 85c0 59 -57 71 -174 94c-118 22 -222 60 -222 202c0 123 109 212 261 212c156 0 269 -93 272 -220h-147c-6 59 -52 100 -125 100c-64 0 -110 -27 -110 -81c0 -57 55 -69 171 -91c120 -22 226 -58 225 -199
c-1 -128 -116 -221 -273 -221c-170 0 -288 100 -290 236z" />
    <glyph glyph-name="Sacute" unicode="&#x15a;" horiz-adv-x="625" 
d="M262 755l73 141h161l-131 -141h-103zM32 230l147 -2c5 -68 59 -115 145 -115c69 0 120 30 120 85c0 59 -57 71 -174 94c-118 22 -222 60 -222 202c0 123 109 212 261 212c156 0 269 -93 272 -220h-147c-6 59 -52 100 -125 100c-64 0 -110 -27 -110 -81
c0 -57 55 -69 171 -91c120 -22 226 -58 225 -199c-1 -128 -116 -221 -273 -221c-170 0 -288 100 -290 236z" />
    <glyph glyph-name="Scaron" unicode="&#x160;" horiz-adv-x="625" 
d="M311 837l62 59h129l-128 -142h-126l-128 142h130zM32 230l147 -2c5 -68 59 -115 145 -115c69 0 120 30 120 85c0 59 -57 71 -174 94c-118 22 -222 60 -222 202c0 123 109 212 261 212c156 0 269 -93 272 -220h-147c-6 59 -52 100 -125 100c-64 0 -110 -27 -110 -81
c0 -57 55 -69 171 -91c120 -22 226 -58 225 -199c-1 -128 -116 -221 -273 -221c-170 0 -288 100 -290 236z" />
    <glyph glyph-name="Scedilla" unicode="&#x15e;" horiz-adv-x="625" 
d="M370 414c120 -22 226 -58 225 -199c-1 -120 -101 -209 -242 -220l-7 -25h17c55 0 91 -29 91 -77c0 -57 -43 -93 -109 -93h-119v69h92c17 0 29 7 29 25c0 14 -12 22 -29 22h-59l20 80c-147 16 -245 110 -247 234l147 -2c5 -68 59 -115 145 -115c69 0 120 30 120 85
c0 59 -57 71 -174 94c-118 22 -222 60 -222 202c0 123 109 212 261 212c156 0 269 -93 272 -220h-147c-6 59 -52 100 -125 100c-64 0 -110 -27 -110 -81c0 -57 55 -69 171 -91z" />
    <glyph glyph-name="Scircumflex" unicode="&#x15c;" horiz-adv-x="625" 
d="M311 813l-62 -59h-129l128 142h126l128 -142h-130zM32 230l147 -2c5 -68 59 -115 145 -115c69 0 120 30 120 85c0 59 -57 71 -174 94c-118 22 -222 60 -222 202c0 123 109 212 261 212c156 0 269 -93 272 -220h-147c-6 59 -52 100 -125 100c-64 0 -110 -27 -110 -81
c0 -57 55 -69 171 -91c120 -22 226 -58 225 -199c-1 -128 -116 -221 -273 -221c-170 0 -288 100 -290 236z" />
    <glyph glyph-name="uni0218" unicode="&#x218;" horiz-adv-x="625" 
d="M32 230l147 -2c5 -68 59 -115 145 -115c69 0 120 30 120 85c0 59 -57 71 -174 94c-118 22 -222 60 -222 202c0 123 109 212 261 212c156 0 269 -93 272 -220h-147c-6 59 -52 100 -125 100c-64 0 -110 -27 -110 -81c0 -57 55 -69 171 -91c120 -22 226 -58 225 -199
c-1 -128 -116 -221 -273 -221c-170 0 -288 100 -290 236zM246 -48h137l-85 -147h-105z" />
    <glyph glyph-name="T" unicode="T" horiz-adv-x="598" 
d="M22 700h554v-129h-202v-571h-150v571h-202v129z" />
    <glyph glyph-name="Tbar" unicode="&#x166;" horiz-adv-x="598" 
d="M576 571h-202v-181h110v-104h-110v-286h-150v286h-109v104h109v181h-202v129h554v-129z" />
    <glyph glyph-name="Tcaron" unicode="&#x164;" horiz-adv-x="598" 
d="M303 837l62 59h129l-128 -142h-126l-128 142h130zM22 700h554v-129h-202v-571h-150v571h-202v129z" />
    <glyph glyph-name="uni021A" unicode="&#x21a;" horiz-adv-x="598" 
d="M22 700h554v-129h-202v-571h-150v571h-202v129zM227 -48h137l-85 -147h-105z" />
    <glyph glyph-name="uni0162" unicode="&#x162;" horiz-adv-x="598" 
d="M22 700h554v-129h-202v-571h-150v571h-202v129zM227 -48h137l-85 -147h-105z" />
    <glyph glyph-name="U" unicode="U" horiz-adv-x="685" 
d="M55 700h150v-406c0 -111 41 -171 137 -171c97 0 138 60 138 171v406h150v-398c0 -199 -99 -308 -288 -308c-188 0 -287 109 -287 308v398z" />
    <glyph glyph-name="Uacute" unicode="&#xda;" horiz-adv-x="685" 
d="M294 755l73 141h161l-131 -141h-103zM55 700h150v-406c0 -111 41 -171 137 -171c97 0 138 60 138 171v406h150v-398c0 -199 -99 -308 -288 -308c-188 0 -287 109 -287 308v398z" />
    <glyph glyph-name="Ubreve" unicode="&#x16c;" horiz-adv-x="685" 
d="M187 896h101c0 -34 21 -56 55 -56c32 0 55 22 55 56h101c-4 -88 -67 -147 -159 -147c-89 0 -149 59 -153 147zM55 700h150v-406c0 -111 41 -171 137 -171c97 0 138 60 138 171v406h150v-398c0 -199 -99 -308 -288 -308c-188 0 -287 109 -287 308v398z" />
    <glyph glyph-name="Ucircumflex" unicode="&#xdb;" horiz-adv-x="685" 
d="M343 813l-62 -59h-129l128 142h126l128 -142h-130zM55 700h150v-406c0 -111 41 -171 137 -171c97 0 138 60 138 171v406h150v-398c0 -199 -99 -308 -288 -308c-188 0 -287 109 -287 308v398z" />
    <glyph glyph-name="Udieresis" unicode="&#xdc;" horiz-adv-x="685" 
d="M162 835c0 42 33 73 76 73s75 -31 75 -73c0 -41 -32 -73 -75 -73s-76 32 -76 73zM373 835c0 42 33 73 75 73c43 0 76 -31 76 -73c0 -41 -33 -73 -76 -73c-42 0 -75 32 -75 73zM55 700h150v-406c0 -111 41 -171 137 -171c97 0 138 60 138 171v406h150v-398
c0 -199 -99 -308 -288 -308c-188 0 -287 109 -287 308v398z" />
    <glyph glyph-name="Ugrave" unicode="&#xd9;" horiz-adv-x="685" 
d="M162 896h161l70 -144h-106zM55 700h150v-406c0 -111 41 -171 137 -171c97 0 138 60 138 171v406h150v-398c0 -199 -99 -308 -288 -308c-188 0 -287 109 -287 308v398z" />
    <glyph glyph-name="Uhungarumlaut" unicode="&#x170;" horiz-adv-x="685" 
d="M183 752l73 144h154l-131 -144h-96zM382 752l74 144h153l-130 -144h-97zM55 700h150v-406c0 -111 41 -171 137 -171c97 0 138 60 138 171v406h150v-398c0 -199 -99 -308 -288 -308c-188 0 -287 109 -287 308v398z" />
    <glyph glyph-name="Umacron" unicode="&#x16a;" horiz-adv-x="685" 
d="M188 785v100h311v-100h-311zM55 700h150v-406c0 -111 41 -171 137 -171c97 0 138 60 138 171v406h150v-398c0 -199 -99 -308 -288 -308c-188 0 -287 109 -287 308v398z" />
    <glyph glyph-name="Uogonek" unicode="&#x172;" horiz-adv-x="685" 
d="M480 700h150v-398c0 -174 -76 -279 -221 -303c-59 -27 -93 -51 -93 -79c0 -17 12 -26 33 -26h64v-94h-90c-67 0 -119 37 -119 97c0 44 24 77 58 105c-136 27 -207 131 -207 300v398h150v-406c0 -111 41 -171 137 -171c97 0 138 60 138 171v406z" />
    <glyph glyph-name="Uring" unicode="&#x16e;" horiz-adv-x="685" 
d="M212 793c0 67 58 121 131 121c72 0 130 -54 130 -121c0 -68 -58 -121 -130 -121c-73 0 -131 53 -131 121zM401 793c0 33 -26 58 -58 58c-33 0 -59 -25 -59 -58c0 -34 26 -59 59 -59c32 0 58 25 58 59zM55 700h150v-406c0 -111 41 -171 137 -171c97 0 138 60 138 171v406
h150v-398c0 -199 -99 -308 -288 -308c-188 0 -287 109 -287 308v398z" />
    <glyph glyph-name="Utilde" unicode="&#x168;" horiz-adv-x="685" 
d="M302 809c-21 0 -34 -18 -34 -39h-82v20c0 61 39 107 95 107c58 0 67 -43 104 -43c20 0 33 17 33 39h82v-21c0 -61 -40 -107 -95 -107c-58 0 -70 44 -103 44zM55 700h150v-406c0 -111 41 -171 137 -171c97 0 138 60 138 171v406h150v-398c0 -199 -99 -308 -288 -308
c-188 0 -287 109 -287 308v398z" />
    <glyph glyph-name="V" unicode="V" horiz-adv-x="654" 
d="M0 700h159l168 -518l172 518h155l-237 -700h-179z" />
    <glyph glyph-name="W" unicode="W" horiz-adv-x="991" 
d="M9 700l155 1l129 -512l137 511h135l133 -511l132 511h152l-194 -700h-173l-121 465l-118 -465h-173z" />
    <glyph glyph-name="Wacute" unicode="&#x1e82;" horiz-adv-x="991" 
d="M444 755l73 141h161l-131 -141h-103zM9 700l155 1l129 -512l137 511h135l133 -511l132 511h152l-194 -700h-173l-121 465l-118 -465h-173z" />
    <glyph glyph-name="Wcircumflex" unicode="&#x174;" horiz-adv-x="991" 
d="M493 813l-62 -59h-129l128 142h126l128 -142h-130zM9 700l155 1l129 -512l137 511h135l133 -511l132 511h152l-194 -700h-173l-121 465l-118 -465h-173z" />
    <glyph glyph-name="Wdieresis" unicode="&#x1e84;" horiz-adv-x="991" 
d="M312 835c0 42 33 73 76 73s75 -31 75 -73c0 -41 -32 -73 -75 -73s-76 32 -76 73zM523 835c0 42 33 73 75 73c43 0 76 -31 76 -73c0 -41 -33 -73 -76 -73c-42 0 -75 32 -75 73zM9 700l155 1l129 -512l137 511h135l133 -511l132 511h152l-194 -700h-173l-121 465l-118 -465
h-173z" />
    <glyph glyph-name="Wgrave" unicode="&#x1e80;" horiz-adv-x="991" 
d="M312 896h161l70 -144h-106zM9 700l155 1l129 -512l137 511h135l133 -511l132 511h152l-194 -700h-173l-121 465l-118 -465h-173z" />
    <glyph glyph-name="X" unicode="X" horiz-adv-x="677" 
d="M244 357l-218 343h182l138 -220l141 220h164l-218 -343l229 -357h-183l-149 235l-152 -235h-163z" />
    <glyph glyph-name="Y" unicode="Y" horiz-adv-x="664" 
d="M0 700h175l157 -287l165 287h167l-257 -440v-260h-150v260z" />
    <glyph glyph-name="Yacute" unicode="&#xdd;" horiz-adv-x="664" 
d="M287 755l73 141h161l-131 -141h-103zM0 700h175l157 -287l165 287h167l-257 -440v-260h-150v260z" />
    <glyph glyph-name="Ycircumflex" unicode="&#x176;" horiz-adv-x="664" 
d="M336 813l-62 -59h-129l128 142h126l128 -142h-130zM0 700h175l157 -287l165 287h167l-257 -440v-260h-150v260z" />
    <glyph glyph-name="Ydieresis" unicode="&#x178;" horiz-adv-x="664" 
d="M155 835c0 42 33 73 76 73s75 -31 75 -73c0 -41 -32 -73 -75 -73s-76 32 -76 73zM366 835c0 42 33 73 75 73c43 0 76 -31 76 -73c0 -41 -33 -73 -76 -73c-42 0 -75 32 -75 73zM0 700h175l157 -287l165 287h167l-257 -440v-260h-150v260z" />
    <glyph glyph-name="Ygrave" unicode="&#x1ef2;" horiz-adv-x="664" 
d="M155 896h161l70 -144h-106zM0 700h175l157 -287l165 287h167l-257 -440v-260h-150v260z" />
    <glyph glyph-name="Z" unicode="Z" horiz-adv-x="628" 
d="M36 700h556v-99l-359 -473h368v-128h-574v99l359 473h-350v128z" />
    <glyph glyph-name="Zacute" unicode="&#x179;" horiz-adv-x="628" 
d="M267 755l73 141h161l-131 -141h-103zM36 700h556v-99l-359 -473h368v-128h-574v99l359 473h-350v128z" />
    <glyph glyph-name="Zcaron" unicode="&#x17d;" horiz-adv-x="628" 
d="M316 837l62 59h129l-128 -142h-126l-128 142h130zM36 700h556v-99l-359 -473h368v-128h-574v99l359 473h-350v128z" />
    <glyph glyph-name="Zdotaccent" unicode="&#x17b;" horiz-adv-x="628" 
d="M316 765c-46 0 -82 34 -82 79c0 46 36 80 82 80s82 -34 82 -80c0 -45 -36 -79 -82 -79zM36 700h556v-99l-359 -473h368v-128h-574v99l359 473h-350v128z" />
    <glyph glyph-name="a" unicode="a" horiz-adv-x="561" 
d="M539 119h16v-119h-72c-73 0 -96 35 -95 84c-36 -57 -88 -90 -168 -90c-111 0 -191 53 -191 151c0 109 82 171 236 171h102v25c0 46 -37 76 -96 76c-52 0 -88 -25 -94 -63h-136c10 107 100 166 237 166c144 0 228 -64 228 -187v-181c0 -26 12 -33 33 -33zM367 212v10h-103
c-58 0 -93 -24 -93 -67c0 -36 29 -59 76 -59c74 0 119 46 120 116z" />
    <glyph glyph-name="a.ss01" horiz-adv-x="612" 
d="M439 514h124v-514h-125l-12 72c-34 -43 -85 -77 -158 -77c-138 -1 -239 100 -239 263c0 159 101 263 238 263c73 0 125 -31 158 -75zM299 109c77 0 125 60 125 147c0 88 -48 149 -125 149s-126 -61 -126 -149c0 -87 49 -147 126 -147z" />
    <glyph glyph-name="a.ss02" horiz-adv-x="546" 
d="M278 520c144 0 228 -64 228 -186v-334h-124l-11 65c-37 -44 -84 -71 -156 -71c-112 0 -186 54 -186 152c0 109 82 170 237 170h101v26c0 46 -36 75 -94 75c-53 0 -90 -25 -96 -63h-136c10 107 100 166 237 166zM247 96c74 0 119 46 120 116v10h-103
c-58 0 -93 -24 -93 -67c0 -36 29 -59 76 -59z" />
    <glyph glyph-name="aacute" unicode="&#xe1;" horiz-adv-x="561" 
d="M462 710l-131 -141h-103l73 141h161zM539 119h16v-119h-72c-73 0 -96 35 -95 84c-36 -57 -88 -90 -168 -90c-111 0 -191 53 -191 151c0 109 82 171 236 171h102v25c0 46 -37 76 -96 76c-52 0 -88 -25 -94 -63h-136c10 107 100 166 237 166c144 0 228 -64 228 -187v-181
c0 -26 12 -33 33 -33zM367 212v10h-103c-58 0 -93 -24 -93 -67c0 -36 29 -59 76 -59c74 0 119 46 120 116z" />
    <glyph glyph-name="aacute.ss01" horiz-adv-x="612" 
d="M488 710l-131 -141h-103l73 141h161zM439 514h124v-514h-125l-12 72c-34 -43 -85 -77 -158 -77c-138 -1 -239 100 -239 263c0 159 101 263 238 263c73 0 125 -31 158 -75zM299 109c77 0 125 60 125 147c0 88 -48 149 -125 149s-126 -61 -126 -149c0 -87 49 -147 126 -147
z" />
    <glyph glyph-name="aacute.ss02" horiz-adv-x="546" 
d="M462 710l-131 -141h-103l73 141h161zM278 520c144 0 228 -64 228 -186v-334h-124l-11 65c-37 -44 -84 -71 -156 -71c-112 0 -186 54 -186 152c0 109 82 170 237 170h101v26c0 46 -36 75 -94 75c-53 0 -90 -25 -96 -63h-136c10 107 100 166 237 166zM247 96
c74 0 119 46 120 116v10h-103c-58 0 -93 -24 -93 -67c0 -36 29 -59 76 -59z" />
    <glyph glyph-name="abreve" unicode="&#x103;" horiz-adv-x="561" 
d="M274 563c-89 0 -149 59 -153 147h101c0 -34 21 -56 55 -56c32 0 55 22 55 56h101c-4 -88 -67 -147 -159 -147zM539 119h16v-119h-72c-73 0 -96 35 -95 84c-36 -57 -88 -90 -168 -90c-111 0 -191 53 -191 151c0 109 82 171 236 171h102v25c0 46 -37 76 -96 76
c-52 0 -88 -25 -94 -63h-136c10 107 100 166 237 166c144 0 228 -64 228 -187v-181c0 -26 12 -33 33 -33zM367 212v10h-103c-58 0 -93 -24 -93 -67c0 -36 29 -59 76 -59c74 0 119 46 120 116z" />
    <glyph glyph-name="abreve.ss01" horiz-adv-x="612" 
d="M300 563c-89 0 -149 59 -153 147h101c0 -34 21 -56 55 -56c32 0 55 22 55 56h101c-4 -88 -67 -147 -159 -147zM439 514h124v-514h-125l-12 72c-34 -43 -85 -77 -158 -77c-138 -1 -239 100 -239 263c0 159 101 263 238 263c73 0 125 -31 158 -75zM299 109
c77 0 125 60 125 147c0 88 -48 149 -125 149s-126 -61 -126 -149c0 -87 49 -147 126 -147z" />
    <glyph glyph-name="abreve.ss02" horiz-adv-x="546" 
d="M274 563c-89 0 -149 59 -153 147h101c0 -34 21 -56 55 -56c32 0 55 22 55 56h101c-4 -88 -67 -147 -159 -147zM278 520c144 0 228 -64 228 -186v-334h-124l-11 65c-37 -44 -84 -71 -156 -71c-112 0 -186 54 -186 152c0 109 82 170 237 170h101v26c0 46 -36 75 -94 75
c-53 0 -90 -25 -96 -63h-136c10 107 100 166 237 166zM247 96c74 0 119 46 120 116v10h-103c-58 0 -93 -24 -93 -67c0 -36 29 -59 76 -59z" />
    <glyph glyph-name="acircumflex" unicode="&#xe2;" horiz-adv-x="561" 
d="M277 627l-62 -59h-129l128 142h126l128 -142h-130zM539 119h16v-119h-72c-73 0 -96 35 -95 84c-36 -57 -88 -90 -168 -90c-111 0 -191 53 -191 151c0 109 82 171 236 171h102v25c0 46 -37 76 -96 76c-52 0 -88 -25 -94 -63h-136c10 107 100 166 237 166
c144 0 228 -64 228 -187v-181c0 -26 12 -33 33 -33zM367 212v10h-103c-58 0 -93 -24 -93 -67c0 -36 29 -59 76 -59c74 0 119 46 120 116z" />
    <glyph glyph-name="acircumflex.ss01" horiz-adv-x="612" 
d="M303 627l-62 -59h-129l128 142h126l128 -142h-130zM439 514h124v-514h-125l-12 72c-34 -43 -85 -77 -158 -77c-138 -1 -239 100 -239 263c0 159 101 263 238 263c73 0 125 -31 158 -75zM299 109c77 0 125 60 125 147c0 88 -48 149 -125 149s-126 -61 -126 -149
c0 -87 49 -147 126 -147z" />
    <glyph glyph-name="acircumflex.ss02" horiz-adv-x="546" 
d="M277 627l-62 -59h-129l128 142h126l128 -142h-130zM278 520c144 0 228 -64 228 -186v-334h-124l-11 65c-37 -44 -84 -71 -156 -71c-112 0 -186 54 -186 152c0 109 82 170 237 170h101v26c0 46 -36 75 -94 75c-53 0 -90 -25 -96 -63h-136c10 107 100 166 237 166zM247 96
c74 0 119 46 120 116v10h-103c-58 0 -93 -24 -93 -67c0 -36 29 -59 76 -59z" />
    <glyph glyph-name="adieresis" unicode="&#xe4;" horiz-adv-x="561" 
d="M172 576c-43 0 -76 32 -76 73c0 42 33 73 76 73s75 -31 75 -73c0 -41 -32 -73 -75 -73zM382 576c-42 0 -75 32 -75 73c0 42 33 73 75 73c43 0 76 -31 76 -73c0 -41 -33 -73 -76 -73zM539 119h16v-119h-72c-73 0 -96 35 -95 84c-36 -57 -88 -90 -168 -90
c-111 0 -191 53 -191 151c0 109 82 171 236 171h102v25c0 46 -37 76 -96 76c-52 0 -88 -25 -94 -63h-136c10 107 100 166 237 166c144 0 228 -64 228 -187v-181c0 -26 12 -33 33 -33zM367 212v10h-103c-58 0 -93 -24 -93 -67c0 -36 29 -59 76 -59c74 0 119 46 120 116z" />
    <glyph glyph-name="adieresis.ss01" horiz-adv-x="612" 
d="M198 576c-43 0 -76 32 -76 73c0 42 33 73 76 73s75 -31 75 -73c0 -41 -32 -73 -75 -73zM408 576c-42 0 -75 32 -75 73c0 42 33 73 75 73c43 0 76 -31 76 -73c0 -41 -33 -73 -76 -73zM439 514h124v-514h-125l-12 72c-34 -43 -85 -77 -158 -77c-138 -1 -239 100 -239 263
c0 159 101 263 238 263c73 0 125 -31 158 -75zM299 109c77 0 125 60 125 147c0 88 -48 149 -125 149s-126 -61 -126 -149c0 -87 49 -147 126 -147z" />
    <glyph glyph-name="adieresis.ss02" horiz-adv-x="546" 
d="M172 576c-43 0 -76 32 -76 73c0 42 33 73 76 73s75 -31 75 -73c0 -41 -32 -73 -75 -73zM382 576c-42 0 -75 32 -75 73c0 42 33 73 75 73c43 0 76 -31 76 -73c0 -41 -33 -73 -76 -73zM278 520c144 0 228 -64 228 -186v-334h-124l-11 65c-37 -44 -84 -71 -156 -71
c-112 0 -186 54 -186 152c0 109 82 170 237 170h101v26c0 46 -36 75 -94 75c-53 0 -90 -25 -96 -63h-136c10 107 100 166 237 166zM247 96c74 0 119 46 120 116v10h-103c-58 0 -93 -24 -93 -67c0 -36 29 -59 76 -59z" />
    <glyph glyph-name="agrave" unicode="&#xe0;" horiz-adv-x="561" 
d="M327 566h-106l-125 144h161zM539 119h16v-119h-72c-73 0 -96 35 -95 84c-36 -57 -88 -90 -168 -90c-111 0 -191 53 -191 151c0 109 82 171 236 171h102v25c0 46 -37 76 -96 76c-52 0 -88 -25 -94 -63h-136c10 107 100 166 237 166c144 0 228 -64 228 -187v-181
c0 -26 12 -33 33 -33zM367 212v10h-103c-58 0 -93 -24 -93 -67c0 -36 29 -59 76 -59c74 0 119 46 120 116z" />
    <glyph glyph-name="agrave.ss01" horiz-adv-x="612" 
d="M353 566h-106l-125 144h161zM439 514h124v-514h-125l-12 72c-34 -43 -85 -77 -158 -77c-138 -1 -239 100 -239 263c0 159 101 263 238 263c73 0 125 -31 158 -75zM299 109c77 0 125 60 125 147c0 88 -48 149 -125 149s-126 -61 -126 -149c0 -87 49 -147 126 -147z" />
    <glyph glyph-name="agrave.ss02" horiz-adv-x="546" 
d="M327 566h-106l-125 144h161zM278 520c144 0 228 -64 228 -186v-334h-124l-11 65c-37 -44 -84 -71 -156 -71c-112 0 -186 54 -186 152c0 109 82 170 237 170h101v26c0 46 -36 75 -94 75c-53 0 -90 -25 -96 -63h-136c10 107 100 166 237 166zM247 96c74 0 119 46 120 116
v10h-103c-58 0 -93 -24 -93 -67c0 -36 29 -59 76 -59z" />
    <glyph glyph-name="amacron" unicode="&#x101;" horiz-adv-x="561" 
d="M433 699v-100h-311v100h311zM539 119h16v-119h-72c-73 0 -96 35 -95 84c-36 -57 -88 -90 -168 -90c-111 0 -191 53 -191 151c0 109 82 171 236 171h102v25c0 46 -37 76 -96 76c-52 0 -88 -25 -94 -63h-136c10 107 100 166 237 166c144 0 228 -64 228 -187v-181
c0 -26 12 -33 33 -33zM367 212v10h-103c-58 0 -93 -24 -93 -67c0 -36 29 -59 76 -59c74 0 119 46 120 116z" />
    <glyph glyph-name="amacron.ss01" horiz-adv-x="612" 
d="M459 699v-100h-311v100h311zM439 514h124v-514h-125l-12 72c-34 -43 -85 -77 -158 -77c-138 -1 -239 100 -239 263c0 159 101 263 238 263c73 0 125 -31 158 -75zM299 109c77 0 125 60 125 147c0 88 -48 149 -125 149s-126 -61 -126 -149c0 -87 49 -147 126 -147z" />
    <glyph glyph-name="amacron.ss02" horiz-adv-x="546" 
d="M433 699v-100h-311v100h311zM278 520c144 0 228 -64 228 -186v-334h-124l-11 65c-37 -44 -84 -71 -156 -71c-112 0 -186 54 -186 152c0 109 82 170 237 170h101v26c0 46 -36 75 -94 75c-53 0 -90 -25 -96 -63h-136c10 107 100 166 237 166zM247 96c74 0 119 46 120 116
v10h-103c-58 0 -93 -24 -93 -67c0 -36 29 -59 76 -59z" />
    <glyph glyph-name="aogonek" unicode="&#x105;" horiz-adv-x="561" 
d="M493 -106h64v-94h-90c-67 0 -119 37 -119 97c0 50 31 86 73 116c-25 15 -34 40 -33 71c-36 -57 -88 -90 -168 -90c-111 0 -191 53 -191 151c0 109 82 171 236 171h102v25c0 46 -37 76 -96 76c-52 0 -88 -25 -94 -63h-136c10 107 100 166 237 166c144 0 228 -64 228 -187
v-181c0 -26 12 -33 33 -33h16v-119c-60 -27 -95 -52 -95 -80c0 -17 12 -26 33 -26zM367 212v10h-103c-58 0 -93 -24 -93 -67c0 -36 29 -59 76 -59c74 0 119 46 120 116z" />
    <glyph glyph-name="aogonek.ss01" horiz-adv-x="612" 
d="M502 -106h64v-94h-90c-67 0 -119 37 -119 97c0 52 34 89 78 120l-9 55c-34 -43 -85 -77 -158 -77c-138 -1 -239 100 -239 263c0 159 101 263 238 263c73 0 125 -31 158 -75l14 68h124v-514h1c-60 -27 -95 -52 -95 -80c0 -17 12 -26 33 -26zM299 109c77 0 125 60 125 147
c0 88 -48 149 -125 149s-126 -61 -126 -149c0 -87 49 -147 126 -147z" />
    <glyph glyph-name="aogonek.ss02" horiz-adv-x="546" 
d="M444 -106h64v-94h-90c-67 0 -119 37 -119 97c0 53 35 90 80 121l-8 47c-37 -44 -84 -71 -156 -71c-112 0 -186 54 -186 152c0 109 82 170 237 170h101v26c0 46 -36 75 -94 75c-53 0 -90 -25 -96 -63h-136c10 107 100 166 237 166c144 0 228 -64 228 -186v-334
c-60 -27 -95 -52 -95 -80c0 -17 12 -26 33 -26zM247 96c74 0 119 46 120 116v10h-103c-58 0 -93 -24 -93 -67c0 -36 29 -59 76 -59z" />
    <glyph glyph-name="aring" unicode="&#xe5;" horiz-adv-x="561" 
d="M277 553c-73 0 -130 53 -130 121c0 67 57 121 130 121s130 -54 130 -121c0 -68 -57 -121 -130 -121zM277 732c-33 0 -58 -25 -58 -58c0 -34 25 -59 58 -59s58 25 58 59c0 33 -25 58 -58 58zM539 119h16v-119h-72c-73 0 -96 35 -95 84c-36 -57 -88 -90 -168 -90
c-111 0 -191 53 -191 151c0 109 82 171 236 171h102v25c0 46 -37 76 -96 76c-52 0 -88 -25 -94 -63h-136c10 107 100 166 237 166c144 0 228 -64 228 -187v-181c0 -26 12 -33 33 -33zM367 212v10h-103c-58 0 -93 -24 -93 -67c0 -36 29 -59 76 -59c74 0 119 46 120 116z" />
    <glyph glyph-name="aring.ss01" horiz-adv-x="612" 
d="M303 553c-73 0 -130 53 -130 121c0 67 57 121 130 121s130 -54 130 -121c0 -68 -57 -121 -130 -121zM303 732c-33 0 -58 -25 -58 -58c0 -34 25 -59 58 -59s58 25 58 59c0 33 -25 58 -58 58zM439 514h124v-514h-125l-12 72c-34 -43 -85 -77 -158 -77
c-138 -1 -239 100 -239 263c0 159 101 263 238 263c73 0 125 -31 158 -75zM299 109c77 0 125 60 125 147c0 88 -48 149 -125 149s-126 -61 -126 -149c0 -87 49 -147 126 -147z" />
    <glyph glyph-name="aring.ss02" horiz-adv-x="546" 
d="M277 553c-73 0 -130 53 -130 121c0 67 57 121 130 121s130 -54 130 -121c0 -68 -57 -121 -130 -121zM277 732c-33 0 -58 -25 -58 -58c0 -34 25 -59 58 -59s58 25 58 59c0 33 -25 58 -58 58zM278 520c144 0 228 -64 228 -186v-334h-124l-11 65c-37 -44 -84 -71 -156 -71
c-112 0 -186 54 -186 152c0 109 82 170 237 170h101v26c0 46 -36 75 -94 75c-53 0 -90 -25 -96 -63h-136c10 107 100 166 237 166zM247 96c74 0 119 46 120 116v10h-103c-58 0 -93 -24 -93 -67c0 -36 29 -59 76 -59z" />
    <glyph glyph-name="atilde" unicode="&#xe3;" horiz-adv-x="561" 
d="M236 623c-21 0 -34 -18 -34 -39h-82v20c0 61 39 107 95 107c58 0 67 -43 104 -43c20 0 33 17 33 39h82v-21c0 -61 -40 -107 -95 -107c-58 0 -70 44 -103 44zM539 119h16v-119h-72c-73 0 -96 35 -95 84c-36 -57 -88 -90 -168 -90c-111 0 -191 53 -191 151
c0 109 82 171 236 171h102v25c0 46 -37 76 -96 76c-52 0 -88 -25 -94 -63h-136c10 107 100 166 237 166c144 0 228 -64 228 -187v-181c0 -26 12 -33 33 -33zM367 212v10h-103c-58 0 -93 -24 -93 -67c0 -36 29 -59 76 -59c74 0 119 46 120 116z" />
    <glyph glyph-name="atilde.ss01" horiz-adv-x="612" 
d="M262 623c-21 0 -34 -18 -34 -39h-82v20c0 61 39 107 95 107c58 0 67 -43 104 -43c20 0 33 17 33 39h82v-21c0 -61 -40 -107 -95 -107c-58 0 -70 44 -103 44zM439 514h124v-514h-125l-12 72c-34 -43 -85 -77 -158 -77c-138 -1 -239 100 -239 263c0 159 101 263 238 263
c73 0 125 -31 158 -75zM299 109c77 0 125 60 125 147c0 88 -48 149 -125 149s-126 -61 -126 -149c0 -87 49 -147 126 -147z" />
    <glyph glyph-name="atilde.ss02" horiz-adv-x="546" 
d="M236 623c-21 0 -34 -18 -34 -39h-82v20c0 61 39 107 95 107c58 0 67 -43 104 -43c20 0 33 17 33 39h82v-21c0 -61 -40 -107 -95 -107c-58 0 -70 44 -103 44zM278 520c144 0 228 -64 228 -186v-334h-124l-11 65c-37 -44 -84 -71 -156 -71c-112 0 -186 54 -186 152
c0 109 82 170 237 170h101v26c0 46 -36 75 -94 75c-53 0 -90 -25 -96 -63h-136c10 107 100 166 237 166zM247 96c74 0 119 46 120 116v10h-103c-58 0 -93 -24 -93 -67c0 -36 29 -59 76 -59z" />
    <glyph glyph-name="ae" unicode="&#xe6;" horiz-adv-x="910" 
d="M877 225h-372v-4c6 -74 47 -120 121 -120c56 0 96 25 109 73h139c-16 -100 -103 -180 -238 -180c-94 0 -165 35 -207 95c-46 -62 -109 -95 -202 -95c-110 0 -198 53 -198 151c0 105 82 163 236 163h102v33c0 46 -37 76 -96 76c-52 0 -88 -25 -94 -63h-136
c10 107 100 166 237 166c75 0 143 -24 179 -70c41 45 98 70 165 70c153 0 258 -96 259 -247c0 -15 -1 -32 -4 -48zM623 415c-61 0 -107 -37 -115 -98h231c-9 63 -53 98 -116 98zM367 206v12h-97c-62 0 -99 -21 -99 -63c0 -36 29 -59 76 -59c74 0 120 44 120 110z" />
    <glyph glyph-name="aeacute" unicode="&#x1fd;" horiz-adv-x="910" 
d="M636 700l-131 -141h-104l74 141h161zM877 225h-372v-4c6 -74 47 -120 121 -120c56 0 96 25 109 73h139c-16 -100 -103 -180 -238 -180c-94 0 -165 35 -207 95c-46 -62 -109 -95 -202 -95c-110 0 -198 53 -198 151c0 105 82 163 236 163h102v33c0 46 -37 76 -96 76
c-52 0 -88 -25 -94 -63h-136c10 107 100 166 237 166c75 0 143 -24 179 -70c41 45 98 70 165 70c153 0 258 -96 259 -247c0 -15 -1 -32 -4 -48zM623 415c-61 0 -107 -37 -115 -98h232c-9 63 -54 98 -117 98zM367 206v12h-97c-62 0 -99 -21 -99 -63c0 -36 29 -59 76 -59
c74 0 120 44 120 110z" />
    <glyph glyph-name="b" unicode="b" horiz-adv-x="612" 
d="M345 520c138 0 238 -99 238 -262c0 -159 -100 -264 -239 -264c-74 0 -125 32 -158 76l-14 -70h-123v700h141v-251c34 41 84 71 155 71zM313 109c77 0 127 60 127 148s-50 148 -127 148s-125 -60 -125 -147c0 -88 48 -149 125 -149z" />
    <glyph glyph-name="c" unicode="c" horiz-adv-x="570" 
d="M543 195c-19 -124 -109 -201 -249 -201c-162 0 -265 105 -265 263c0 160 104 263 266 263c139 0 228 -76 248 -198h-146c-12 50 -49 83 -103 83c-74 0 -121 -60 -121 -148c0 -87 47 -148 121 -148c56 0 93 33 104 86h145z" />
    <glyph glyph-name="cacute" unicode="&#x107;" horiz-adv-x="570" 
d="M248 569l73 141h161l-131 -141h-103zM543 195c-19 -124 -109 -201 -249 -201c-162 0 -265 105 -265 263c0 160 104 263 266 263c139 0 228 -76 248 -198h-146c-12 50 -49 83 -103 83c-74 0 -121 -60 -121 -148c0 -87 47 -148 121 -148c56 0 93 33 104 86h145z" />
    <glyph glyph-name="ccaron" unicode="&#x10d;" horiz-adv-x="570" 
d="M297 651l62 59h129l-128 -142h-126l-128 142h130zM543 195c-19 -124 -109 -201 -249 -201c-162 0 -265 105 -265 263c0 160 104 263 266 263c139 0 228 -76 248 -198h-146c-12 50 -49 83 -103 83c-74 0 -121 -60 -121 -148c0 -87 47 -148 121 -148c56 0 93 33 104 86h145
z" />
    <glyph glyph-name="ccedilla" unicode="&#xe7;" horiz-adv-x="570" 
d="M294 109c56 0 93 33 104 86h145c-17 -113 -93 -187 -212 -199l-7 -26h17c55 0 91 -29 91 -77c0 -57 -43 -93 -109 -93h-119v69h92c17 0 29 7 29 25c0 14 -12 22 -29 22h-59l20 80c-141 15 -228 115 -228 261c0 160 104 263 266 263c139 0 228 -76 248 -198h-146
c-12 50 -49 83 -103 83c-74 0 -121 -60 -121 -148c0 -87 47 -148 121 -148z" />
    <glyph glyph-name="ccircumflex" unicode="&#x109;" horiz-adv-x="570" 
d="M297 627l-62 -59h-129l128 142h126l128 -142h-130zM543 195c-19 -124 -109 -201 -249 -201c-162 0 -265 105 -265 263c0 160 104 263 266 263c139 0 228 -76 248 -198h-146c-12 50 -49 83 -103 83c-74 0 -121 -60 -121 -148c0 -87 47 -148 121 -148c56 0 93 33 104 86
h145z" />
    <glyph glyph-name="cdotaccent" unicode="&#x10b;" horiz-adv-x="570" 
d="M297 579c-46 0 -82 34 -82 79c0 46 36 80 82 80s82 -34 82 -80c0 -45 -36 -79 -82 -79zM543 195c-19 -124 -109 -201 -249 -201c-162 0 -265 105 -265 263c0 160 104 263 266 263c139 0 228 -76 248 -198h-146c-12 50 -49 83 -103 83c-74 0 -121 -60 -121 -148
c0 -87 47 -148 121 -148c56 0 93 33 104 86h145z" />
    <glyph glyph-name="d" unicode="d" horiz-adv-x="612" 
d="M422 700h141v-700h-123l-14 71c-34 -44 -84 -77 -158 -77c-138 0 -239 101 -239 264c0 159 101 262 238 262c71 0 122 -28 155 -70v250zM299 109c77 0 125 60 125 147c0 88 -48 149 -125 149s-126 -60 -126 -148s49 -148 126 -148z" />
    <glyph glyph-name="eth" unicode="&#xf0;" horiz-adv-x="606" 
d="M407 592c93 -76 160 -181 160 -319c0 -153 -87 -279 -273 -279c-162 0 -265 101 -265 237c0 151 117 222 233 222c55 0 96 -13 148 -52c-22 50 -59 92 -107 130l-114 -67l-45 76l76 45c-29 17 -62 33 -96 49l80 72c42 -15 84 -35 124 -58l112 66l45 -76zM294 107
c78 0 128 52 128 127c0 74 -54 121 -128 121c-72 0 -121 -52 -121 -125s49 -123 121 -123z" />
    <glyph glyph-name="dcaron" unicode="&#x10f;" horiz-adv-x="679" 
d="M422 450v250h141v-700h-123l-14 71c-34 -44 -84 -77 -158 -77c-138 0 -239 101 -239 264c0 159 101 262 238 262c71 0 122 -28 155 -70zM632 700h132l-68 -148h-99zM299 109c77 0 125 60 125 147c0 88 -48 149 -125 149s-126 -60 -126 -148s49 -148 126 -148z" />
    <glyph glyph-name="dcroat" unicode="&#x111;" horiz-adv-x="622" 
d="M638 651v-103h-75v-548h-123l-14 71c-34 -44 -84 -77 -158 -77c-138 0 -239 101 -239 264c0 159 101 262 238 262c71 0 122 -28 155 -70v98h-137v103h137v49h141v-49h75zM299 109c77 0 125 60 125 147c0 88 -48 149 -125 149s-126 -60 -126 -148s49 -148 126 -148z" />
    <glyph glyph-name="e" unicode="e" horiz-adv-x="581" 
d="M29 256c0 161 104 264 259 264c157 0 263 -96 265 -247c0 -15 -1 -32 -4 -48h-373v-4c6 -74 48 -120 121 -120c57 0 97 25 109 73h139c-16 -100 -103 -180 -238 -180c-174 0 -278 103 -278 262zM179 317h232c-10 63 -53 98 -117 98c-61 0 -107 -37 -115 -98z" />
    <glyph glyph-name="eacute" unicode="&#xe9;" horiz-adv-x="581" 
d="M238 569l73 141h161l-131 -141h-103zM29 256c0 161 104 264 259 264c157 0 263 -96 265 -247c0 -15 -1 -32 -4 -48h-373v-4c6 -74 48 -120 121 -120c57 0 97 25 109 73h139c-16 -100 -103 -180 -238 -180c-174 0 -278 103 -278 262zM179 317h232c-10 63 -53 98 -117 98
c-61 0 -107 -37 -115 -98z" />
    <glyph glyph-name="ebreve" unicode="&#x115;" horiz-adv-x="581" 
d="M131 710h101c0 -34 21 -56 55 -56c32 0 55 22 55 56h101c-4 -88 -67 -147 -159 -147c-89 0 -149 59 -153 147zM29 256c0 161 104 264 259 264c157 0 263 -96 265 -247c0 -15 -1 -32 -4 -48h-373v-4c6 -74 48 -120 121 -120c57 0 97 25 109 73h139
c-16 -100 -103 -180 -238 -180c-174 0 -278 103 -278 262zM179 317h232c-10 63 -53 98 -117 98c-61 0 -107 -37 -115 -98z" />
    <glyph glyph-name="ecaron" unicode="&#x11b;" horiz-adv-x="581" 
d="M287 651l62 59h129l-128 -142h-126l-128 142h130zM29 256c0 161 104 264 259 264c157 0 263 -96 265 -247c0 -15 -1 -32 -4 -48h-373v-4c6 -74 48 -120 121 -120c57 0 97 25 109 73h139c-16 -100 -103 -180 -238 -180c-174 0 -278 103 -278 262zM179 317h232
c-10 63 -53 98 -117 98c-61 0 -107 -37 -115 -98z" />
    <glyph glyph-name="ecircumflex" unicode="&#xea;" horiz-adv-x="581" 
d="M287 627l-62 -59h-129l128 142h126l128 -142h-130zM29 256c0 161 104 264 259 264c157 0 263 -96 265 -247c0 -15 -1 -32 -4 -48h-373v-4c6 -74 48 -120 121 -120c57 0 97 25 109 73h139c-16 -100 -103 -180 -238 -180c-174 0 -278 103 -278 262zM179 317h232
c-10 63 -53 98 -117 98c-61 0 -107 -37 -115 -98z" />
    <glyph glyph-name="edieresis" unicode="&#xeb;" horiz-adv-x="581" 
d="M106 649c0 42 33 73 76 73s75 -31 75 -73c0 -41 -32 -73 -75 -73s-76 32 -76 73zM317 649c0 42 33 73 75 73c43 0 76 -31 76 -73c0 -41 -33 -73 -76 -73c-42 0 -75 32 -75 73zM29 256c0 161 104 264 259 264c157 0 263 -96 265 -247c0 -15 -1 -32 -4 -48h-373v-4
c6 -74 48 -120 121 -120c57 0 97 25 109 73h139c-16 -100 -103 -180 -238 -180c-174 0 -278 103 -278 262zM179 317h232c-10 63 -53 98 -117 98c-61 0 -107 -37 -115 -98z" />
    <glyph glyph-name="edotaccent" unicode="&#x117;" horiz-adv-x="581" 
d="M287 579c-46 0 -82 34 -82 79c0 46 36 80 82 80s82 -34 82 -80c0 -45 -36 -79 -82 -79zM29 256c0 161 104 264 259 264c157 0 263 -96 265 -247c0 -15 -1 -32 -4 -48h-373v-4c6 -74 48 -120 121 -120c57 0 97 25 109 73h139c-16 -100 -103 -180 -238 -180
c-174 0 -278 103 -278 262zM179 317h232c-10 63 -53 98 -117 98c-61 0 -107 -37 -115 -98z" />
    <glyph glyph-name="egrave" unicode="&#xe8;" horiz-adv-x="581" 
d="M106 710h161l70 -144h-106zM29 256c0 161 104 264 259 264c157 0 263 -96 265 -247c0 -15 -1 -32 -4 -48h-373v-4c6 -74 48 -120 121 -120c57 0 97 25 109 73h139c-16 -100 -103 -180 -238 -180c-174 0 -278 103 -278 262zM179 317h232c-10 63 -53 98 -117 98
c-61 0 -107 -37 -115 -98z" />
    <glyph glyph-name="emacron" unicode="&#x113;" horiz-adv-x="581" 
d="M132 599v100h311v-100h-311zM29 256c0 161 104 264 259 264c157 0 263 -96 265 -247c0 -15 -1 -32 -4 -48h-373v-4c6 -74 48 -120 121 -120c57 0 97 25 109 73h139c-16 -100 -103 -180 -238 -180c-174 0 -278 103 -278 262zM179 317h232c-10 63 -53 98 -117 98
c-61 0 -107 -37 -115 -98z" />
    <glyph glyph-name="eogonek" unicode="&#x119;" horiz-adv-x="581" 
d="M549 225h-373v-4c6 -74 48 -120 121 -120c57 0 97 25 109 73h139c-13 -84 -77 -154 -176 -174c-60 -27 -95 -52 -95 -80c0 -17 12 -26 33 -26h64v-94h-90c-67 0 -119 37 -119 97c0 45 25 78 60 106c-122 29 -193 122 -193 253c0 161 104 264 259 264
c157 0 263 -96 265 -247c0 -15 -1 -32 -4 -48zM294 415c-61 0 -107 -37 -115 -98h232c-10 63 -53 98 -117 98z" />
    <glyph glyph-name="f" unicode="f" horiz-adv-x="355" 
d="M-3 514h85v45c0 89 51 141 155 141h115v-120h-87c-29 0 -42 -13 -42 -42v-24h129v-119h-129v-395h-141v395h-85v119z" />
    <glyph glyph-name="f.ss05" horiz-adv-x="320" 
d="M49 559c0 89 51 141 155 141h115v-120h-87c-28 0 -42 -13 -42 -42v-24h129v-119h-129v-395h-141v559z" />
    <glyph glyph-name="g" unicode="g" horiz-adv-x="612" 
d="M439 514h124v-499c0 -127 -78 -221 -275 -221c-143 0 -241 65 -248 184h142c13 -49 52 -77 117 -77c79 0 126 39 126 119v54c-34 -43 -85 -71 -157 -71c-138 -1 -239 100 -239 259c0 157 101 259 238 259c74 0 126 -33 160 -78zM299 116c77 0 125 59 125 144
c0 86 -48 147 -125 147s-126 -60 -126 -146s49 -145 126 -145z" />
    <glyph glyph-name="gbreve" unicode="&#x11f;" horiz-adv-x="612" 
d="M294 563c-89 0 -149 59 -153 147h101c0 -34 21 -56 55 -56c32 0 55 22 55 56h101c-4 -88 -67 -147 -159 -147zM439 514h124v-499c0 -127 -78 -221 -275 -221c-143 0 -241 65 -248 184h142c13 -49 52 -77 117 -77c79 0 126 39 126 119v54c-34 -43 -85 -71 -157 -71
c-138 -1 -239 100 -239 259c0 157 101 259 238 259c74 0 126 -33 160 -78zM299 116c77 0 125 59 125 144c0 86 -48 147 -125 147s-126 -60 -126 -146s49 -145 126 -145z" />
    <glyph glyph-name="gcircumflex" unicode="&#x11d;" horiz-adv-x="612" 
d="M297 627l-62 -59h-129l128 142h126l128 -142h-130zM439 514h124v-499c0 -127 -78 -221 -275 -221c-143 0 -241 65 -248 184h142c13 -49 52 -77 117 -77c79 0 126 39 126 119v54c-34 -43 -85 -71 -157 -71c-138 -1 -239 100 -239 259c0 157 101 259 238 259
c74 0 126 -33 160 -78zM299 116c77 0 125 59 125 144c0 86 -48 147 -125 147s-126 -60 -126 -146s49 -145 126 -145z" />
    <glyph glyph-name="uni0123" unicode="&#x123;" horiz-adv-x="612" 
d="M411 710l-53 -146h-137l83 146h107zM439 514h124v-499c0 -127 -78 -221 -275 -221c-143 0 -241 65 -248 184h142c13 -49 52 -77 117 -77c79 0 126 39 126 119v54c-34 -43 -85 -71 -157 -71c-138 -1 -239 100 -239 259c0 157 101 259 238 259c74 0 126 -33 160 -78z
M299 116c77 0 125 59 125 144c0 86 -48 147 -125 147s-126 -60 -126 -146s49 -145 126 -145z" />
    <glyph glyph-name="gdotaccent" unicode="&#x121;" horiz-adv-x="612" 
d="M297 579c-46 0 -82 34 -82 79c0 46 36 80 82 80s82 -34 82 -80c0 -45 -36 -79 -82 -79zM439 514h124v-499c0 -127 -78 -221 -275 -221c-143 0 -241 65 -248 184h142c13 -49 52 -77 117 -77c79 0 126 39 126 119v54c-34 -43 -85 -71 -157 -71c-138 -1 -239 100 -239 259
c0 157 101 259 238 259c74 0 126 -33 160 -78zM299 116c77 0 125 59 125 144c0 86 -48 147 -125 147s-126 -60 -126 -146s49 -145 126 -145z" />
    <glyph glyph-name="h" unicode="h" horiz-adv-x="590" 
d="M342 520c107 0 208 -55 208 -241v-279h-141v273c0 84 -34 131 -104 131c-72 0 -115 -52 -115 -140v-264h-141v700h141v-249c33 40 79 69 152 69z" />
    <glyph glyph-name="hbar" unicode="&#x127;" 
d="M352 520c106 0 208 -55 208 -241v-279h-141v273c0 84 -34 131 -104 131c-73 0 -115 -52 -115 -140v-264h-141v548h-75v103h75v49h141v-49h137v-103h-137v-97c33 40 79 69 152 69z" />
    <glyph glyph-name="hcircumflex" unicode="&#x125;" horiz-adv-x="590" 
d="M119 806l-62 -59h-129l128 142h126l128 -142h-130zM342 520c107 0 208 -55 208 -241v-279h-141v273c0 84 -34 131 -104 131c-72 0 -115 -52 -115 -140v-264h-141v700h141v-249c33 40 79 69 152 69z" />
    <glyph glyph-name="i" unicode="i" horiz-adv-x="239" 
d="M120 728c46 0 81 -34 81 -80c0 -45 -35 -79 -81 -79c-47 0 -82 34 -82 79c0 46 35 80 82 80zM49 514h141v-514h-141v514z" />
    <glyph glyph-name="i.ss03" horiz-adv-x="277" 
d="M158 728c46 0 82 -34 82 -80c0 -45 -36 -79 -82 -79s-81 34 -81 79c0 46 35 80 81 80zM87 395h-83v119h225v-514h-142v395z" />
    <glyph glyph-name="dotlessi" unicode="&#x131;" horiz-adv-x="239" 
d="M49 514h142v-514h-142v514z" />
    <glyph glyph-name="dotlessi.ss03" horiz-adv-x="278" 
d="M4 514h225v-514h-142v395h-83v119z" />
    <glyph glyph-name="iacute" unicode="&#xed;" horiz-adv-x="239" 
d="M71 569l73 141h161l-131 -141h-103zM49 514h142v-514h-142v514z" />
    <glyph glyph-name="iacute.ss03" horiz-adv-x="278" 
d="M103 568l73 141h161l-131 -141h-103zM4 514h225v-514h-142v395h-83v119z" />
    <glyph glyph-name="ibreve" unicode="&#x12d;" horiz-adv-x="239" 
d="M-36 710h101c0 -34 21 -56 55 -56c32 0 55 22 55 56h101c-4 -88 -67 -147 -159 -147c-89 0 -149 59 -153 147zM49 514h142v-514h-142v514z" />
    <glyph glyph-name="ibreve.ss03" horiz-adv-x="278" 
d="M-4 709h101c0 -34 21 -56 55 -56c32 0 55 22 55 56h101c-4 -88 -67 -147 -159 -147c-89 0 -149 59 -153 147zM4 514h225v-514h-142v395h-83v119z" />
    <glyph glyph-name="icircumflex" unicode="&#xee;" horiz-adv-x="239" 
d="M120 627l-62 -59h-129l128 142h126l128 -142h-130zM49 514h142v-514h-142v514z" />
    <glyph glyph-name="icircumflex.ss03" horiz-adv-x="278" 
d="M152 626l-62 -59h-129l128 142h126l128 -142h-130zM4 514h225v-514h-142v395h-83v119z" />
    <glyph glyph-name="idieresis" unicode="&#xef;" horiz-adv-x="239" 
d="M-61 649c0 42 33 73 76 73s75 -31 75 -73c0 -41 -32 -73 -75 -73s-76 32 -76 73zM150 649c0 42 33 73 75 73c43 0 76 -31 76 -73c0 -41 -33 -73 -76 -73c-42 0 -75 32 -75 73zM49 514h142v-514h-142v514z" />
    <glyph glyph-name="idieresis.ss03" horiz-adv-x="278" 
d="M-29 648c0 42 33 73 76 73s75 -31 75 -73c0 -41 -32 -73 -75 -73s-76 32 -76 73zM182 648c0 42 33 73 75 73c43 0 76 -31 76 -73c0 -41 -33 -73 -76 -73c-42 0 -75 32 -75 73zM4 514h225v-514h-142v395h-83v119z" />
    <glyph glyph-name="i.loclTRK" horiz-adv-x="239" 
d="M120 579c-46 0 -82 34 -82 79c0 46 36 80 82 80s82 -34 82 -80c0 -45 -36 -79 -82 -79zM49 514h142v-514h-142v514z" />
    <glyph glyph-name="i.loclTRK.ss03" horiz-adv-x="278" 
d="M152 578c-46 0 -82 34 -82 79c0 46 36 80 82 80s82 -34 82 -80c0 -45 -36 -79 -82 -79zM4 514h225v-514h-142v395h-83v119z" />
    <glyph glyph-name="igrave" unicode="&#xec;" horiz-adv-x="239" 
d="M-61 710h161l70 -144h-106zM49 514h142v-514h-142v514z" />
    <glyph glyph-name="igrave.ss03" horiz-adv-x="278" 
d="M-29 709h161l70 -144h-106zM4 514h225v-514h-142v395h-83v119z" />
    <glyph glyph-name="ij" unicode="&#x133;" horiz-adv-x="482" 
d="M120 728c46 0 81 -34 81 -80c0 -45 -35 -79 -81 -79c-47 0 -82 34 -82 79c0 46 35 80 82 80zM363 728c47 0 82 -34 82 -80c0 -45 -35 -79 -82 -79c-46 0 -81 34 -81 79c0 46 35 80 81 80zM49 514h141v-514h-141v514zM193 -81h49c35 0 51 17 51 57v538h141v-558
c0 -95 -50 -156 -148 -156h-93v119z" />
    <glyph glyph-name="ij.ss03" horiz-adv-x="522" 
d="M120 728c46 0 81 -34 81 -80c0 -45 -35 -79 -81 -79c-47 0 -82 34 -82 79c0 46 35 80 82 80zM321 648c0 46 35 79 82 79c46 0 81 -33 81 -79s-35 -80 -81 -80c-47 0 -82 34 -82 80zM49 514h141v-514h-141v514zM219 -81h56c37 0 56 17 56 56v420h-83v119h225v-558
c0 -95 -53 -156 -156 -156h-98v119z" />
    <glyph glyph-name="ij.ss04" horiz-adv-x="478" 
d="M120 728c46 0 81 -34 81 -80c0 -45 -35 -79 -81 -79c-47 0 -82 34 -82 79c0 46 35 80 82 80zM359 569c-47 0 -82 34 -82 79c0 46 35 80 82 80c46 0 81 -34 81 -80c0 -45 -35 -79 -81 -79zM49 514h141v-514h-141v514zM288 -200v714h142v-714h-142z" />
    <glyph glyph-name="imacron" unicode="&#x12b;" horiz-adv-x="239" 
d="M-35 599v100h311v-100h-311zM49 514h142v-514h-142v514z" />
    <glyph glyph-name="imacron.ss03" horiz-adv-x="278" 
d="M-3 598v100h311v-100h-311zM4 514h225v-514h-142v395h-83v119z" />
    <glyph glyph-name="iogonek" unicode="&#x12f;" horiz-adv-x="239" 
d="M120 569c-47 0 -82 34 -82 79c0 46 35 80 82 80c46 0 81 -34 81 -80c0 -45 -35 -79 -81 -79zM95 -80c0 -17 12 -26 33 -26h64v-94h-90c-67 0 -119 37 -119 97c0 47 28 82 66 111v506h141v-514c-60 -27 -95 -52 -95 -80z" />
    <glyph glyph-name="iogonek.ss03" horiz-adv-x="277" 
d="M158 569c-46 0 -81 34 -81 79c0 46 35 80 81 80s82 -34 82 -80c0 -45 -36 -79 -82 -79zM134 -80c0 -17 12 -26 33 -26h64v-94h-90c-67 0 -119 37 -119 97c0 47 27 81 65 110v388h-83v119h225v-514c-60 -27 -95 -52 -95 -80z" />
    <glyph glyph-name="itilde" unicode="&#x129;" horiz-adv-x="239" 
d="M79 623c-21 0 -34 -18 -34 -39h-82v20c0 61 39 107 95 107c58 0 67 -43 104 -43c20 0 33 17 33 39h82v-21c0 -61 -40 -107 -95 -107c-58 0 -70 44 -103 44zM49 514h142v-514h-142v514z" />
    <glyph glyph-name="itilde.ss03" horiz-adv-x="278" 
d="M111 622c-21 0 -34 -18 -34 -39h-82v20c0 61 39 107 95 107c58 0 67 -43 104 -43c20 0 33 17 33 39h82v-21c0 -61 -40 -107 -95 -107c-58 0 -70 44 -103 44zM4 514h225v-514h-142v395h-83v119z" />
    <glyph glyph-name="j" unicode="j" horiz-adv-x="244" 
d="M124 728c47 0 82 -34 82 -80c0 -45 -35 -79 -82 -79c-46 0 -81 34 -81 79c0 46 35 80 81 80zM-46 -81h49c35 0 51 17 51 57v538h141v-558c0 -95 -50 -156 -148 -156h-93v119z" />
    <glyph glyph-name="j.short" horiz-adv-x="244" 
d="M43 648c0 46 35 80 81 80c47 0 82 -34 82 -80c0 -45 -35 -79 -82 -79c-46 0 -81 34 -81 79zM-17 -81h20c35 0 51 17 51 57v538h141v-558c0 -95 -50 -156 -148 -156h-64v119z" />
    <glyph glyph-name="j.ss03" horiz-adv-x="283" 
d="M82 648c0 46 35 79 82 79c46 0 81 -33 81 -79s-35 -80 -81 -80c-47 0 -82 34 -82 80zM-20 -81h56c37 0 56 17 56 56v420h-83v119h225v-558c0 -95 -53 -156 -156 -156h-98v119z" />
    <glyph glyph-name="j.ss04" horiz-adv-x="239" 
d="M120 569c-47 0 -82 34 -82 79c0 46 35 80 82 80c46 0 81 -34 81 -80c0 -45 -35 -79 -81 -79zM49 -200v714h142v-714h-142z" />
    <glyph glyph-name="uni0237" unicode="&#x237;" horiz-adv-x="244" 
d="M-46 -81h49c35 0 51 17 51 57v538h141v-558c0 -95 -50 -156 -148 -156h-93v119z" />
    <glyph glyph-name="uni0237.short" horiz-adv-x="244" 
d="M-17 -81h20c35 0 51 17 51 57v538h141v-558c0 -95 -50 -156 -148 -156h-64v119z" />
    <glyph glyph-name="uni0237.ss03" horiz-adv-x="283" 
d="M-20 -81h56c37 0 56 17 56 56v420h-83v119h225v-558c0 -95 -53 -156 -156 -156h-98v119z" />
    <glyph glyph-name="uni0237.ss04" horiz-adv-x="239" 
d="M49 514h142v-714h-142v714z" />
    <glyph glyph-name="jcircumflex" unicode="&#x135;" horiz-adv-x="244" 
d="M125 627l-62 -59h-129l128 142h126l128 -142h-130zM-46 -81h49c35 0 51 17 51 57v538h141v-558c0 -95 -50 -156 -148 -156h-93v119z" />
    <glyph glyph-name="jcircumflex.short" horiz-adv-x="244" 
d="M123 627l-62 -59h-129l128 142h126l128 -142h-130zM-17 -81h20c35 0 51 17 51 57v538h141v-558c0 -95 -50 -156 -148 -156h-64v119z" />
    <glyph glyph-name="jcircumflex.ss03" horiz-adv-x="283" 
d="M164 627l-62 -59h-129l128 142h126l128 -142h-130zM-20 -81h56c37 0 56 17 56 56v420h-83v119h225v-558c0 -95 -53 -156 -156 -156h-98v119z" />
    <glyph glyph-name="jcircumflex.ss04" horiz-adv-x="239" 
d="M121 627l-62 -59h-129l128 142h126l128 -142h-130zM49 514h142v-714h-142v714z" />
    <glyph glyph-name="k" unicode="k" horiz-adv-x="562" 
d="M49 700h141v-405l202 219h158l-183 -201l193 -313h-163l-130 208l-77 -83v-125h-141v700z" />
    <glyph glyph-name="uni0137" unicode="&#x137;" horiz-adv-x="562" 
d="M49 700h141v-405l202 219h158l-183 -201l193 -313h-163l-130 208l-77 -83v-125h-141v700zM224 -48h137l-85 -147h-105z" />
    <glyph glyph-name="l" unicode="l" horiz-adv-x="239" 
d="M49 700h141v-700h-141v700z" />
    <glyph glyph-name="lacute" unicode="&#x13a;" horiz-adv-x="239" 
d="M70 748l73 141h161l-131 -141h-103zM49 700h141v-700h-141v700z" />
    <glyph glyph-name="lcaron" unicode="&#x13e;" horiz-adv-x="305" 
d="M49 700h141v-700h-141v700zM259 700h132l-68 -148h-99z" />
    <glyph glyph-name="uni013C" unicode="&#x13c;" horiz-adv-x="239" 
d="M49 700h141v-700h-141v700zM47 -48h137l-85 -147h-105z" />
    <glyph glyph-name="ldot" unicode="&#x140;" horiz-adv-x="379" 
d="M49 700h141v-700h-141v700zM310 256c-46 0 -81 33 -81 79s35 80 81 80s82 -34 82 -80s-36 -79 -82 -79z" />
    <glyph glyph-name="lslash" unicode="&#x142;" horiz-adv-x="309" 
d="M301 499v-122l-76 -34v-343h-141v281l-76 -34v122l76 34v297h141v-235z" />
    <glyph glyph-name="m" unicode="m" horiz-adv-x="894" 
d="M667 520c98 0 187 -54 187 -238v-282h-141v287c0 77 -28 117 -89 117s-102 -45 -102 -123v-281h-141v287c0 77 -28 117 -90 117c-61 0 -101 -47 -101 -124v-280h-141v514h123l13 -64c32 40 76 69 152 70c63 0 121 -22 153 -87c37 55 99 87 177 87z" />
    <glyph glyph-name="n" unicode="n" horiz-adv-x="590" 
d="M344 520c105 0 206 -54 206 -241v-279h-141v271c0 87 -33 133 -104 133c-73 0 -115 -52 -115 -141v-263h-141v514h123l13 -64c33 40 80 70 159 70z" />
    <glyph glyph-name="nacute" unicode="&#x144;" horiz-adv-x="590" 
d="M507 710l-131 -141h-103l73 141h161zM344 520c105 0 206 -54 206 -241v-279h-141v271c0 87 -33 133 -104 133c-73 0 -115 -52 -115 -141v-263h-141v514h123l13 -64c33 40 80 70 159 70z" />
    <glyph glyph-name="napostrophe" unicode="&#x149;" horiz-adv-x="806" 
d="M114 706c63 0 105 -54 105 -131c0 -112 -73 -171 -187 -172v73c64 0 95 32 95 68c0 4 0 9 -1 14c-10 -5 -20 -8 -32 -8c-37 0 -68 25 -68 75c0 45 39 81 88 81zM560 520c105 0 206 -54 206 -241v-279h-141v271c0 87 -33 133 -104 133c-72 0 -115 -52 -115 -141v-263h-141
v514h124l12 -64c33 40 80 70 159 70z" />
    <glyph glyph-name="ncaron" unicode="&#x148;" horiz-adv-x="590" 
d="M385 568h-126l-128 142h130l61 -59l62 59h129zM344 520c105 0 206 -54 206 -241v-279h-141v271c0 87 -33 133 -104 133c-73 0 -115 -52 -115 -141v-263h-141v514h123l13 -64c33 40 80 70 159 70z" />
    <glyph glyph-name="uni0146" unicode="&#x146;" horiz-adv-x="590" 
d="M344 520c105 0 206 -54 206 -241v-279h-141v271c0 87 -33 133 -104 133c-73 0 -115 -52 -115 -141v-263h-141v514h123l13 -64c33 40 80 70 159 70zM176 -195l53 147h137l-85 -147h-105z" />
    <glyph glyph-name="eng" unicode="&#x14b;" horiz-adv-x="590" 
d="M344 520c105 0 206 -54 206 -241v-317c0 -98 -53 -162 -155 -162h-89v119h50c36 0 53 18 53 59v293c0 87 -33 133 -104 133c-73 0 -115 -52 -115 -141v-263h-141v514h123l13 -65c32 41 80 71 159 71z" />
    <glyph glyph-name="ntilde" unicode="&#xf1;" horiz-adv-x="590" 
d="M281 623c-21 0 -34 -18 -34 -39h-82v20c0 61 39 107 95 107c58 0 67 -43 104 -43c20 0 33 17 33 39h82v-21c0 -61 -40 -107 -95 -107c-58 0 -70 44 -103 44zM344 520c105 0 206 -54 206 -241v-279h-141v271c0 87 -33 133 -104 133c-73 0 -115 -52 -115 -141v-263h-141
v514h123l13 -64c33 40 80 70 159 70z" />
    <glyph glyph-name="o" unicode="o" 
d="M300 -6c-164 0 -271 105 -271 263s107 263 271 263s271 -105 271 -263c0 -159 -107 -263 -271 -263zM300 109c79 0 128 61 128 148s-49 148 -128 148s-127 -61 -127 -148s48 -148 127 -148z" />
    <glyph glyph-name="oacute" unicode="&#xf3;" 
d="M251 569l73 141h161l-131 -141h-103zM300 -6c-164 0 -271 105 -271 263s107 263 271 263s271 -105 271 -263c0 -159 -107 -263 -271 -263zM300 109c79 0 128 61 128 148s-49 148 -128 148s-127 -61 -127 -148s48 -148 127 -148z" />
    <glyph glyph-name="obreve" unicode="&#x14f;" 
d="M144 710h101c0 -34 21 -56 55 -56c32 0 55 22 55 56h101c-4 -88 -67 -147 -159 -147c-89 0 -149 59 -153 147zM300 -6c-164 0 -271 105 -271 263s107 263 271 263s271 -105 271 -263c0 -159 -107 -263 -271 -263zM300 109c79 0 128 61 128 148s-49 148 -128 148
s-127 -61 -127 -148s48 -148 127 -148z" />
    <glyph glyph-name="ocircumflex" unicode="&#xf4;" 
d="M300 627l-62 -59h-129l128 142h126l128 -142h-130zM300 -6c-164 0 -271 105 -271 263s107 263 271 263s271 -105 271 -263c0 -159 -107 -263 -271 -263zM300 109c79 0 128 61 128 148s-49 148 -128 148s-127 -61 -127 -148s48 -148 127 -148z" />
    <glyph glyph-name="odieresis" unicode="&#xf6;" 
d="M119 649c0 42 33 73 76 73s75 -31 75 -73c0 -41 -32 -73 -75 -73s-76 32 -76 73zM330 649c0 42 33 73 75 73c43 0 76 -31 76 -73c0 -41 -33 -73 -76 -73c-42 0 -75 32 -75 73zM300 -6c-164 0 -271 105 -271 263s107 263 271 263s271 -105 271 -263
c0 -159 -107 -263 -271 -263zM300 109c79 0 128 61 128 148s-49 148 -128 148s-127 -61 -127 -148s48 -148 127 -148z" />
    <glyph glyph-name="ograve" unicode="&#xf2;" 
d="M119 710h161l70 -144h-106zM300 -6c-164 0 -271 105 -271 263s107 263 271 263s271 -105 271 -263c0 -159 -107 -263 -271 -263zM300 109c79 0 128 61 128 148s-49 148 -128 148s-127 -61 -127 -148s48 -148 127 -148z" />
    <glyph glyph-name="ohungarumlaut" unicode="&#x151;" 
d="M140 566l73 144h154l-131 -144h-96zM339 566l74 144h153l-130 -144h-97zM300 -6c-164 0 -271 105 -271 263s107 263 271 263s271 -105 271 -263c0 -159 -107 -263 -271 -263zM300 109c79 0 128 61 128 148s-49 148 -128 148s-127 -61 -127 -148s48 -148 127 -148z" />
    <glyph glyph-name="omacron" unicode="&#x14d;" 
d="M145 599v100h311v-100h-311zM300 -6c-164 0 -271 105 -271 263s107 263 271 263s271 -105 271 -263c0 -159 -107 -263 -271 -263zM300 109c79 0 128 61 128 148s-49 148 -128 148s-127 -61 -127 -148s48 -148 127 -148z" />
    <glyph glyph-name="oslash" unicode="&#xf8;" 
d="M526 413c29 -42 45 -96 45 -157c0 -157 -107 -262 -272 -262c-63 0 -117 15 -160 43l-44 -43l-65 65l44 42c-29 42 -45 95 -45 155c-1 159 106 264 270 264c63 0 118 -15 161 -43l45 43l64 -65zM167 256c0 -20 3 -39 8 -57l195 190c-19 13 -43 20 -71 20
c-82 0 -132 -64 -132 -153zM299 105c82 0 133 62 133 151c0 21 -3 40 -8 58l-195 -190c19 -12 43 -19 70 -19z" />
    <glyph glyph-name="otilde" unicode="&#xf5;" 
d="M259 623c-21 0 -34 -18 -34 -39h-82v20c0 61 39 107 95 107c58 0 67 -43 104 -43c20 0 33 17 33 39h82v-21c0 -61 -40 -107 -95 -107c-58 0 -70 44 -103 44zM300 -6c-164 0 -271 105 -271 263s107 263 271 263s271 -105 271 -263c0 -159 -107 -263 -271 -263zM300 109
c79 0 128 61 128 148s-49 148 -128 148s-127 -61 -127 -148s48 -148 127 -148z" />
    <glyph glyph-name="oe" unicode="&#x153;" horiz-adv-x="966" 
d="M933 225h-373v-4c7 -74 48 -120 122 -120c56 0 96 25 108 73h140c-16 -100 -103 -180 -238 -180c-88 0 -157 29 -202 79c-45 -50 -111 -79 -191 -79c-164 0 -270 104 -270 263s106 263 270 263c82 0 149 -29 194 -79c42 51 104 79 179 79c158 0 264 -96 265 -247
c0 -15 -1 -32 -4 -48zM678 415c-60 0 -107 -37 -115 -98h232c-9 63 -53 98 -117 98zM299 109c79 0 128 60 128 147c0 88 -49 149 -128 149s-126 -61 -126 -148c0 -88 47 -148 126 -148z" />
    <glyph glyph-name="p" unicode="p" horiz-adv-x="612" 
d="M344 520c139 1 239 -102 239 -264c0 -160 -100 -262 -238 -262c-71 0 -122 29 -155 71v-265h-141v714h123l14 -71c33 44 85 77 158 77zM313 109c77 0 127 61 127 149c0 87 -50 147 -127 147s-125 -60 -125 -147c0 -88 48 -149 125 -149z" />
    <glyph glyph-name="thorn" unicode="&#xfe;" horiz-adv-x="612" 
d="M49 700h136v-258c33 44 84 78 159 78c139 1 239 -102 239 -264c0 -160 -100 -262 -238 -262c-72 0 -123 29 -155 72v-266h-141v900zM440 258c0 87 -50 147 -127 147s-125 -60 -125 -147c0 -88 48 -149 125 -149s127 61 127 149z" />
    <glyph glyph-name="q" unicode="q" horiz-adv-x="612" 
d="M440 514h123v-714h-141v266c-34 -42 -84 -72 -155 -72c-137 0 -238 99 -238 262c0 159 101 265 239 264c73 0 125 -31 158 -75zM299 109c77 0 125 61 125 148c0 88 -48 148 -125 148s-126 -60 -126 -147c0 -88 49 -149 126 -149z" />
    <glyph glyph-name="r" unicode="r" horiz-adv-x="376" 
d="M338 514h24v-128h-56c-84 0 -116 -56 -116 -134v-252h-141v514h128l13 -77c28 46 68 77 148 77z" />
    <glyph glyph-name="racute" unicode="&#x155;" horiz-adv-x="376" 
d="M396 710l-131 -141h-103l73 141h161zM190 437c28 46 68 77 148 77h24v-128h-56c-84 0 -116 -56 -116 -134v-252h-141v514h128z" />
    <glyph glyph-name="rcaron" unicode="&#x159;" horiz-adv-x="376" 
d="M274 568h-126l-128 142h130l61 -59l62 59h129zM190 437c28 46 68 77 148 77h24v-128h-56c-84 0 -116 -56 -116 -134v-252h-141v514h128z" />
    <glyph glyph-name="uni0157" unicode="&#x157;" horiz-adv-x="376" 
d="M338 514h24v-128h-56c-84 0 -116 -56 -116 -134v-252h-141v514h128l13 -77c28 46 68 77 148 77zM-5 -195l53 147h137l-85 -147h-105z" />
    <glyph glyph-name="s" unicode="s" horiz-adv-x="540" 
d="M30 171h134c4 -45 47 -76 110 -76c58 0 97 19 97 56c0 41 -36 45 -118 55c-119 15 -212 41 -212 147c0 102 89 169 220 168c138 0 232 -61 239 -166h-134c-4 38 -43 66 -101 66c-53 0 -89 -21 -89 -55c0 -38 44 -41 117 -49c117 -13 215 -40 215 -156
c0 -102 -95 -167 -233 -167c-142 0 -240 67 -245 177z" />
    <glyph glyph-name="sacute" unicode="&#x15b;" horiz-adv-x="540" 
d="M212 569l73 141h161l-131 -141h-103zM30 171h134c4 -45 47 -76 110 -76c58 0 97 19 97 56c0 41 -36 45 -118 55c-119 15 -212 41 -212 147c0 102 89 169 220 168c138 0 232 -61 239 -166h-134c-4 38 -43 66 -101 66c-53 0 -89 -21 -89 -55c0 -38 44 -41 117 -49
c117 -13 215 -40 215 -156c0 -102 -95 -167 -233 -167c-142 0 -240 67 -245 177z" />
    <glyph glyph-name="scaron" unicode="&#x161;" horiz-adv-x="540" 
d="M261 651l62 59h129l-128 -142h-126l-128 142h130zM30 171h134c4 -45 47 -76 110 -76c58 0 97 19 97 56c0 41 -36 45 -118 55c-119 15 -212 41 -212 147c0 102 89 169 220 168c138 0 232 -61 239 -166h-134c-4 38 -43 66 -101 66c-53 0 -89 -21 -89 -55
c0 -38 44 -41 117 -49c117 -13 215 -40 215 -156c0 -102 -95 -167 -233 -167c-142 0 -240 67 -245 177z" />
    <glyph glyph-name="scedilla" unicode="&#x15f;" horiz-adv-x="540" 
d="M508 161c0 -93 -79 -155 -198 -166l-7 -26h17c55 0 91 -29 91 -77c0 -57 -43 -93 -109 -93h-119v69h92c17 0 29 7 29 25c0 14 -12 22 -29 22h-59l20 81c-121 11 -201 75 -206 175h134c4 -45 47 -76 110 -76c58 0 97 19 97 56c0 41 -36 45 -118 55
c-119 15 -212 41 -212 147c0 102 89 169 220 168c138 0 232 -61 239 -166h-134c-4 38 -43 66 -101 66c-53 0 -89 -21 -89 -55c0 -38 44 -41 117 -49c117 -13 215 -40 215 -156z" />
    <glyph glyph-name="scircumflex" unicode="&#x15d;" horiz-adv-x="540" 
d="M261 627l-62 -59h-129l128 142h126l128 -142h-130zM30 171h134c4 -45 47 -76 110 -76c58 0 97 19 97 56c0 41 -36 45 -118 55c-119 15 -212 41 -212 147c0 102 89 169 220 168c138 0 232 -61 239 -166h-134c-4 38 -43 66 -101 66c-53 0 -89 -21 -89 -55
c0 -38 44 -41 117 -49c117 -13 215 -40 215 -156c0 -102 -95 -167 -233 -167c-142 0 -240 67 -245 177z" />
    <glyph glyph-name="uni0219" unicode="&#x219;" horiz-adv-x="540" 
d="M30 171h134c4 -45 47 -76 110 -76c58 0 97 19 97 56c0 41 -36 45 -118 55c-119 15 -212 41 -212 147c0 102 89 169 220 168c138 0 232 -61 239 -166h-134c-4 38 -43 66 -101 66c-53 0 -89 -21 -89 -55c0 -38 44 -41 117 -49c117 -13 215 -40 215 -156
c0 -102 -95 -167 -233 -167c-142 0 -240 67 -245 177zM203 -49h137l-85 -147h-105z" />
    <glyph glyph-name="germandbls" unicode="&#xdf;" horiz-adv-x="623" 
d="M367 -6c-41 1 -75 6 -108 17v104c34 -12 60 -14 86 -14c64 0 112 36 112 98c0 67 -56 102 -138 102c-10 0 -20 -1 -31 -2v105c88 0 120 48 120 98c0 55 -37 91 -101 91c-65 0 -106 -43 -106 -107v-486h-141v479c0 158 114 227 248 227c145 0 243 -73 243 -187
c-1 -72 -41 -127 -96 -150c87 -25 144 -76 144 -172c0 -130 -102 -202 -232 -203z" />
    <glyph glyph-name="t" unicode="t" horiz-adv-x="356" 
d="M82 147v248h-85v119h85v144h141v-144h117v-119h-117v-225c0 -36 14 -51 50 -51h73v-119h-117c-98 0 -147 49 -147 147z" />
    <glyph glyph-name="t.ss05" horiz-adv-x="315" 
d="M41 147v511h141v-144h117v-119h-117v-225c0 -36 14 -51 50 -51h73v-119h-117c-98 0 -147 49 -147 147z" />
    <glyph glyph-name="t.ss06" horiz-adv-x="344" 
d="M-3 514h85v144h141v-144h111v-119h-111v-395h-141v395h-85v119z" />
    <glyph glyph-name="tbar" unicode="&#x167;" horiz-adv-x="376" 
d="M280 119h73v-119h-117c-98 0 -147 49 -147 147v73h-85v103h85v72h-85v119h85v144h141v-144h117v-119h-117v-72h117v-103h-117v-50c0 -36 14 -51 50 -51z" />
    <glyph glyph-name="tbar.ss05" horiz-adv-x="315" 
d="M299 395h-117v-72h117v-103h-117v-50c0 -36 14 -51 50 -51h73v-119h-117c-98 0 -147 49 -147 147v511h141v-144h117v-119z" />
    <glyph glyph-name="tbar.ss06" horiz-adv-x="367" 
d="M346 395h-113v-83h113v-102h-113v-210h-142v210h-87v102h87v83h-87v119h87v144h142v-144h113v-119z" />
    <glyph glyph-name="tcaron" unicode="&#x165;" horiz-adv-x="369" 
d="M294 705h132l-68 -148h-99zM82 147v248h-85v119h85v144h141v-144h117v-119h-117v-225c0 -36 14 -51 50 -51h73v-119h-117c-98 0 -147 49 -147 147z" />
    <glyph glyph-name="tcaron.ss05" horiz-adv-x="328" 
d="M253 705h132l-68 -148h-99zM41 147v511h141v-144h117v-119h-117v-225c0 -36 14 -51 50 -51h73v-119h-117c-98 0 -147 49 -147 147z" />
    <glyph glyph-name="tcaron.ss06" horiz-adv-x="373" 
d="M297 705h132l-68 -148h-99zM-3 514h85v144h141v-144h111v-119h-111v-395h-141v395h-85v119z" />
    <glyph glyph-name="uni0163" unicode="&#x163;" horiz-adv-x="356" 
d="M82 147v248h-85v119h85v144h141v-144h117v-119h-117v-225c0 -36 14 -51 50 -51h73v-119h-117c-98 0 -147 49 -147 147zM145 -48h137l-85 -147h-105z" />
    <glyph glyph-name="uni0163.ss05" horiz-adv-x="315" 
d="M41 147v511h141v-144h117v-119h-117v-225c0 -36 14 -51 50 -51h73v-119h-117c-98 0 -147 49 -147 147zM104 -48h137l-85 -147h-105z" />
    <glyph glyph-name="uni0163.ss06" horiz-adv-x="344" 
d="M-3 514h85v144h141v-144h111v-119h-111v-395h-141v395h-85v119zM83 -48h137l-85 -147h-105z" />
    <glyph glyph-name="uni021B" unicode="&#x21b;" horiz-adv-x="356" 
d="M82 147v248h-85v119h85v144h141v-144h117v-119h-117v-225c0 -36 14 -51 50 -51h73v-119h-117c-98 0 -147 49 -147 147zM145 -48h137l-85 -147h-105z" />
    <glyph glyph-name="uni021B.ss05" horiz-adv-x="315" 
d="M41 147v511h141v-144h117v-119h-117v-225c0 -36 14 -51 50 -51h73v-119h-117c-98 0 -147 49 -147 147zM104 -48h137l-85 -147h-105z" />
    <glyph glyph-name="uni021B.ss06" horiz-adv-x="344" 
d="M-3 514h85v144h141v-144h111v-119h-111v-395h-141v395h-85v119zM83 -48h137l-85 -147h-105z" />
    <glyph glyph-name="u" unicode="u" horiz-adv-x="582" 
d="M392 514h141v-514h-125l-13 62c-33 -40 -78 -68 -151 -68c-106 0 -204 54 -204 241v279h141v-262c0 -91 30 -141 100 -141s111 55 111 150v253z" />
    <glyph glyph-name="uacute" unicode="&#xfa;" horiz-adv-x="582" 
d="M472 710l-131 -141h-103l73 141h161zM392 514h141v-514h-125l-13 62c-33 -40 -78 -68 -151 -68c-106 0 -204 54 -204 241v279h141v-262c0 -91 30 -141 100 -141s111 55 111 150v253z" />
    <glyph glyph-name="ubreve" unicode="&#x16d;" horiz-adv-x="582" 
d="M284 563c-89 0 -149 59 -153 147h101c0 -34 21 -56 55 -56c32 0 55 22 55 56h101c-4 -88 -67 -147 -159 -147zM392 514h141v-514h-125l-13 62c-33 -40 -78 -68 -151 -68c-106 0 -204 54 -204 241v279h141v-262c0 -91 30 -141 100 -141s111 55 111 150v253z" />
    <glyph glyph-name="ucircumflex" unicode="&#xfb;" horiz-adv-x="582" 
d="M287 627l-62 -59h-129l128 142h126l128 -142h-130zM392 514h141v-514h-125l-13 62c-33 -40 -78 -68 -151 -68c-106 0 -204 54 -204 241v279h141v-262c0 -91 30 -141 100 -141s111 55 111 150v253z" />
    <glyph glyph-name="udieresis" unicode="&#xfc;" horiz-adv-x="582" 
d="M182 576c-43 0 -76 32 -76 73c0 42 33 73 76 73s75 -31 75 -73c0 -41 -32 -73 -75 -73zM392 576c-42 0 -75 32 -75 73c0 42 33 73 75 73c43 0 76 -31 76 -73c0 -41 -33 -73 -76 -73zM392 514h141v-514h-125l-13 62c-33 -40 -78 -68 -151 -68c-106 0 -204 54 -204 241v279
h141v-262c0 -91 30 -141 100 -141s111 55 111 150v253z" />
    <glyph glyph-name="ugrave" unicode="&#xf9;" horiz-adv-x="582" 
d="M337 566h-106l-125 144h161zM392 514h141v-514h-125l-13 62c-33 -40 -78 -68 -151 -68c-106 0 -204 54 -204 241v279h141v-262c0 -91 30 -141 100 -141s111 55 111 150v253z" />
    <glyph glyph-name="uhungarumlaut" unicode="&#x171;" horiz-adv-x="582" 
d="M354 710l-131 -144h-96l73 144h154zM423 566h-97l74 144h153zM392 261v253h141v-514h-125l-13 62c-33 -40 -78 -68 -151 -68c-106 0 -204 54 -204 241v279h141v-262c0 -91 30 -141 100 -141s111 55 111 150z" />
    <glyph glyph-name="umacron" unicode="&#x16b;" horiz-adv-x="582" 
d="M443 699v-100h-311v100h311zM392 514h141v-514h-125l-13 62c-33 -40 -78 -68 -151 -68c-106 0 -204 54 -204 241v279h141v-262c0 -91 30 -141 100 -141s111 55 111 150v253z" />
    <glyph glyph-name="uogonek" unicode="&#x173;" horiz-adv-x="582" 
d="M471 -106h64v-94h-90c-67 0 -119 37 -119 97c0 52 34 89 79 120l-10 45c-33 -40 -78 -68 -151 -68c-106 0 -204 54 -204 241v279h141v-262c0 -91 30 -141 100 -141s111 55 111 150v253h141v-514c-60 -27 -95 -52 -95 -80c0 -17 12 -26 33 -26z" />
    <glyph glyph-name="uring" unicode="&#x16f;" horiz-adv-x="582" 
d="M287 553c-73 0 -130 53 -130 121c0 67 57 121 130 121s130 -54 130 -121c0 -68 -57 -121 -130 -121zM287 732c-33 0 -58 -25 -58 -58c0 -34 25 -59 58 -59s58 25 58 59c0 33 -25 58 -58 58zM392 514h141v-514h-125l-13 62c-33 -40 -78 -68 -151 -68
c-106 0 -204 54 -204 241v279h141v-262c0 -91 30 -141 100 -141s111 55 111 150v253z" />
    <glyph glyph-name="utilde" unicode="&#x169;" horiz-adv-x="582" 
d="M246 623c-21 0 -34 -18 -34 -39h-82v20c0 61 39 107 95 107c58 0 67 -43 104 -43c20 0 33 17 33 39h82v-21c0 -61 -40 -107 -95 -107c-58 0 -70 44 -103 44zM392 514h141v-514h-125l-13 62c-33 -40 -78 -68 -151 -68c-106 0 -204 54 -204 241v279h141v-262
c0 -91 30 -141 100 -141s111 55 111 150v253z" />
    <glyph glyph-name="v" unicode="v" horiz-adv-x="542" 
d="M-1 514h151l124 -370l122 370h148l-185 -514h-175z" />
    <glyph glyph-name="w" unicode="w" horiz-adv-x="819" 
d="M0 514h149l103 -362l97 362h127l94 -363l105 363h144l-169 -514h-150l-90 310l-92 -310h-150z" />
    <glyph glyph-name="wacute" unicode="&#x1e83;" horiz-adv-x="819" 
d="M363 569l73 141h161l-131 -141h-103zM0 514h149l103 -362l97 362h127l94 -363l105 363h144l-169 -514h-150l-90 310l-92 -310h-150z" />
    <glyph glyph-name="wcircumflex" unicode="&#x175;" horiz-adv-x="819" 
d="M412 627l-62 -59h-129l128 142h126l128 -142h-130zM0 514h149l103 -362l97 362h127l94 -363l105 363h144l-169 -514h-150l-90 310l-92 -310h-150z" />
    <glyph glyph-name="wdieresis" unicode="&#x1e85;" horiz-adv-x="819" 
d="M231 649c0 42 33 73 76 73s75 -31 75 -73c0 -41 -32 -73 -75 -73s-76 32 -76 73zM442 649c0 42 33 73 75 73c43 0 76 -31 76 -73c0 -41 -33 -73 -76 -73c-42 0 -75 32 -75 73zM0 514h149l103 -362l97 362h127l94 -363l105 363h144l-169 -514h-150l-90 310l-92 -310h-150z
" />
    <glyph glyph-name="wgrave" unicode="&#x1e81;" horiz-adv-x="819" 
d="M231 710h161l70 -144h-106zM0 514h149l103 -362l97 362h127l94 -363l105 363h144l-169 -514h-150l-90 310l-92 -310h-150z" />
    <glyph glyph-name="x" unicode="x" horiz-adv-x="552" 
d="M194 262l-182 252h161l107 -152l109 152h151l-181 -252l191 -262h-161l-118 161l-117 -161h-151z" />
    <glyph glyph-name="y" unicode="y" horiz-adv-x="546" 
d="M-1 514h150l125 -369l122 369h151l-228 -587c-32 -85 -58 -127 -138 -127h-137v119h78c36 0 48 9 62 44l13 34z" />
    <glyph glyph-name="y.ss01" horiz-adv-x="582" 
d="M392 514h141v-504c0 -121 -73 -216 -258 -216c-136 0 -229 61 -235 179h142c12 -48 46 -72 105 -72c67 0 108 38 108 109v64c-34 -43 -76 -74 -150 -74c-106 0 -204 50 -204 236v278h141v-261c0 -90 31 -135 100 -135s110 51 110 145v251z" />
    <glyph glyph-name="yacute" unicode="&#xfd;" horiz-adv-x="546" 
d="M222 569l73 141h161l-131 -141h-103zM-1 514h150l125 -369l122 369h151l-228 -587c-32 -85 -58 -127 -138 -127h-137v119h78c36 0 48 9 62 44l13 34z" />
    <glyph glyph-name="yacute.ss01" horiz-adv-x="582" 
d="M472 710l-131 -141h-103l73 141h161zM392 514h141v-504c0 -121 -73 -216 -258 -216c-136 0 -229 61 -235 179h142c12 -48 46 -72 105 -72c67 0 108 38 108 109v64c-34 -43 -76 -74 -150 -74c-106 0 -204 50 -204 236v278h141v-261c0 -90 31 -135 100 -135s110 51 110 145
v251z" />
    <glyph glyph-name="ycircumflex" unicode="&#x177;" horiz-adv-x="546" 
d="M271 627l-62 -59h-129l128 142h126l128 -142h-130zM-1 514h150l125 -369l122 369h151l-228 -587c-32 -85 -58 -127 -138 -127h-137v119h78c36 0 48 9 62 44l13 34z" />
    <glyph glyph-name="ycircumflex.ss01" horiz-adv-x="582" 
d="M287 627l-62 -59h-129l128 142h126l128 -142h-130zM392 514h141v-504c0 -121 -73 -216 -258 -216c-136 0 -229 61 -235 179h142c12 -48 46 -72 105 -72c67 0 108 38 108 109v64c-34 -43 -76 -74 -150 -74c-106 0 -204 50 -204 236v278h141v-261c0 -90 31 -135 100 -135
s110 51 110 145v251z" />
    <glyph glyph-name="ydieresis" unicode="&#xff;" horiz-adv-x="546" 
d="M90 649c0 42 33 73 76 73s75 -31 75 -73c0 -41 -32 -73 -75 -73s-76 32 -76 73zM301 649c0 42 33 73 75 73c43 0 76 -31 76 -73c0 -41 -33 -73 -76 -73c-42 0 -75 32 -75 73zM-1 514h150l125 -369l122 369h151l-228 -587c-32 -85 -58 -127 -138 -127h-137v119h78
c36 0 48 9 62 44l13 34z" />
    <glyph glyph-name="ydieresis.ss01" horiz-adv-x="582" 
d="M182 576c-43 0 -76 32 -76 73c0 42 33 73 76 73s75 -31 75 -73c0 -41 -32 -73 -75 -73zM392 576c-42 0 -75 32 -75 73c0 42 33 73 75 73c43 0 76 -31 76 -73c0 -41 -33 -73 -76 -73zM392 514h141v-504c0 -121 -73 -216 -258 -216c-136 0 -229 61 -235 179h142
c12 -48 46 -72 105 -72c67 0 108 38 108 109v64c-34 -43 -76 -74 -150 -74c-106 0 -204 50 -204 236v278h141v-261c0 -90 31 -135 100 -135s110 51 110 145v251z" />
    <glyph glyph-name="ygrave" unicode="&#x1ef3;" horiz-adv-x="546" 
d="M90 710h161l70 -144h-106zM-1 514h150l125 -369l122 369h151l-228 -587c-32 -85 -58 -127 -138 -127h-137v119h78c36 0 48 9 62 44l13 34z" />
    <glyph glyph-name="ygrave.ss01" horiz-adv-x="582" 
d="M337 566h-106l-125 144h161zM392 514h141v-504c0 -121 -73 -216 -258 -216c-136 0 -229 61 -235 179h142c12 -48 46 -72 105 -72c67 0 108 38 108 109v64c-34 -43 -76 -74 -150 -74c-106 0 -204 50 -204 236v278h141v-261c0 -90 31 -135 100 -135s110 51 110 145v251z
" />
    <glyph glyph-name="z" unicode="z" horiz-adv-x="503" 
d="M34 514h435v-96l-257 -299h269v-119h-459v96l257 299h-245v119z" />
    <glyph glyph-name="zacute" unicode="&#x17a;" horiz-adv-x="503" 
d="M201 569l73 141h161l-131 -141h-103zM34 514h435v-96l-257 -299h269v-119h-459v96l257 299h-245v119z" />
    <glyph glyph-name="zcaron" unicode="&#x17e;" horiz-adv-x="503" 
d="M250 651l62 59h129l-128 -142h-126l-128 142h130zM34 514h435v-96l-257 -299h269v-119h-459v96l257 299h-245v119z" />
    <glyph glyph-name="zdotaccent" unicode="&#x17c;" horiz-adv-x="503" 
d="M250 579c-46 0 -82 34 -82 79c0 46 36 80 82 80s82 -34 82 -80c0 -45 -36 -79 -82 -79zM34 514h435v-96l-257 -299h269v-119h-459v96l257 299h-245v119z" />
    <glyph glyph-name="d_f.dlig" horiz-adv-x="932" 
d="M422 450v250h141v-700h-123l-14 71c-34 -44 -84 -77 -158 -77c-138 0 -239 101 -239 264c0 159 101 262 238 262c71 0 122 -28 155 -70zM844 580c-28 0 -42 -13 -42 -42v-24h129v-119h-129v-395h-141v559c0 89 51 141 155 141h115v-120h-87zM299 109c77 0 125 60 125 147
c0 88 -48 149 -125 149s-126 -60 -126 -148s49 -148 126 -148z" />
    <glyph glyph-name="d_f_f.dlig" horiz-adv-x="1252" 
d="M422 450v250h141v-700h-123l-14 71c-34 -44 -84 -77 -158 -77c-138 0 -239 101 -239 264c0 159 101 262 238 262c71 0 122 -28 155 -70zM661 559c0 89 51 141 155 141h115v-120h-87c-28 0 -42 -13 -42 -42v-24h129v-119h-129v-395h-141v559zM1164 580
c-28 0 -42 -13 -42 -42v-24h129v-119h-129v-395h-141v559c0 89 51 141 155 141h115v-120h-87zM299 109c77 0 125 60 125 147c0 88 -48 149 -125 149s-126 -60 -126 -148s49 -148 126 -148z" />
    <glyph glyph-name="d_t.dlig" horiz-adv-x="928" 
d="M422 450v250h141v-700h-123l-14 71c-34 -44 -84 -77 -158 -77c-138 0 -239 101 -239 264c0 159 101 262 238 262c71 0 122 -28 155 -70zM844 119h73v-119h-117c-98 0 -147 49 -147 147v511h141v-144h117v-119h-117v-225c0 -36 14 -51 50 -51zM299 109
c77 0 125 60 125 147c0 88 -48 149 -125 149s-126 -60 -126 -148s49 -148 126 -148z" />
    <glyph glyph-name="f_f.dlig" horiz-adv-x="675" 
d="M-3 514h85v45c0 89 51 141 155 141h115v-120h-87c-29 0 -42 -13 -42 -42v-24h129v-119h-129v-395h-141v395h-85v119zM404 559c0 89 51 141 155 141h115v-120h-87c-28 0 -42 -13 -42 -42v-24h129v-119h-129v-395h-141v559z" />
    <glyph glyph-name="f_f_t.dlig" horiz-adv-x="990" 
d="M-3 514h85v45c0 89 51 141 155 141h115v-120h-87c-29 0 -42 -13 -42 -42v-24h129v-119h-129v-395h-141v395h-85v119zM404 559c0 89 51 141 155 141h115v-120h-87c-28 0 -42 -13 -42 -42v-24h129v-119h-129v-395h-141v559zM716 147v511h141v-144h117v-119h-117v-225
c0 -36 14 -51 50 -51h73v-119h-117c-98 0 -147 49 -147 147z" />
    <glyph glyph-name="f_t.dlig" horiz-adv-x="670" 
d="M-3 514h85v45c0 89 51 141 155 141h115v-120h-87c-29 0 -42 -13 -42 -42v-24h129v-119h-129v-395h-141v395h-85v119zM396 147v511h141v-144h117v-119h-117v-225c0 -36 14 -51 50 -51h73v-119h-117c-98 0 -147 49 -147 147z" />
    <glyph glyph-name="fl" unicode="&#xfb02;" horiz-adv-x="593" 
d="M-3 514h85v45c0 89 51 141 155 141h115v-120h-87c-29 0 -42 -13 -42 -42v-24h129v-119h-129v-395h-141v395h-85v119zM404 700h141v-700h-141v700z" />
    <glyph glyph-name="k_f.dlig" horiz-adv-x="882" 
d="M49 700h141v-405l202 219h158l-183 -201l193 -313h-163l-130 208l-77 -83v-125h-141v700zM611 559c0 89 51 141 155 141h115v-120h-87c-28 0 -42 -13 -42 -42v-24h129v-119h-129v-395h-141v559z" />
    <glyph glyph-name="k_t.dlig" horiz-adv-x="869" 
d="M49 700h141v-405l202 219h158l-183 -201l193 -313h-163l-130 208l-77 -83v-125h-141v700zM594 147v511h141v-144h117v-119h-117v-225c0 -36 14 -51 50 -51h73v-119h-117c-98 0 -147 49 -147 147z" />
    <glyph glyph-name="l_f.dlig" horiz-adv-x="559" 
d="M49 700h141v-700h-141v700zM288 559c0 89 51 141 155 141h115v-120h-87c-28 0 -42 -13 -42 -42v-24h129v-119h-129v-395h-141v559z" />
    <glyph glyph-name="l_f_f.dlig" horiz-adv-x="879" 
d="M49 700h141v-700h-141v700zM288 559c0 89 51 141 155 141h115v-120h-87c-28 0 -42 -13 -42 -42v-24h129v-119h-129v-395h-141v559zM608 559c0 89 51 141 155 141h115v-120h-87c-28 0 -42 -13 -42 -42v-24h129v-119h-129v-395h-141v559z" />
    <glyph glyph-name="l_t.dlig" horiz-adv-x="554" 
d="M49 700h141v-700h-141v700zM280 147v511h141v-144h117v-119h-117v-225c0 -36 14 -51 50 -51h73v-119h-117c-98 0 -147 49 -147 147z" />
    <glyph glyph-name="l_t_t.dlig" horiz-adv-x="869" 
d="M49 700h141v-700h-141v700zM280 147v511h141v-144h117v-119h-117v-225c0 -36 14 -51 50 -51h73v-119h-117c-98 0 -147 49 -147 147zM595 147v511h141v-144h117v-119h-117v-225c0 -36 14 -51 50 -51h73v-119h-117c-98 0 -147 49 -147 147z" />
    <glyph glyph-name="r_f.dlig" horiz-adv-x="695" 
d="M608 580c-28 0 -42 -13 -42 -42v-24h129v-119h-129v-395h-141v559c0 89 51 141 155 141h115v-120h-87zM190 437c28 46 68 77 148 77h24v-128h-56c-84 0 -116 -56 -116 -134v-252h-141v514h128z" />
    <glyph glyph-name="r_t.dlig" horiz-adv-x="691" 
d="M608 119h73v-119h-117c-98 0 -147 49 -147 147v511h141v-144h117v-119h-117v-225c0 -36 14 -51 50 -51zM190 437c28 46 68 77 148 77h24v-128h-56c-84 0 -116 -56 -116 -134v-252h-141v514h128z" />
    <glyph glyph-name="t_t.dlig" horiz-adv-x="671" 
d="M82 147v248h-85v119h85v144h141v-144h117v-119h-117v-225c0 -36 14 -51 50 -51h73v-119h-117c-98 0 -147 49 -147 147zM397 147v511h141v-144h117v-119h-117v-225c0 -36 14 -51 50 -51h73v-119h-117c-98 0 -147 49 -147 147z" />
    <glyph glyph-name="v_f.dlig" horiz-adv-x="862" 
d="M591 559c0 89 51 141 155 141h115v-120h-87c-28 0 -42 -13 -42 -42v-24h129v-119h-129v-395h-141v559zM-1 514h151l124 -370l122 370h148l-185 -514h-175z" />
    <glyph glyph-name="v_t.dlig" horiz-adv-x="858" 
d="M583 147v511h141v-144h117v-119h-117v-225c0 -36 14 -51 50 -51h73v-119h-117c-98 0 -147 49 -147 147zM-1 514h151l124 -370l122 370h148l-185 -514h-175z" />
    <glyph glyph-name="w_f.dlig" horiz-adv-x="1139" 
d="M868 559c0 89 51 141 155 141h115v-120h-87c-28 0 -42 -13 -42 -42v-24h129v-119h-129v-395h-141v559zM0 514h149l103 -362l97 362h127l94 -363l105 363h144l-169 -514h-150l-90 310l-92 -310h-150z" />
    <glyph glyph-name="w_t.dlig" horiz-adv-x="1134" 
d="M860 147v511h141v-144h117v-119h-117v-225c0 -36 14 -51 50 -51h73v-119h-117c-98 0 -147 49 -147 147zM0 514h149l103 -362l97 362h127l94 -363l105 363h144l-169 -514h-150l-90 310l-92 -310h-150z" />
    <glyph glyph-name="w_w_w.dlig" horiz-adv-x="2172" 
d="M2029 514h144l-170 -514h-149l-90 310l-92 -310h-151l-97 296l-97 -296h-150l-90 310l-92 -310h-151l-97 296l-97 -296h-150l-90 310l-92 -310h-150l-168 514h149l103 -362l97 362h127l94 -363l105 363h150l104 -362l97 362h126l94 -363l106 363h150l104 -362l97 362h126
l94 -363z" />
    <glyph glyph-name="y_f.dlig" horiz-adv-x="866" 
d="M595 559c0 89 51 141 155 141h115v-120h-87c-28 0 -42 -13 -42 -42v-24h129v-119h-129v-395h-141v559zM-1 514h150l125 -369l122 369h151l-228 -587c-32 -85 -58 -127 -138 -127h-137v119h78c36 0 48 9 62 44l13 34z" />
    <glyph glyph-name="y_t.dlig" horiz-adv-x="861" 
d="M587 147v511h141v-144h117v-119h-117v-225c0 -36 14 -51 50 -51h73v-119h-117c-98 0 -147 49 -147 147zM-1 514h150l125 -369l122 369h151l-228 -587c-32 -85 -58 -127 -138 -127h-137v119h78c36 0 48 9 62 44l13 34z" />
    <glyph glyph-name="ordfeminine" unicode="&#xaa;" horiz-adv-x="424" 
d="M47 471c0 66 53 104 153 104h59v15c0 28 -21 46 -57 46c-29 0 -49 -16 -52 -39h-96c5 70 65 109 152 109c93 0 148 -41 148 -121v-107c0 -17 7 -22 22 -22h9v-72h-46c-45 0 -63 21 -63 50v5c-20 -38 -54 -59 -107 -59c-69 0 -122 31 -122 91zM259 515v3h-62
c-33 0 -53 -16 -53 -40c0 -21 17 -33 45 -33c43 0 70 30 70 70zM45 320h340v-79h-340v79z" />
    <glyph glyph-name="ordmasculine" unicode="&#xba;" horiz-adv-x="425" 
d="M381 543c0 -98 -66 -163 -169 -163c-102 0 -168 65 -168 163s66 163 168 163c103 0 169 -65 169 -163zM143 543c0 -52 26 -87 69 -87s71 35 71 87s-27 87 -71 87c-43 0 -69 -35 -69 -87zM45 320h336v-79h-336v79z" />
    <glyph glyph-name="uni0394" unicode="&#x394;" horiz-adv-x="704" 
d="M26 0v119l235 581h183l235 -581v-119h-653zM184 135h327l-164 414z" />
    <glyph glyph-name="uni03A9" unicode="&#x3a9;" horiz-adv-x="731" 
d="M420 0v186c94 60 121 125 121 213c0 106 -75 181 -177 181c-101 0 -174 -75 -174 -181c0 -88 26 -153 121 -214v-185h-263v129h159v19c-127 44 -170 139 -170 259c0 189 137 299 327 299c194 0 331 -110 331 -298c0 -122 -49 -220 -171 -260v-19h160v-129h-264z" />
    <glyph glyph-name="uni03BC" unicode="&#x3bc;" horiz-adv-x="593" 
d="M190 20v-220h-141v714h141v-259c0 -93 32 -144 104 -144c67 0 109 56 109 153v250h141v-514h-126l-11 67c-32 -43 -74 -73 -140 -73c-32 0 -63 13 -77 26z" />
    <glyph glyph-name="pi" unicode="&#x3c0;" horiz-adv-x="622" 
d="M610 514v-120h-66v-394h-141v394h-184v-394h-141v394h-66v120h598z" />
    <glyph glyph-name="uni2780" unicode="&#x2780;" horiz-adv-x="790" 
d="M395 706c210 0 364 -148 364 -356s-154 -356 -364 -356s-363 148 -363 356s153 356 363 356zM395 619c-152 0 -262 -113 -262 -269s110 -269 262 -269c153 0 262 113 262 269s-109 269 -262 269zM358 532h91v-363l-93 -1v216c-6 -2 -12 -3 -19 -3h-62v85h57
c17 0 26 17 26 36v30z" />
    <glyph glyph-name="uni2780.ss09" horiz-adv-x="790" 
d="M395 706c210 0 364 -148 364 -356s-154 -356 -364 -356s-363 148 -363 356s153 356 363 356zM395 619c-152 0 -262 -113 -262 -269s110 -269 262 -269c153 0 262 113 262 269s-109 269 -262 269zM450 255h75v-87h-250v86h81v130c-5 -2 -11 -3 -19 -3h-62v85h57
c17 0 26 17 26 36v30h92v-277z" />
    <glyph glyph-name="uni2781" unicode="&#x2781;" horiz-adv-x="790" 
d="M395 706c210 0 364 -148 364 -356s-154 -356 -364 -356s-363 148 -363 356s153 356 363 356zM395 619c-152 0 -262 -113 -262 -269s110 -269 262 -269c153 0 262 113 262 269s-109 269 -262 269zM246 393v7c0 84 63 138 143 138c87 0 147 -49 147 -123
c0 -54 -33 -84 -67 -108l-74 -53h145v-86h-290v81l146 101c22 16 41 35 41 63c0 25 -20 41 -47 41c-30 0 -50 -19 -50 -58v-3h-94z" />
    <glyph glyph-name="uni2782" unicode="&#x2782;" horiz-adv-x="790" 
d="M395 706c210 0 364 -148 364 -356s-154 -356 -364 -356s-363 148 -363 356s153 356 363 356zM395 619c-152 0 -262 -113 -262 -269s110 -269 262 -269c153 0 262 113 262 269s-109 269 -262 269zM250 415c2 77 56 123 145 123c88 0 139 -43 139 -101
c0 -43 -29 -68 -61 -78c44 -9 71 -39 71 -83c0 -70 -57 -114 -154 -114c-98 0 -150 46 -151 130h96c2 -30 19 -48 54 -48c29 0 52 14 52 39c0 24 -20 39 -56 39h-20v63h22c29 0 50 14 50 35c0 22 -17 36 -44 36c-29 0 -47 -15 -49 -41h-94z" />
    <glyph glyph-name="uni2783" unicode="&#x2783;" horiz-adv-x="790" 
d="M395 706c210 0 364 -148 364 -356s-154 -356 -364 -356s-363 148 -363 356s153 356 363 356zM395 619c-152 0 -262 -113 -262 -269s110 -269 262 -269c153 0 262 113 262 269s-109 269 -262 269zM368 532h118v-201h54v-83h-54v-80h-93v80h-172v83zM393 441l-81 -110h81
v110z" />
    <glyph glyph-name="uni2783.ss10" horiz-adv-x="790" 
d="M395 706c210 0 364 -148 364 -356s-154 -356 -364 -356s-363 148 -363 356s153 356 363 356zM395 619c-152 0 -262 -113 -262 -269s110 -269 262 -269c153 0 262 113 262 269s-109 269 -262 269zM377 532h118v-364h-93v80h-172v83zM402 441l-81 -110h81v110z" />
    <glyph glyph-name="uni2784" unicode="&#x2784;" horiz-adv-x="790" 
d="M395 706c210 0 364 -148 364 -356s-154 -356 -364 -356s-363 148 -363 356s153 356 363 356zM395 619c-152 0 -262 -113 -262 -269s110 -269 262 -269c153 0 262 113 262 269s-109 269 -262 269zM515 532v-81h-170l-4 -63c17 16 42 26 71 26c73 0 122 -49 122 -122
c0 -78 -58 -130 -141 -130c-78 0 -132 47 -138 117h93c4 -20 22 -33 46 -33c25 0 44 18 44 46s-19 46 -45 46c-20 1 -35 -10 -43 -25h-90l10 219h245z" />
    <glyph glyph-name="uni2785" unicode="&#x2785;" horiz-adv-x="790" 
d="M395 706c210 0 364 -148 364 -356s-154 -356 -364 -356s-363 148 -363 356s153 356 363 356zM395 619c-152 0 -262 -113 -262 -269s110 -269 262 -269c153 0 262 113 262 269s-109 269 -262 269zM238 344c0 118 64 194 160 194c68 0 125 -41 136 -112h-91
c-5 24 -24 40 -51 40c-42 0 -67 -43 -67 -92v-17c12 27 38 49 83 49c78 0 129 -48 129 -121c0 -74 -57 -123 -143 -123c-98 0 -156 73 -156 182zM444 285c0 29 -20 49 -50 49s-50 -20 -50 -49s20 -48 50 -48s50 19 50 48z" />
    <glyph glyph-name="uni2786" unicode="&#x2786;" horiz-adv-x="790" 
d="M395 706c210 0 364 -148 364 -356s-154 -356 -364 -356s-363 148 -363 356s153 356 363 356zM395 619c-152 0 -262 -113 -262 -269s110 -269 262 -269c153 0 262 113 262 269s-109 269 -262 269zM262 533h272v-76l-138 -289h-105l139 283h-168v82z" />
    <glyph glyph-name="uni2786.ss09" horiz-adv-x="790" 
d="M395 706c210 0 364 -148 364 -356s-154 -356 -364 -356s-363 148 -363 356s153 356 363 356zM395 619c-152 0 -262 -113 -262 -269s110 -269 262 -269c153 0 262 113 262 269s-109 269 -262 269zM541 533v-76l-138 -289h-105l139 283h-95v-49h-85v131h284z" />
    <glyph glyph-name="uni2787" unicode="&#x2787;" horiz-adv-x="790" 
d="M395 706c210 0 364 -148 364 -356s-154 -356 -364 -356s-363 148 -363 356s153 356 363 356zM395 619c-152 0 -262 -113 -262 -269s110 -269 262 -269c153 0 262 113 262 269s-109 269 -262 269zM242 270c0 42 23 74 72 89c-38 16 -60 40 -60 82c0 56 53 97 141 97
s142 -41 142 -97c0 -44 -24 -66 -60 -82c48 -15 71 -47 71 -89c0 -63 -56 -108 -153 -108c-96 0 -153 45 -153 108zM445 429c0 24 -21 40 -50 40c-28 0 -49 -16 -49 -40s21 -40 49 -40c30 0 50 16 50 40zM451 278c0 26 -23 44 -56 44c-32 0 -56 -18 -56 -44
c0 -24 24 -43 56 -43c33 0 56 19 56 43z" />
    <glyph glyph-name="uni2788" unicode="&#x2788;" horiz-adv-x="790" 
d="M395 706c210 0 364 -148 364 -356s-154 -356 -364 -356s-363 148 -363 356s153 356 363 356zM395 619c-152 0 -262 -113 -262 -269s110 -269 262 -269c153 0 262 113 262 269s-109 269 -262 269zM551 356c0 -118 -64 -194 -160 -194c-68 0 -125 41 -136 112h91
c5 -24 24 -40 51 -40c42 0 67 39 67 92v17c-13 -28 -38 -49 -84 -49c-77 0 -128 48 -128 121c0 74 57 123 143 123c98 0 156 -73 156 -182zM345 415c0 -29 20 -49 50 -49s50 20 50 49s-20 48 -50 48s-50 -19 -50 -48z" />
    <glyph glyph-name="uni278A" unicode="&#x278a;" horiz-adv-x="788" 
d="M394 706c-209 0 -362 -148 -362 -356s153 -356 362 -356c210 0 363 148 363 356s-153 356 -363 356zM357 532h91v-363l-93 -1v216c-6 -2 -12 -3 -19 -3h-62v85h57c17 0 26 17 26 36v30z" />
    <glyph glyph-name="uni278A.ss09" horiz-adv-x="788" 
d="M394 706c-209 0 -362 -148 -362 -356s153 -356 362 -356c210 0 363 148 363 356s-153 356 -363 356zM449 255h75v-87h-250v86h81v130c-5 -2 -11 -3 -19 -3h-62v85h57c17 0 26 17 26 36v30h92v-277z" />
    <glyph glyph-name="uni278B" unicode="&#x278b;" horiz-adv-x="788" 
d="M394 706c-209 0 -362 -148 -362 -356s153 -356 362 -356c210 0 363 148 363 356s-153 356 -363 356zM245 393v7c0 84 63 138 143 138c87 0 147 -49 147 -123c0 -54 -33 -84 -67 -108l-74 -53h145v-86h-290v81l146 101c22 16 41 35 41 63c0 25 -20 41 -47 41
c-30 0 -50 -19 -50 -58v-3h-94z" />
    <glyph glyph-name="uni278C" unicode="&#x278c;" horiz-adv-x="788" 
d="M394 706c-209 0 -362 -148 -362 -356s153 -356 362 -356c210 0 363 148 363 356s-153 356 -363 356zM249 415c2 77 56 123 145 123c88 0 139 -43 139 -101c0 -43 -29 -68 -61 -78c44 -9 71 -39 71 -83c0 -70 -57 -114 -154 -114c-98 0 -150 46 -151 130h96
c2 -30 19 -48 54 -48c29 0 52 14 52 39c0 24 -20 39 -56 39h-20v63h22c29 0 50 14 50 35c0 22 -17 36 -44 36c-29 0 -47 -15 -49 -41h-94z" />
    <glyph glyph-name="uni278D" unicode="&#x278d;" horiz-adv-x="788" 
d="M394 706c-209 0 -362 -148 -362 -356s153 -356 362 -356c210 0 363 148 363 356s-153 356 -363 356zM367 532h118v-201h54v-83h-54v-80h-93v80h-172v83zM392 441l-81 -110h81v110z" />
    <glyph glyph-name="uni278D.ss10" horiz-adv-x="788" 
d="M394 706c-209 0 -362 -148 -362 -356s153 -356 362 -356c210 0 363 148 363 356s-153 356 -363 356zM376 532h118v-364h-93v80h-172v83zM401 441l-81 -110h81v110z" />
    <glyph glyph-name="uni278E" unicode="&#x278e;" horiz-adv-x="788" 
d="M394 706c-209 0 -362 -148 -362 -356s153 -356 362 -356c210 0 363 148 363 356s-153 356 -363 356zM514 532v-81h-170l-4 -63c17 16 42 26 71 26c73 0 122 -49 122 -122c0 -78 -58 -130 -141 -130c-78 0 -132 47 -138 117h93c4 -20 22 -33 46 -33c25 0 44 18 44 46
s-19 46 -45 46c-20 1 -35 -10 -43 -25h-90l10 219h245z" />
    <glyph glyph-name="uni278F" unicode="&#x278f;" horiz-adv-x="788" 
d="M394 706c-209 0 -362 -148 -362 -356s153 -356 362 -356c210 0 363 148 363 356s-153 356 -363 356zM237 344c0 118 64 194 160 194c68 0 125 -41 136 -112h-91c-5 24 -24 40 -51 40c-42 0 -67 -43 -67 -92v-17c12 27 38 49 83 49c78 0 129 -48 129 -121
c0 -74 -57 -123 -143 -123c-98 0 -156 73 -156 182zM443 285c0 29 -20 49 -50 49s-50 -20 -50 -49s20 -48 50 -48s50 19 50 48z" />
    <glyph glyph-name="uni2790" unicode="&#x2790;" horiz-adv-x="788" 
d="M394 706c-209 0 -362 -148 -362 -356s153 -356 362 -356c210 0 363 148 363 356s-153 356 -363 356zM261 533h272v-76l-138 -289h-105l139 283h-168v82z" />
    <glyph glyph-name="uni2790.ss09" horiz-adv-x="788" 
d="M394 706c-209 0 -362 -148 -362 -356s153 -356 362 -356c210 0 363 148 363 356s-153 356 -363 356zM540 533v-76l-138 -289h-105l139 283h-95v-49h-85v131h284z" />
    <glyph glyph-name="uni2791" unicode="&#x2791;" horiz-adv-x="788" 
d="M394 706c-209 0 -362 -148 -362 -356s153 -356 362 -356c210 0 363 148 363 356s-153 356 -363 356zM241 270c0 42 23 74 72 89c-38 16 -60 40 -60 82c0 56 53 97 141 97s142 -41 142 -97c0 -44 -24 -66 -60 -82c48 -15 71 -47 71 -89c0 -63 -56 -108 -153 -108
c-96 0 -153 45 -153 108zM444 429c0 24 -21 40 -50 40c-28 0 -49 -16 -49 -40s21 -40 49 -40c30 0 50 16 50 40zM450 278c0 26 -23 44 -56 44c-32 0 -56 -18 -56 -44c0 -24 24 -43 56 -43c33 0 56 19 56 43z" />
    <glyph glyph-name="uni2792" unicode="&#x2792;" horiz-adv-x="788" 
d="M394 706c-209 0 -362 -148 -362 -356s153 -356 362 -356c210 0 363 148 363 356s-153 356 -363 356zM550 356c0 -118 -64 -194 -160 -194c-68 0 -125 41 -136 112h91c5 -24 24 -40 51 -40c42 0 67 39 67 92v17c-13 -28 -38 -49 -84 -49c-77 0 -128 48 -128 121
c0 74 57 123 143 123c98 0 156 -73 156 -182zM344 415c0 -29 20 -49 50 -49s50 20 50 49s-20 48 -50 48s-50 -19 -50 -48z" />
    <glyph glyph-name="zero" unicode="0" horiz-adv-x="646" 
d="M35 334v32c0 209 119 340 288 340c170 0 289 -131 289 -340v-32c0 -213 -119 -340 -289 -340c-169 0 -288 127 -288 340zM468 361c0 144 -59 223 -145 223c-85 0 -144 -79 -144 -223v-22c0 -145 59 -223 144 -223c86 0 145 78 145 223v22z" />
    <glyph glyph-name="zero.osf" horiz-adv-x="621" 
d="M30 257c0 153 117 263 281 263c163 0 280 -110 280 -263c0 -154 -117 -263 -280 -263c-164 0 -281 109 -281 263zM447 257c0 83 -57 144 -136 144c-80 0 -137 -61 -137 -144s57 -145 137 -145c79 0 136 62 136 145z" />
    <glyph glyph-name="zero.osf.zero" horiz-adv-x="621" 
d="M311 520c163 0 280 -110 280 -263c0 -154 -117 -263 -280 -263c-164 0 -281 109 -281 263c0 153 117 263 281 263zM311 405c-82 0 -140 -63 -140 -148c0 -27 6 -51 16 -73l196 202c-21 12 -45 19 -72 19zM311 109c81 0 139 63 139 148c0 27 -6 52 -17 73l-194 -202
c20 -12 45 -19 72 -19z" />
    <glyph glyph-name="zero.tf" 
d="M28 334v32c0 199 103 340 272 340s272 -141 272 -340v-32c0 -199 -103 -340 -272 -340s-272 141 -272 340zM428 339v22c0 133 -43 226 -128 226s-128 -93 -128 -226v-22c0 -132 43 -225 128 -225s128 93 128 225z" />
    <glyph glyph-name="zero.tf.zero" 
d="M300 706c169 0 272 -141 272 -340v-32c0 -199 -103 -340 -272 -340s-272 141 -272 340v32c0 199 103 340 272 340zM169 361v-22c0 -23 1 -44 4 -65l232 241c-22 49 -57 78 -105 78c-87 0 -131 -96 -131 -232zM431 339v22c0 22 -1 42 -3 62l-231 -241
c22 -46 56 -74 103 -74c87 0 131 96 131 231z" />
    <glyph glyph-name="zero.tosf" 
d="M28 257c0 153 113 263 272 263s272 -110 272 -263s-113 -263 -272 -263s-272 110 -272 263zM429 257c0 83 -53 144 -129 144c-75 0 -129 -61 -129 -144c0 -84 54 -145 129 -145c76 0 129 61 129 145z" />
    <glyph glyph-name="zero.tosf.zero" 
d="M300 520c159 0 272 -110 272 -263s-113 -263 -272 -263s-272 110 -272 263s113 263 272 263zM300 404c-76 0 -132 -62 -132 -147c0 -25 5 -48 13 -68l189 195c-20 13 -43 20 -70 20zM300 109c77 0 132 62 132 148c0 25 -5 48 -14 68l-188 -195c20 -14 44 -21 70 -21z" />
    <glyph glyph-name="zero.zero" horiz-adv-x="646" 
d="M323 706c170 0 289 -131 289 -340v-32c0 -213 -119 -340 -289 -340c-169 0 -288 127 -288 340v32c0 209 119 340 288 340zM176 361v-22c0 -29 2 -55 7 -78l251 261c-26 43 -65 66 -111 66c-87 0 -147 -80 -147 -227zM470 339v22c0 29 -2 55 -7 79l-251 -263
c26 -43 65 -65 111 -65c87 0 147 80 147 227z" />
    <glyph glyph-name="one" unicode="1" horiz-adv-x="369" 
d="M166 700h141v-700h-144v447c-10 -4 -23 -5 -38 -5h-117v119h105c36 0 53 33 53 71v68z" />
    <glyph glyph-name="one.osf" horiz-adv-x="339" 
d="M8 408h88c36 0 54 31 54 69v37h138v-514h-142v295c-16 -3 -32 -4 -51 -4h-87v117z" />
    <glyph glyph-name="one.osf.ss09" 
d="M397 117h167v-117h-478v117h170v180c-16 -3 -33 -4 -51 -4h-111v114h112c36 0 53 31 53 68v39h138v-397z" />
    <glyph glyph-name="one.ss09" horiz-adv-x="572" 
d="M358 121l166 1v-122h-478v120l168 1v325c-10 -3 -22 -4 -34 -4h-121v119h104c36 0 54 33 54 71v68h141v-579z" />
    <glyph glyph-name="one.tf" 
d="M385 121l166 1v-122h-477v120l168 1v325c-11 -3 -22 -4 -35 -4h-121v119h105c36 0 53 33 53 71v68h141v-579z" />
    <glyph glyph-name="one.tosf" 
d="M397 117h167v-117h-478v117h170v180c-16 -3 -33 -4 -51 -4h-111v114h112c36 0 53 31 53 68v39h138v-397z" />
    <glyph glyph-name="two" unicode="2" horiz-adv-x="576" 
d="M31 111l265 220c61 50 99 92 99 149c0 69 -45 105 -112 105c-64 0 -110 -46 -110 -122v-11h-145v20c0 132 100 234 255 234c168 0 258 -89 258 -220c0 -103 -57 -166 -145 -237l-157 -128h305v-121h-513v111z" />
    <glyph glyph-name="two.osf" horiz-adv-x="524" 
d="M241 113h254v-113h-465v106l220 118c61 32 98 61 98 106c0 46 -35 75 -90 75c-54 0 -94 -36 -94 -92v-12h-140v12c0 114 88 207 238 207c138 0 230 -76 230 -186c0 -65 -46 -120 -118 -155z" />
    <glyph glyph-name="two.tf" horiz-adv-x="588" 
d="M37 111l266 220c60 50 98 92 98 149c0 69 -45 105 -112 105c-63 0 -109 -46 -109 -122v-11h-145v20c0 132 99 234 254 234c168 0 258 -89 258 -220c0 -103 -57 -166 -144 -237l-157 -128h305v-121h-514v111z" />
    <glyph glyph-name="two.tosf" 
d="M286 113h254v-113h-465v106l220 118c61 32 98 61 98 106c0 46 -35 75 -90 75s-94 -36 -94 -92v-12h-140v12c0 114 88 207 238 207c138 0 230 -76 230 -186c0 -65 -46 -120 -118 -155z" />
    <glyph glyph-name="three" unicode="3" horiz-adv-x="610" 
d="M422 364c81 -19 154 -68 154 -169c0 -120 -106 -201 -273 -201c-166 0 -271 89 -271 239h143c2 -79 58 -126 136 -126c66 0 118 37 118 100c0 55 -44 90 -128 90h-69v115h61c80 0 121 39 121 94c0 57 -45 87 -105 87c-67 0 -116 -39 -118 -104h-141
c2 136 101 217 253 217c163 0 256 -75 256 -187c0 -87 -59 -136 -137 -155z" />
    <glyph glyph-name="three.osf" horiz-adv-x="578" 
d="M395 176c85 -19 153 -64 153 -161c0 -121 -102 -201 -262 -201c-163 0 -265 89 -266 240h143c1 -83 51 -129 123 -129c65 0 117 39 117 98c0 56 -43 90 -119 90h-61v113h54c71 0 112 38 112 90c0 61 -45 92 -105 92c-62 0 -107 -42 -109 -109h-140c2 136 100 221 251 221
c157 0 247 -76 247 -188c0 -86 -58 -134 -138 -156z" />
    <glyph glyph-name="three.tf" horiz-adv-x="610" 
d="M416 364c80 -19 153 -68 153 -169c0 -120 -106 -201 -273 -201c-166 0 -271 89 -271 239h144c1 -79 57 -126 136 -126c65 0 117 37 117 100c0 55 -43 90 -127 90h-70v115h61c80 0 121 39 121 94c0 57 -44 87 -105 87c-67 0 -116 -39 -118 -104h-141
c2 136 101 217 253 217c163 0 256 -75 256 -187c0 -87 -59 -136 -136 -155z" />
    <glyph glyph-name="three.tosf" 
d="M416 179c81 -19 154 -67 154 -169c0 -121 -105 -201 -272 -201c-166 0 -272 88 -272 238h144c2 -78 57 -125 136 -125c66 0 118 37 118 100c0 55 -44 90 -128 90h-70v115h62c79 0 121 38 121 94s-45 86 -106 86c-66 0 -116 -38 -118 -103h-140c1 136 101 217 253 217
c162 0 256 -75 256 -187c0 -88 -60 -136 -138 -155z" />
    <glyph glyph-name="four" unicode="4" horiz-adv-x="626" 
d="M21 269l309 431h178v-430h97v-120h-97v-150h-141v150h-346v119zM158 270h209v290z" />
    <glyph glyph-name="four.osf" horiz-adv-x="593" 
d="M316 514h176v-395h88v-119h-88v-180h-136v180h-338v119zM356 381l-195 -262h195v262z" />
    <glyph glyph-name="four.osf.ss10" horiz-adv-x="551" 
d="M323 514h176v-694h-136v180h-345v119zM363 382l-199 -263h199v263z" />
    <glyph glyph-name="four.ss10" horiz-adv-x="585" 
d="M337 700h185v-700h-144v151h-357v122zM378 562l-217 -289h217v289z" />
    <glyph glyph-name="four.tf" horiz-adv-x="623" 
d="M7 269l309 431h177v-430h98v-120h-98v-150h-141v150h-345v119zM143 270h209v290z" />
    <glyph glyph-name="four.tf.ss10" 
d="M345 700h185v-700h-144v151h-357v122zM386 562l-217 -289h217v289z" />
    <glyph glyph-name="four.tosf" 
d="M316 514h176v-395h88v-119h-88v-180h-136v180h-338v119zM356 381l-195 -262h195v262z" />
    <glyph glyph-name="four.tosf.ss10" 
d="M345 514h185v-700h-144v150h-357v123zM386 376l-217 -289h217v289z" />
    <glyph glyph-name="five" unicode="5" horiz-adv-x="597" 
d="M336 477c132 0 234 -97 234 -240c0 -161 -120 -243 -265 -243c-163 0 -262 103 -268 231h143c8 -63 56 -113 125 -113c61 0 120 41 120 125c0 73 -47 126 -120 126c-37 0 -97 -14 -118 -73h-139l20 410h459v-121h-328l-8 -156c36 34 85 54 145 54z" />
    <glyph glyph-name="five.osf" horiz-adv-x="588" 
d="M331 286c131 0 227 -100 227 -237c0 -155 -117 -235 -258 -235c-156 0 -252 97 -258 220h142c7 -58 50 -105 116 -105s114 49 114 121c0 69 -45 121 -114 121c-50 0 -87 -25 -109 -73l-140 1l20 415h445v-121h-322l-8 -164c39 40 85 57 145 57z" />
    <glyph glyph-name="five.tf" horiz-adv-x="601" 
d="M335 477c133 0 235 -97 235 -240c0 -161 -121 -243 -265 -243c-163 0 -262 103 -268 231h143c7 -63 56 -113 125 -113c60 0 120 41 120 125c0 73 -47 126 -120 126c-37 0 -97 -14 -118 -73h-139l19 410h460v-121h-328l-8 -156c36 34 85 54 144 54z" />
    <glyph glyph-name="five.tosf" 
d="M336 286c131 0 228 -99 228 -237c0 -154 -118 -235 -259 -235c-156 0 -252 98 -258 220h142c7 -57 50 -104 116 -104s114 48 114 121c0 69 -45 120 -114 120c-50 0 -87 -24 -109 -72h-140l20 415h445v-121h-322l-8 -164c39 40 85 57 145 57z" />
    <glyph glyph-name="six" unicode="6" horiz-adv-x="617" 
d="M99 104c-41 59 -64 142 -64 239c0 234 112 363 288 363c131 0 234 -75 250 -203h-142c-13 56 -56 87 -119 87c-90 0 -141 -72 -141 -201v-17c3 5 5 9 9 15c33 50 93 82 165 82c141 0 237 -96 237 -237c0 -143 -105 -238 -261 -238c-98 0 -173 40 -222 110zM439 232
c0 72 -46 125 -117 125s-120 -52 -120 -125s47 -125 118 -125s119 53 119 125z" />
    <glyph glyph-name="six.osf" horiz-adv-x="598" 
d="M315 694c143 0 232 -74 248 -201h-141c-16 52 -52 86 -113 86c-94 0 -142 -72 -142 -191v-19c3 5 7 11 10 16c38 50 93 70 160 70c139 0 230 -94 230 -230c0 -139 -112 -231 -260 -231c-91 0 -160 36 -209 101c-44 57 -67 148 -67 245c0 224 104 354 284 354zM311 344
c-68 0 -117 -50 -115 -119c1 -69 46 -119 114 -119s113 50 113 118c0 69 -44 120 -112 120z" />
    <glyph glyph-name="six.tf" horiz-adv-x="616" 
d="M92 104c-41 59 -65 142 -65 239c0 234 112 363 289 363c130 0 234 -75 250 -203h-142c-13 56 -57 87 -119 87c-90 0 -142 -72 -142 -201c0 -5 0 -9 1 -17c3 5 5 9 9 15c32 50 93 82 164 82c142 0 238 -96 238 -237c0 -143 -105 -238 -261 -238c-98 0 -173 40 -222 110z
M431 232c0 72 -45 125 -116 125s-121 -52 -121 -125s48 -125 119 -125s118 53 118 125z" />
    <glyph glyph-name="six.tosf" 
d="M316 694c143 0 232 -74 248 -201h-141c-16 52 -52 86 -113 86c-94 0 -142 -72 -142 -191c0 -7 0 -12 1 -19c2 5 6 11 9 16c38 50 93 70 160 70c139 0 230 -94 230 -230c0 -139 -112 -231 -260 -231c-91 0 -160 36 -209 101c-44 57 -67 148 -67 245c0 224 104 354 284 354
zM312 344c-68 0 -116 -50 -115 -119s46 -119 114 -119s113 50 113 118c0 69 -44 120 -112 120z" />
    <glyph glyph-name="seven" unicode="7" horiz-adv-x="546" 
d="M11 700h513v-93l-308 -607h-156l306 578h-355v122z" />
    <glyph glyph-name="seven.osf" horiz-adv-x="536" 
d="M15 514h499v-114l-295 -580h-156l294 574h-342v120z" />
    <glyph glyph-name="seven.osf.ss09" horiz-adv-x="556" 
d="M29 514h505v-114l-294 -580h-156l293 574h-225v-106h-123v226z" />
    <glyph glyph-name="seven.ss09" horiz-adv-x="554" 
d="M533 700v-93l-296 -607h-149l293 578h-226v-104h-121v226h499z" />
    <glyph glyph-name="seven.tf" horiz-adv-x="570" 
d="M44 700h513v-93l-308 -607h-155l305 578h-355v122z" />
    <glyph glyph-name="seven.tf.ss09" horiz-adv-x="570" 
d="M558 700v-93l-295 -607h-150l293 578h-225v-104h-121v226h498z" />
    <glyph glyph-name="seven.tosf" 
d="M45 514h498v-114l-294 -580h-156l293 574h-341v120z" />
    <glyph glyph-name="seven.tosf.ss09" horiz-adv-x="577" 
d="M42 514h505v-114l-294 -580h-156l293 574h-226v-106h-122v226z" />
    <glyph glyph-name="eight" unicode="8" horiz-adv-x="608" 
d="M428 365c76 -16 145 -71 145 -175c0 -115 -96 -196 -269 -196c-174 0 -269 81 -269 196c0 104 69 159 147 174c-66 18 -127 69 -127 157c0 110 92 185 249 185s249 -75 249 -185c0 -82 -59 -138 -125 -156zM304 604c-63 0 -108 -37 -108 -90c0 -54 45 -92 108 -92
s108 38 108 92c0 53 -45 90 -108 90zM304 95c71 0 125 44 125 104c0 61 -54 107 -125 107s-126 -46 -126 -107c0 -60 55 -104 126 -104z" />
    <glyph glyph-name="eight.osf" horiz-adv-x="594" 
d="M422 360c73 -18 142 -68 142 -173c0 -113 -95 -193 -267 -193c-173 0 -267 80 -267 193c0 103 68 152 142 171c-63 19 -122 66 -122 154c0 108 92 182 247 182s247 -74 247 -182c0 -81 -59 -134 -122 -152zM297 597c-62 0 -105 -37 -105 -90c0 -54 43 -92 105 -92
s105 38 105 92c0 53 -43 90 -105 90zM297 94c71 0 123 44 123 105s-52 106 -123 106s-123 -45 -123 -106s52 -105 123 -105z" />
    <glyph glyph-name="eight.tf" horiz-adv-x="608" 
d="M427 365c76 -16 145 -71 145 -175c0 -115 -96 -196 -269 -196c-175 0 -270 81 -270 196c0 104 70 158 147 174c-66 18 -127 68 -127 157c0 110 93 185 250 185c156 0 249 -75 249 -185c0 -82 -59 -138 -125 -156zM303 604c-64 0 -108 -37 -108 -90c0 -54 44 -92 108 -92
c63 0 107 38 107 92c0 53 -44 90 -107 90zM303 95c71 0 125 44 125 104c0 61 -54 107 -125 107c-72 0 -126 -46 -126 -107c0 -60 54 -104 126 -104z" />
    <glyph glyph-name="eight.tosf" 
d="M425 359c74 -17 142 -68 142 -172c0 -113 -95 -193 -267 -193c-173 0 -267 80 -267 193c0 103 68 152 142 171c-63 19 -122 66 -122 154c0 108 92 182 247 182s247 -74 247 -182c0 -81 -59 -135 -122 -153zM300 597c-62 0 -105 -37 -105 -90c0 -54 43 -92 105 -92
s105 38 105 92c0 53 -43 90 -105 90zM300 94c71 0 123 44 123 105s-52 106 -123 106s-123 -45 -123 -106s52 -105 123 -105z" />
    <glyph glyph-name="nine" unicode="9" horiz-adv-x="617" 
d="M294 -6c-144 0 -237 74 -253 203h141c13 -55 55 -87 119 -87c94 0 143 75 143 201v18c-5 -7 -9 -13 -16 -22c-33 -47 -89 -73 -156 -73c-141 0 -237 91 -237 234c0 139 105 238 261 238c94 0 167 -37 216 -102c45 -60 70 -145 70 -246c0 -232 -103 -364 -288 -364z
M295 345c71 0 120 52 120 125c0 72 -47 123 -118 123s-119 -52 -119 -123c0 -72 46 -125 117 -125z" />
    <glyph glyph-name="nine.osf" horiz-adv-x="598" 
d="M500 417c44 -57 67 -147 67 -245c0 -226 -104 -358 -284 -358c-143 0 -232 74 -248 201h141c16 -52 52 -86 113 -86c95 0 142 75 142 197v18c-4 -6 -8 -13 -13 -20c-36 -48 -95 -66 -157 -66c-139 0 -230 94 -230 229c0 139 112 232 260 232c91 0 160 -37 209 -102z
M174 288c0 -69 44 -119 112 -119c69 0 116 50 116 118c0 69 -46 119 -114 119s-114 -50 -114 -118z" />
    <glyph glyph-name="nine.tf" horiz-adv-x="616" 
d="M287 -6c-144 0 -237 74 -253 203h141c13 -55 55 -87 120 -87c93 0 142 75 142 201v18c-5 -7 -9 -13 -16 -22c-33 -47 -89 -73 -156 -73c-141 0 -237 91 -237 234c0 139 105 238 261 238c94 0 167 -37 216 -102c45 -60 70 -145 70 -246c0 -232 -102 -364 -288 -364z
M288 345c71 0 120 52 120 125c0 72 -47 123 -118 123s-118 -52 -118 -123c0 -72 45 -125 116 -125z" />
    <glyph glyph-name="nine.tosf" 
d="M501 417c44 -57 67 -147 67 -245c0 -226 -104 -358 -284 -358c-143 0 -232 74 -248 201h141c16 -52 52 -86 113 -86c95 0 143 75 143 197c0 7 -1 11 -1 18c-4 -6 -8 -13 -13 -20c-36 -48 -95 -66 -157 -66c-139 0 -230 94 -230 229c0 139 112 232 260 232
c91 0 160 -37 209 -102zM176 288c0 -69 44 -119 112 -119s115 50 115 118c0 69 -46 119 -114 119s-113 -50 -113 -118z" />
    <glyph glyph-name="u1F10C" unicode="&#x1f10c;" horiz-adv-x="788" 
d="M394 706c-209 0 -362 -148 -362 -356s153 -356 362 -356c210 0 363 148 363 356s-153 356 -363 356zM238 350c0 116 58 188 156 188s157 -72 157 -188s-59 -188 -157 -188s-156 72 -156 188zM454 350c0 64 -22 104 -60 104s-60 -40 -60 -104c0 -65 22 -104 60 -104
s60 39 60 104z" />
    <glyph glyph-name="u1F10C.zero" horiz-adv-x="788" 
d="M394 706c-209 0 -362 -148 -362 -356s153 -356 362 -356c210 0 363 148 363 356s-153 356 -363 356zM394 538c98 0 157 -72 157 -188s-59 -188 -157 -188s-156 72 -156 188s58 188 156 188zM394 456c-38 0 -62 -40 -62 -106c0 -13 1 -25 3 -37l101 119
c-10 16 -24 24 -42 24zM394 244c38 0 62 39 62 106c0 13 -1 25 -3 36l-101 -119c11 -15 25 -23 42 -23z" />
    <glyph glyph-name="u1F10B" unicode="&#x1f10b;" horiz-adv-x="790" 
d="M395 706c210 0 364 -148 364 -356s-154 -356 -364 -356s-363 148 -363 356s153 356 363 356zM395 619c-152 0 -262 -113 -262 -269s110 -269 262 -269c153 0 262 113 262 269s-109 269 -262 269zM239 350c0 116 58 188 156 188s157 -72 157 -188s-59 -188 -157 -188
s-156 72 -156 188zM455 350c0 64 -22 104 -60 104s-60 -40 -60 -104c0 -65 22 -104 60 -104s60 39 60 104z" />
    <glyph glyph-name="u1F10B.zero" horiz-adv-x="790" 
d="M395 706c210 0 364 -148 364 -356s-154 -356 -364 -356s-363 148 -363 356s153 356 363 356zM395 619c-152 0 -262 -113 -262 -269s110 -269 262 -269c153 0 262 113 262 269s-109 269 -262 269zM395 538c98 0 157 -72 157 -188s-59 -188 -157 -188s-156 72 -156 188
s58 188 156 188zM395 456c-38 0 -62 -40 -62 -106c0 -13 1 -25 3 -37l101 119c-10 16 -24 24 -42 24zM395 244c38 0 62 39 62 106c0 13 -1 25 -3 36l-101 -119c11 -15 25 -23 42 -23z" />
    <glyph glyph-name="uni2080" unicode="&#x2080;" horiz-adv-x="348" 
d="M18 82c0 116 58 188 156 188s157 -72 157 -188s-59 -188 -157 -188s-156 72 -156 188zM234 82c0 64 -22 104 -60 104s-60 -40 -60 -104c0 -65 22 -104 60 -104s60 39 60 104z" />
    <glyph glyph-name="uni2080.zero" horiz-adv-x="348" 
d="M174 270c98 0 157 -72 157 -188s-59 -188 -157 -188s-156 72 -156 188s58 188 156 188zM174 188c-38 0 -62 -40 -62 -106c0 -13 1 -25 3 -37l101 119c-10 16 -24 24 -42 24zM174 -24c38 0 62 39 62 106c0 13 -1 25 -3 36l-101 -119c11 -15 25 -23 42 -23z" />
    <glyph glyph-name="uni2081" unicode="&#x2081;" horiz-adv-x="224" 
d="M87 264h91v-363l-93 -1v216c-6 -2 -12 -3 -19 -3h-62v85h57c17 0 26 17 26 36v30z" />
    <glyph glyph-name="uni2081.ss09" horiz-adv-x="250" 
d="M175 -13h75v-87h-250v86h81v130c-5 -2 -11 -3 -19 -3h-62v85h57c17 0 26 17 26 36v30h92v-277z" />
    <glyph glyph-name="uni2082" unicode="&#x2082;" horiz-adv-x="327" 
d="M16 125v7c0 84 63 138 143 138c87 0 147 -49 147 -123c0 -54 -33 -84 -67 -108l-74 -53h145v-86h-290v81l146 101c22 16 41 35 41 63c0 25 -20 41 -47 41c-30 0 -50 -19 -50 -58v-3h-94z" />
    <glyph glyph-name="uni2083" unicode="&#x2083;" horiz-adv-x="336" 
d="M25 147c2 77 56 123 145 123c88 0 139 -43 139 -101c0 -43 -29 -68 -61 -78c44 -9 71 -39 71 -83c0 -70 -57 -114 -154 -114c-98 0 -150 46 -151 130h96c2 -30 19 -48 54 -48c29 0 52 14 52 39c0 24 -20 39 -56 39h-20v63h22c29 0 50 14 50 35c0 22 -17 36 -44 36
c-29 0 -47 -15 -49 -41h-94z" />
    <glyph glyph-name="uni2084" unicode="&#x2084;" horiz-adv-x="353" 
d="M164 264h118v-201h54v-83h-54v-80h-93v80h-172v83zM189 173l-81 -110h81v110z" />
    <glyph glyph-name="uni2084.ss10" horiz-adv-x="328" 
d="M164 264h118v-364h-93v80h-172v83zM189 173l-81 -110h81v110z" />
    <glyph glyph-name="uni2085" unicode="&#x2085;" horiz-adv-x="318" 
d="M281 264v-81h-170l-4 -63c17 16 42 26 71 26c73 0 122 -49 122 -122c0 -78 -58 -130 -141 -130c-78 0 -132 47 -138 117h93c4 -20 22 -33 46 -33c25 0 44 18 44 46s-19 46 -45 46c-20 1 -35 -10 -43 -25h-90l10 219h245z" />
    <glyph glyph-name="uni2086" unicode="&#x2086;" horiz-adv-x="331" 
d="M16 76c0 118 64 194 160 194c68 0 125 -41 136 -112h-91c-5 24 -24 40 -51 40c-42 0 -67 -43 -67 -92v-17c12 27 38 49 83 49c78 0 129 -48 129 -121c0 -74 -57 -123 -143 -123c-98 0 -156 73 -156 182zM222 17c0 29 -20 49 -50 49s-50 -20 -50 -49s20 -48 50 -48
s50 19 50 48z" />
    <glyph glyph-name="uni2087" unicode="&#x2087;" horiz-adv-x="286" 
d="M3 265h272v-76l-138 -289h-105l139 283h-168v82z" />
    <glyph glyph-name="uni2087.ss09" horiz-adv-x="312" 
d="M301 265v-76l-138 -289h-105l139 283h-95v-49h-85v131h284z" />
    <glyph glyph-name="uni2088" unicode="&#x2088;" horiz-adv-x="339" 
d="M17 2c0 42 23 74 72 89c-38 16 -60 40 -60 82c0 56 53 97 141 97s142 -41 142 -97c0 -44 -24 -66 -60 -82c48 -15 71 -47 71 -89c0 -63 -56 -108 -153 -108c-96 0 -153 45 -153 108zM220 161c0 24 -21 40 -50 40c-28 0 -49 -16 -49 -40s21 -40 49 -40c30 0 50 16 50 40z
M226 10c0 26 -23 44 -56 44c-32 0 -56 -18 -56 -44c0 -24 24 -43 56 -43c33 0 56 19 56 43z" />
    <glyph glyph-name="uni2089" unicode="&#x2089;" horiz-adv-x="331" 
d="M315 88c0 -118 -64 -194 -160 -194c-68 0 -125 41 -136 112h91c5 -24 24 -40 51 -40c42 0 67 39 67 92v17c-13 -28 -38 -49 -84 -49c-77 0 -128 48 -128 121c0 74 57 123 143 123c98 0 156 -73 156 -182zM109 147c0 -29 20 -49 50 -49s50 20 50 49s-20 48 -50 48
s-50 -19 -50 -48z" />
    <glyph glyph-name="zero.dnom" horiz-adv-x="348" 
d="M18 182c0 116 58 188 156 188s157 -72 157 -188s-59 -188 -157 -188s-156 72 -156 188zM234 182c0 64 -22 104 -60 104s-60 -40 -60 -104c0 -65 22 -104 60 -104s60 39 60 104z" />
    <glyph glyph-name="zero.dnom.zero" horiz-adv-x="348" 
d="M174 370c98 0 157 -72 157 -188s-59 -188 -157 -188s-156 72 -156 188s58 188 156 188zM174 288c-38 0 -62 -40 -62 -106c0 -13 1 -25 3 -37l101 119c-10 16 -24 24 -42 24zM174 76c38 0 62 39 62 106c0 13 -1 25 -3 36l-101 -119c11 -15 25 -23 42 -23z" />
    <glyph glyph-name="one.dnom" horiz-adv-x="224" 
d="M87 364h91v-363l-93 -1v216c-6 -2 -12 -3 -19 -3h-62v85h57c17 0 26 17 26 36v30z" />
    <glyph glyph-name="one.dnom.ss09" horiz-adv-x="250" 
d="M175 87h75v-87h-250v86h81v130c-5 -2 -11 -3 -19 -3h-62v85h57c17 0 26 17 26 36v30h92v-277z" />
    <glyph glyph-name="two.dnom" horiz-adv-x="327" 
d="M16 225v7c0 84 63 138 143 138c87 0 147 -49 147 -123c0 -54 -33 -84 -67 -108l-74 -53h145v-86h-290v81l146 101c22 16 41 35 41 63c0 25 -20 41 -47 41c-30 0 -50 -19 -50 -58v-3h-94z" />
    <glyph glyph-name="three.dnom" horiz-adv-x="336" 
d="M25 247c2 77 56 123 145 123c88 0 139 -43 139 -101c0 -43 -29 -68 -61 -78c44 -9 71 -39 71 -83c0 -70 -57 -114 -154 -114c-98 0 -150 46 -151 130h96c2 -30 19 -48 54 -48c29 0 52 14 52 39c0 24 -20 39 -56 39h-20v63h22c29 0 50 14 50 35c0 22 -17 36 -44 36
c-29 0 -47 -15 -49 -41h-94z" />
    <glyph glyph-name="four.dnom" horiz-adv-x="353" 
d="M164 364h118v-201h54v-83h-54v-80h-93v80h-172v83zM189 273l-81 -110h81v110z" />
    <glyph glyph-name="four.dnom.ss10" horiz-adv-x="328" 
d="M164 364h118v-364h-93v80h-172v83zM189 273l-81 -110h81v110z" />
    <glyph glyph-name="five.dnom" horiz-adv-x="318" 
d="M281 364v-81h-170l-4 -63c17 16 42 26 71 26c73 0 122 -49 122 -122c0 -78 -58 -130 -141 -130c-78 0 -132 47 -138 117h93c4 -20 22 -33 46 -33c25 0 44 18 44 46s-19 46 -45 46c-20 1 -35 -10 -43 -25h-90l10 219h245z" />
    <glyph glyph-name="six.dnom" horiz-adv-x="331" 
d="M16 176c0 118 64 194 160 194c68 0 125 -41 136 -112h-91c-5 24 -24 40 -51 40c-42 0 -67 -43 -67 -92v-17c12 27 38 49 83 49c78 0 129 -48 129 -121c0 -74 -57 -123 -143 -123c-98 0 -156 73 -156 182zM222 117c0 29 -20 49 -50 49s-50 -20 -50 -49s20 -48 50 -48
s50 19 50 48z" />
    <glyph glyph-name="seven.dnom" horiz-adv-x="286" 
d="M3 365h272v-76l-138 -289h-105l139 283h-168v82z" />
    <glyph glyph-name="seven.dnom.ss09" horiz-adv-x="312" 
d="M301 365v-76l-138 -289h-105l139 283h-95v-49h-85v131h284z" />
    <glyph glyph-name="eight.dnom" horiz-adv-x="339" 
d="M17 102c0 42 23 74 72 89c-38 16 -60 40 -60 82c0 56 53 97 141 97s142 -41 142 -97c0 -44 -24 -66 -60 -82c48 -15 71 -47 71 -89c0 -63 -56 -108 -153 -108c-96 0 -153 45 -153 108zM220 261c0 24 -21 40 -50 40c-28 0 -49 -16 -49 -40s21 -40 49 -40c30 0 50 16 50 40
zM226 110c0 26 -23 44 -56 44c-32 0 -56 -18 -56 -44c0 -24 24 -43 56 -43c33 0 56 19 56 43z" />
    <glyph glyph-name="nine.dnom" horiz-adv-x="331" 
d="M315 188c0 -118 -64 -194 -160 -194c-68 0 -125 41 -136 112h91c5 -24 24 -40 51 -40c42 0 67 39 67 92v17c-13 -28 -38 -49 -84 -49c-77 0 -128 48 -128 121c0 74 57 123 143 123c98 0 156 -73 156 -182zM109 247c0 -29 20 -49 50 -49s50 20 50 49s-20 48 -50 48
s-50 -19 -50 -48z" />
    <glyph glyph-name="zero.numr" horiz-adv-x="348" 
d="M18 519c0 116 58 188 156 188s157 -72 157 -188s-59 -188 -157 -188s-156 72 -156 188zM234 519c0 64 -22 104 -60 104s-60 -40 -60 -104c0 -65 22 -104 60 -104s60 39 60 104z" />
    <glyph glyph-name="zero.numr.zero" horiz-adv-x="348" 
d="M174 707c98 0 157 -72 157 -188s-59 -188 -157 -188s-156 72 -156 188s58 188 156 188zM174 625c-38 0 -62 -40 -62 -106c0 -13 1 -25 3 -37l101 119c-10 16 -24 24 -42 24zM174 413c38 0 62 39 62 106c0 13 -1 25 -3 36l-101 -119c11 -15 25 -23 42 -23z" />
    <glyph glyph-name="one.numr" horiz-adv-x="224" 
d="M87 700h91v-363l-93 -1v216c-6 -2 -12 -3 -19 -3h-62v85h57c17 0 26 17 26 36v30z" />
    <glyph glyph-name="one.numr.ss09" horiz-adv-x="250" 
d="M175 423h75v-87h-250v86h81v130c-5 -2 -11 -3 -19 -3h-62v85h57c17 0 26 17 26 36v30h92v-277z" />
    <glyph glyph-name="two.numr" horiz-adv-x="327" 
d="M16 561v7c0 84 63 138 143 138c87 0 147 -49 147 -123c0 -54 -33 -84 -67 -108l-74 -53h145v-86h-290v81l146 101c22 16 41 35 41 63c0 25 -20 41 -47 41c-30 0 -50 -19 -50 -58v-3h-94z" />
    <glyph glyph-name="three.numr" horiz-adv-x="336" 
d="M25 584c2 77 56 123 145 123c88 0 139 -43 139 -101c0 -43 -29 -68 -61 -78c44 -9 71 -39 71 -83c0 -70 -57 -114 -154 -114c-98 0 -150 46 -151 130h96c2 -30 19 -48 54 -48c29 0 52 14 52 39c0 24 -20 39 -56 39h-20v63h22c29 0 50 14 50 35c0 22 -17 36 -44 36
c-29 0 -47 -15 -49 -41h-94z" />
    <glyph glyph-name="four.numr" horiz-adv-x="353" 
d="M164 700h118v-201h54v-83h-54v-80h-93v80h-172v83zM189 609l-81 -110h81v110z" />
    <glyph glyph-name="four.numr.ss10" horiz-adv-x="328" 
d="M164 700h118v-364h-93v80h-172v83zM189 609l-81 -110h81v110z" />
    <glyph glyph-name="five.numr" horiz-adv-x="318" 
d="M281 700v-81h-170l-4 -63c17 16 42 26 71 26c73 0 122 -49 122 -122c0 -78 -58 -130 -141 -130c-78 0 -132 47 -138 117h93c4 -20 22 -33 46 -33c25 0 44 18 44 46s-19 46 -45 46c-20 1 -35 -10 -43 -25h-90l10 219h245z" />
    <glyph glyph-name="six.numr" horiz-adv-x="331" 
d="M16 513c0 118 64 194 160 194c68 0 125 -41 136 -112h-91c-5 24 -24 40 -51 40c-42 0 -67 -43 -67 -92v-17c12 27 38 49 83 49c78 0 129 -48 129 -121c0 -74 -57 -123 -143 -123c-98 0 -156 73 -156 182zM222 454c0 29 -20 49 -50 49s-50 -20 -50 -49s20 -48 50 -48
s50 19 50 48z" />
    <glyph glyph-name="seven.numr" horiz-adv-x="286" 
d="M3 700h272v-76l-138 -289h-105l139 283h-168v82z" />
    <glyph glyph-name="seven.numr.ss09" horiz-adv-x="312" 
d="M301 700v-76l-138 -289h-105l139 283h-95v-49h-85v131h284z" />
    <glyph glyph-name="eight.numr" horiz-adv-x="339" 
d="M17 439c0 42 23 74 72 89c-38 16 -60 40 -60 82c0 56 53 97 141 97s142 -41 142 -97c0 -44 -24 -66 -60 -82c48 -15 71 -47 71 -89c0 -63 -56 -108 -153 -108c-96 0 -153 45 -153 108zM220 598c0 24 -21 40 -50 40c-28 0 -49 -16 -49 -40s21 -40 49 -40c30 0 50 16 50 40
zM226 447c0 26 -23 44 -56 44c-32 0 -56 -18 -56 -44c0 -24 24 -43 56 -43c33 0 56 19 56 43z" />
    <glyph glyph-name="nine.numr" horiz-adv-x="331" 
d="M315 525c0 -118 -64 -194 -160 -194c-68 0 -125 41 -136 112h91c5 -24 24 -40 51 -40c42 0 67 39 67 92v17c-13 -28 -38 -49 -84 -49c-77 0 -128 48 -128 121c0 74 57 123 143 123c98 0 156 -73 156 -182zM109 584c0 -29 20 -49 50 -49s50 20 50 49s-20 48 -50 48
s-50 -19 -50 -48z" />
    <glyph glyph-name="uni2070" unicode="&#x2070;" horiz-adv-x="348" 
d="M18 619c0 116 58 188 156 188s157 -72 157 -188s-59 -188 -157 -188s-156 72 -156 188zM234 619c0 64 -22 104 -60 104s-60 -40 -60 -104c0 -65 22 -104 60 -104s60 39 60 104z" />
    <glyph glyph-name="uni2070.zero" horiz-adv-x="348" 
d="M174 807c98 0 157 -72 157 -188s-59 -188 -157 -188s-156 72 -156 188s58 188 156 188zM174 725c-38 0 -62 -40 -62 -106c0 -13 1 -25 3 -37l101 119c-10 16 -24 24 -42 24zM174 513c38 0 62 39 62 106c0 13 -1 25 -3 36l-101 -119c11 -15 25 -23 42 -23z" />
    <glyph glyph-name="uni00B9" unicode="&#xb9;" horiz-adv-x="224" 
d="M87 800h91v-363l-93 -1v216c-6 -2 -12 -3 -19 -3h-62v85h57c17 0 26 17 26 36v30z" />
    <glyph glyph-name="uni00B9.ss09" horiz-adv-x="250" 
d="M175 523h75v-87h-250v86h81v130c-5 -2 -11 -3 -19 -3h-62v85h57c17 0 26 17 26 36v30h92v-277z" />
    <glyph glyph-name="uni00B2" unicode="&#xb2;" horiz-adv-x="327" 
d="M16 661v7c0 84 63 138 143 138c87 0 147 -49 147 -123c0 -54 -33 -84 -67 -108l-74 -53h145v-86h-290v81l146 101c22 16 41 35 41 63c0 25 -20 41 -47 41c-30 0 -50 -19 -50 -58v-3h-94z" />
    <glyph glyph-name="uni00B3" unicode="&#xb3;" horiz-adv-x="336" 
d="M25 684c2 77 56 123 145 123c88 0 139 -43 139 -101c0 -43 -29 -68 -61 -78c44 -9 71 -39 71 -83c0 -70 -57 -114 -154 -114c-98 0 -150 46 -151 130h96c2 -30 19 -48 54 -48c29 0 52 14 52 39c0 24 -20 39 -56 39h-20v63h22c29 0 50 14 50 35c0 22 -17 36 -44 36
c-29 0 -47 -15 -49 -41h-94z" />
    <glyph glyph-name="uni2074" unicode="&#x2074;" horiz-adv-x="353" 
d="M164 800h118v-201h54v-83h-54v-80h-93v80h-172v83zM189 709l-81 -110h81v110z" />
    <glyph glyph-name="uni2074.ss10" horiz-adv-x="328" 
d="M164 799h118v-364h-93v80h-172v83zM189 708l-81 -110h81v110z" />
    <glyph glyph-name="uni2075" unicode="&#x2075;" horiz-adv-x="318" 
d="M281 800v-81h-170l-4 -63c17 16 42 26 71 26c73 0 122 -49 122 -122c0 -78 -58 -130 -141 -130c-78 0 -132 47 -138 117h93c4 -20 22 -33 46 -33c25 0 44 18 44 46s-19 46 -45 46c-20 1 -35 -10 -43 -25h-90l10 219h245z" />
    <glyph glyph-name="uni2076" unicode="&#x2076;" horiz-adv-x="331" 
d="M16 613c0 118 64 194 160 194c68 0 125 -41 136 -112h-91c-5 24 -24 40 -51 40c-42 0 -67 -43 -67 -92v-17c12 27 38 49 83 49c78 0 129 -48 129 -121c0 -74 -57 -123 -143 -123c-98 0 -156 73 -156 182zM222 554c0 29 -20 49 -50 49s-50 -20 -50 -49s20 -48 50 -48
s50 19 50 48z" />
    <glyph glyph-name="uni2077" unicode="&#x2077;" horiz-adv-x="286" 
d="M3 800h272v-76l-138 -289h-105l139 283h-168v82z" />
    <glyph glyph-name="uni2077.ss09" horiz-adv-x="312" 
d="M301 801v-76l-138 -289h-105l139 283h-95v-49h-85v131h284z" />
    <glyph glyph-name="uni2078" unicode="&#x2078;" horiz-adv-x="339" 
d="M17 539c0 42 23 74 72 89c-38 16 -60 40 -60 82c0 56 53 97 141 97s142 -41 142 -97c0 -44 -24 -66 -60 -82c48 -15 71 -47 71 -89c0 -63 -56 -108 -153 -108c-96 0 -153 45 -153 108zM220 698c0 24 -21 40 -50 40c-28 0 -49 -16 -49 -40s21 -40 49 -40c30 0 50 16 50 40
zM226 547c0 26 -23 44 -56 44c-32 0 -56 -18 -56 -44c0 -24 24 -43 56 -43c33 0 56 19 56 43z" />
    <glyph glyph-name="uni2079" unicode="&#x2079;" horiz-adv-x="331" 
d="M315 625c0 -118 -64 -194 -160 -194c-68 0 -125 41 -136 112h91c5 -24 24 -40 51 -40c42 0 67 39 67 92v17c-13 -28 -38 -49 -84 -49c-77 0 -128 48 -128 121c0 74 57 123 143 123c98 0 156 -73 156 -182zM109 684c0 -29 20 -49 50 -49s50 20 50 49s-20 48 -50 48
s-50 -19 -50 -48z" />
    <glyph glyph-name="fraction" unicode="&#x2044;" horiz-adv-x="196" 
d="M-180 0l443 700h113l-443 -700h-113z" />
    <glyph glyph-name="onehalf" unicode="&#xbd;" horiz-adv-x="746" 
d="M87 700h91v-363l-93 -1v216c-6 -2 -12 -3 -19 -3h-62v85h57c17 0 26 17 26 36v30zM44 0l443 700h113l-443 -700h-113zM436 225v7c0 84 63 138 143 138c87 0 147 -49 147 -123c0 -54 -33 -84 -67 -108l-74 -53h145v-86h-290v81l146 101c22 16 41 35 41 63
c0 25 -20 41 -47 41c-30 0 -50 -19 -50 -58v-3h-94z" />
    <glyph glyph-name="uni2153" unicode="&#x2153;" horiz-adv-x="756" 
d="M87 700h91v-363l-93 -1v216c-6 -2 -12 -3 -19 -3h-62v85h57c17 0 26 17 26 36v30zM44 0l443 700h113l-443 -700h-113zM445 247c2 77 56 123 145 123c88 0 139 -43 139 -101c0 -43 -29 -68 -61 -78c44 -9 71 -39 71 -83c0 -70 -57 -114 -154 -114c-98 0 -150 46 -151 130
h96c2 -30 19 -48 54 -48c29 0 52 14 52 39c0 24 -20 39 -56 39h-20v63h22c29 0 50 14 50 35c0 22 -17 36 -44 36c-29 0 -47 -15 -49 -41h-94z" />
    <glyph glyph-name="onequarter" unicode="&#xbc;" horiz-adv-x="743" 
d="M87 700h91v-363l-93 -1v216c-6 -2 -12 -3 -19 -3h-62v85h57c17 0 26 17 26 36v30zM44 0l443 700h113l-443 -700h-113zM554 364h118v-201h54v-83h-54v-80h-93v80h-172v83zM579 273l-81 -110h81v110z" />
    <glyph glyph-name="threequarters" unicode="&#xbe;" horiz-adv-x="855" 
d="M25 584c2 77 56 123 145 123c88 0 139 -43 139 -101c0 -43 -29 -68 -61 -78c44 -9 71 -39 71 -83c0 -70 -57 -114 -154 -114c-98 0 -150 46 -151 130h96c2 -30 19 -48 54 -48c29 0 52 14 52 39c0 24 -20 39 -56 39h-20v63h22c29 0 50 14 50 35c0 22 -17 36 -44 36
c-29 0 -47 -15 -49 -41h-94zM156 0l443 700h113l-443 -700h-113zM666 364h118v-201h54v-83h-54v-80h-93v80h-172v83zM691 273l-81 -110h81v110z" />
    <glyph glyph-name="uni2155" unicode="&#x2155;" horiz-adv-x="738" 
d="M87 700h91v-363l-93 -1v216c-6 -2 -12 -3 -19 -3h-62v85h57c17 0 26 17 26 36v30zM44 0l443 700h113l-443 -700h-113zM701 364v-81h-170l-4 -63c17 16 42 26 71 26c73 0 122 -49 122 -122c0 -78 -58 -130 -141 -130c-78 0 -132 47 -138 117h93c4 -20 22 -33 46 -33
c25 0 44 18 44 46s-19 46 -45 46c-20 1 -35 -10 -43 -25h-90l10 219h245z" />
    <glyph glyph-name="uni2156" unicode="&#x2156;" horiz-adv-x="841" 
d="M16 561v7c0 84 63 138 143 138c87 0 147 -49 147 -123c0 -54 -33 -84 -67 -108l-74 -53h145v-86h-290v81l146 101c22 16 41 35 41 63c0 25 -20 41 -47 41c-30 0 -50 -19 -50 -58v-3h-94zM147 0l443 700h113l-443 -700h-113zM804 364v-81h-170l-4 -63c17 16 42 26 71 26
c73 0 122 -49 122 -122c0 -78 -58 -130 -141 -130c-78 0 -132 47 -138 117h93c4 -20 22 -33 46 -33c25 0 44 18 44 46s-19 46 -45 46c-20 1 -35 -10 -43 -25h-90l10 219h245z" />
    <glyph glyph-name="uni2157" unicode="&#x2157;" horiz-adv-x="850" 
d="M25 584c2 77 56 123 145 123c88 0 139 -43 139 -101c0 -43 -29 -68 -61 -78c44 -9 71 -39 71 -83c0 -70 -57 -114 -154 -114c-98 0 -150 46 -151 130h96c2 -30 19 -48 54 -48c29 0 52 14 52 39c0 24 -20 39 -56 39h-20v63h22c29 0 50 14 50 35c0 22 -17 36 -44 36
c-29 0 -47 -15 -49 -41h-94zM156 0l443 700h113l-443 -700h-113zM813 364v-81h-170l-4 -63c17 16 42 26 71 26c73 0 122 -49 122 -122c0 -78 -58 -130 -141 -130c-78 0 -132 47 -138 117h93c4 -20 22 -33 46 -33c25 0 44 18 44 46s-19 46 -45 46c-20 1 -35 -10 -43 -25h-90
l10 219h245z" />
    <glyph glyph-name="uni2158" unicode="&#x2158;" horiz-adv-x="867" 
d="M164 700h118v-201h54v-83h-54v-80h-93v80h-172v83zM173 0l443 700h113l-443 -700h-113zM189 609l-81 -110h81v110zM830 364v-81h-170l-4 -63c17 16 42 26 71 26c73 0 122 -49 122 -122c0 -78 -58 -130 -141 -130c-78 0 -132 47 -138 117h93c4 -20 22 -33 46 -33
c25 0 44 18 44 46s-19 46 -45 46c-20 1 -35 -10 -43 -25h-90l10 219h245z" />
    <glyph glyph-name="uni2159" unicode="&#x2159;" horiz-adv-x="751" 
d="M87 700h91v-363l-93 -1v216c-6 -2 -12 -3 -19 -3h-62v85h57c17 0 26 17 26 36v30zM44 0l443 700h113l-443 -700h-113zM436 176c0 118 64 194 160 194c68 0 125 -41 136 -112h-91c-5 24 -24 40 -51 40c-42 0 -67 -43 -67 -92v-17c12 27 38 49 83 49c78 0 129 -48 129 -121
c0 -74 -57 -123 -143 -123c-98 0 -156 73 -156 182zM642 117c0 29 -20 49 -50 49s-50 -20 -50 -49s20 -48 50 -48s50 19 50 48z" />
    <glyph glyph-name="oneeighth" unicode="&#x215b;" horiz-adv-x="759" 
d="M87 700h91v-363l-93 -1v216c-6 -2 -12 -3 -19 -3h-62v85h57c17 0 26 17 26 36v30zM44 0l443 700h113l-443 -700h-113zM437 102c0 42 23 74 72 89c-38 16 -60 40 -60 82c0 56 53 97 141 97s142 -41 142 -97c0 -44 -24 -66 -60 -82c48 -15 71 -47 71 -89
c0 -63 -56 -108 -153 -108c-96 0 -153 45 -153 108zM640 261c0 24 -21 40 -50 40c-28 0 -49 -16 -49 -40s21 -40 49 -40c30 0 50 16 50 40zM646 110c0 26 -23 44 -56 44c-32 0 -56 -18 -56 -44c0 -24 24 -43 56 -43c33 0 56 19 56 43z" />
    <glyph glyph-name="threeeighths" unicode="&#x215c;" horiz-adv-x="871" 
d="M25 584c2 77 56 123 145 123c88 0 139 -43 139 -101c0 -43 -29 -68 -61 -78c44 -9 71 -39 71 -83c0 -70 -57 -114 -154 -114c-98 0 -150 46 -151 130h96c2 -30 19 -48 54 -48c29 0 52 14 52 39c0 24 -20 39 -56 39h-20v63h22c29 0 50 14 50 35c0 22 -17 36 -44 36
c-29 0 -47 -15 -49 -41h-94zM156 0l443 700h113l-443 -700h-113zM549 102c0 42 23 74 72 89c-38 16 -60 40 -60 82c0 56 53 97 141 97s142 -41 142 -97c0 -44 -24 -66 -60 -82c48 -15 71 -47 71 -89c0 -63 -56 -108 -153 -108c-96 0 -153 45 -153 108zM752 261
c0 24 -21 40 -50 40c-28 0 -49 -16 -49 -40s21 -40 49 -40c30 0 50 16 50 40zM758 110c0 26 -23 44 -56 44c-32 0 -56 -18 -56 -44c0 -24 24 -43 56 -43c33 0 56 19 56 43z" />
    <glyph glyph-name="fiveeighths" unicode="&#x215d;" horiz-adv-x="853" 
d="M281 700v-81h-170l-4 -63c17 16 42 26 71 26c73 0 122 -49 122 -122c0 -78 -58 -130 -141 -130c-78 0 -132 47 -138 117h93c4 -20 22 -33 46 -33c25 0 44 18 44 46s-19 46 -45 46c-20 1 -35 -10 -43 -25h-90l10 219h245zM138 0l443 700h113l-443 -700h-113zM531 102
c0 42 23 74 72 89c-38 16 -60 40 -60 82c0 56 53 97 141 97s142 -41 142 -97c0 -44 -24 -66 -60 -82c48 -15 71 -47 71 -89c0 -63 -56 -108 -153 -108c-96 0 -153 45 -153 108zM734 261c0 24 -21 40 -50 40c-28 0 -49 -16 -49 -40s21 -40 49 -40c30 0 50 16 50 40zM740 110
c0 26 -23 44 -56 44c-32 0 -56 -18 -56 -44c0 -24 24 -43 56 -43c33 0 56 19 56 43z" />
    <glyph glyph-name="seveneighths" unicode="&#x215e;" horiz-adv-x="797" 
d="M3 700h272v-76l-138 -289h-105l139 283h-168v82zM82 0l443 700h113l-443 -700h-113zM475 102c0 42 23 74 72 89c-38 16 -60 40 -60 82c0 56 53 97 141 97s142 -41 142 -97c0 -44 -24 -66 -60 -82c48 -15 71 -47 71 -89c0 -63 -56 -108 -153 -108c-96 0 -153 45 -153 108z
M678 261c0 24 -21 40 -50 40c-28 0 -49 -16 -49 -40s21 -40 49 -40c30 0 50 16 50 40zM684 110c0 26 -23 44 -56 44c-32 0 -56 -18 -56 -44c0 -24 24 -43 56 -43c33 0 56 19 56 43z" />
    <glyph glyph-name="period" unicode="." horiz-adv-x="248" 
d="M39 77c0 49 36 84 85 84c48 0 85 -35 85 -84c0 -48 -37 -83 -85 -83c-49 0 -85 35 -85 83z" />
    <glyph glyph-name="comma" unicode="," horiz-adv-x="248" 
d="M114 158c63 0 105 -54 105 -131c0 -112 -73 -171 -187 -172v73c64 1 95 32 95 68c0 4 0 10 -1 14c-10 -5 -20 -8 -32 -8c-37 0 -68 25 -68 76c0 44 39 80 88 80z" />
    <glyph glyph-name="colon" unicode=":" horiz-adv-x="248" 
d="M39 425c0 48 36 83 85 83c48 0 85 -35 85 -83c0 -49 -37 -83 -85 -83c-49 0 -85 34 -85 83zM39 77c0 49 36 84 85 84c48 0 85 -35 85 -84c0 -48 -37 -83 -85 -83c-49 0 -85 35 -85 83z" />
    <glyph glyph-name="colon.case" horiz-adv-x="248" 
d="M39 500c0 49 36 84 85 84c48 0 85 -35 85 -84c0 -48 -37 -83 -85 -83c-49 0 -85 35 -85 83zM39 153c0 48 36 83 85 83c48 0 85 -35 85 -83c0 -49 -37 -84 -85 -84c-49 0 -85 35 -85 84z" />
    <glyph glyph-name="semicolon" unicode=";" horiz-adv-x="248" 
d="M34 424c0 49 36 84 85 84c48 0 85 -35 85 -84c0 -48 -37 -83 -85 -83c-49 0 -85 35 -85 83zM114 158c63 0 105 -54 105 -131c0 -112 -73 -171 -187 -172v73c64 1 95 32 95 68c0 4 0 10 -1 14c-10 -5 -20 -8 -32 -8c-37 0 -68 25 -68 76c0 44 39 80 88 80z" />
    <glyph glyph-name="semicolon.case" horiz-adv-x="248" 
d="M34 500c0 48 36 83 85 83c48 0 85 -35 85 -83c0 -49 -37 -84 -85 -84c-49 0 -85 35 -85 84zM114 234c63 0 105 -55 105 -132c0 -112 -73 -171 -187 -171v72c64 1 95 32 95 68c0 5 0 10 -1 14c-10 -5 -20 -8 -32 -8c-37 0 -68 26 -68 76c0 44 39 81 88 81z" />
    <glyph glyph-name="ellipsis" unicode="&#x2026;" horiz-adv-x="720" 
d="M39 77c0 49 36 84 85 84c48 0 85 -35 85 -84c0 -48 -37 -83 -85 -83c-49 0 -85 35 -85 83zM275 77c0 49 36 84 85 84s85 -35 85 -84c0 -48 -36 -83 -85 -83s-85 35 -85 83zM511 77c0 49 37 84 85 84c49 0 85 -35 85 -84c0 -48 -36 -83 -85 -83c-48 0 -85 35 -85 83z" />
    <glyph glyph-name="exclam" unicode="!" horiz-adv-x="289" 
d="M92 217l-23 483h151l-21 -483h-107zM60 77c0 49 36 84 84 84c49 0 85 -35 85 -84c0 -48 -36 -83 -85 -83c-48 0 -84 35 -84 83z" />
    <glyph glyph-name="exclamdown" unicode="&#xa1;" horiz-adv-x="289" 
d="M144 706c49 0 85 -35 85 -83c0 -49 -36 -84 -85 -84c-48 0 -84 35 -84 84c0 48 36 83 84 83zM92 483h107l21 -483h-151z" />
    <glyph glyph-name="question" unicode="?" horiz-adv-x="534" 
d="M22 463c0 132 90 243 248 243c148 0 238 -79 238 -189c0 -96 -49 -137 -104 -175c-55 -37 -82 -61 -82 -104v-13h-132v28c0 83 43 116 106 153c46 29 67 58 67 98c0 48 -36 81 -92 81c-64 0 -106 -49 -106 -122h-143zM177 75c0 47 36 80 83 80s83 -33 83 -80
s-36 -81 -83 -81s-83 34 -83 81z" />
    <glyph glyph-name="questiondown" unicode="&#xbf;" horiz-adv-x="529" 
d="M356 625c0 -47 -36 -80 -83 -80c-48 0 -83 33 -83 80s35 81 83 81c47 0 83 -34 83 -81zM511 237c0 -132 -90 -243 -248 -243c-148 0 -238 79 -238 189c0 96 49 137 104 175c55 37 82 61 82 104v13h132v-28c0 -83 -43 -116 -106 -153c-46 -29 -68 -58 -68 -98
c0 -48 37 -81 93 -81c64 0 105 49 105 122h144z" />
    <glyph glyph-name="periodcentered" unicode="&#xb7;" horiz-adv-x="248" 
d="M39 298c0 48 36 83 85 83c48 0 85 -35 85 -83s-37 -83 -85 -83c-49 0 -85 35 -85 83z" />
    <glyph glyph-name="periodcentered.case" horiz-adv-x="288" 
d="M59 350c0 48 36 83 85 83c48 0 85 -35 85 -83c0 -49 -37 -84 -85 -84c-49 0 -85 35 -85 84z" />
    <glyph glyph-name="bullet" unicode="&#x2022;" horiz-adv-x="450" 
d="M59 335c0 95 71 161 166 161s166 -66 166 -161s-71 -162 -166 -162s-166 67 -166 162z" />
    <glyph glyph-name="asterisk" unicode="*" horiz-adv-x="434" 
d="M401 548l-115 -41l79 -87l-74 -63l-75 105l-74 -104l-74 63l80 87l-115 42l39 88l101 -52l-4 114h95l-4 -115l101 52z" />
    <glyph glyph-name="numbersign" unicode="#" horiz-adv-x="562" 
d="M160 606h116l-22 -141h100l21 141h115l-21 -141h69v-117h-86l-13 -90h78v-117h-95l-21 -141h-116l22 141h-100l-21 -141h-115l21 141h-69v117h86l13 90h-78v117h95zM237 348l-13 -90h100l13 90h-100z" />
    <glyph glyph-name="slash" unicode="/" horiz-adv-x="339" 
d="M-43 -200l293 900h133l-294 -900h-132z" />
    <glyph glyph-name="slash.case" horiz-adv-x="347" 
d="M217 700h141l-228 -700h-142z" />
    <glyph glyph-name="backslash" unicode="\" horiz-adv-x="339" 
d="M383 -200h-133l-293 900h133z" />
    <glyph glyph-name="backslash.case" horiz-adv-x="347" 
d="M145 700l229 -700h-142l-228 700h141z" />
    <glyph glyph-name="uni2042" unicode="&#x2042;" horiz-adv-x="984" 
d="M675 588l-116 -41l79 -87l-74 -63l-74 105l-75 -104l-74 63l80 87l-115 42l39 88l101 -52l-4 114h96l-5 -115l102 52zM428 143l-115 -41l79 -87l-74 -63l-75 105l-75 -104l-73 63l79 87l-114 42l39 88l101 -52l-4 114h95l-4 -115l101 52zM925 143l-116 -41l79 -87
l-74 -63l-74 105l-75 -104l-74 63l80 87l-115 42l39 88l101 -52l-4 114h96l-5 -115l102 52z" />
    <glyph glyph-name="uni2051" unicode="&#x2051;" horiz-adv-x="488" 
d="M428 588l-115 -41l79 -87l-74 -63l-75 105l-75 -104l-73 63l79 87l-114 42l39 88l101 -52l-4 114h95l-4 -115l101 52zM428 140l-115 -41l79 -87l-74 -63l-75 105l-75 -104l-73 63l79 87l-114 42l39 88l101 -52l-4 114h95l-4 -115l101 52z" />
    <glyph glyph-name="parenleft" unicode="(" horiz-adv-x="336" 
d="M208 700h148c-122 -163 -167 -278 -167 -450c0 -170 46 -285 167 -450h-148c-109 147 -158 282 -158 450c0 171 50 305 158 450z" />
    <glyph glyph-name="parenleft.case" horiz-adv-x="303" 
d="M42 350c0 136 44 265 94 350h145c-66 -100 -99 -227 -99 -350s33 -251 99 -350h-145c-50 84 -94 213 -94 350z" />
    <glyph glyph-name="parenright" unicode=")" horiz-adv-x="336" 
d="M137 700c107 -145 157 -279 157 -450c0 -168 -49 -303 -157 -450h-148c120 165 166 280 166 450c0 172 -45 287 -166 450h148z" />
    <glyph glyph-name="parenright.case" horiz-adv-x="303" 
d="M167 0h-145c66 99 100 227 100 350s-34 250 -100 350h145c50 -85 94 -214 94 -350c0 -137 -44 -266 -94 -350z" />
    <glyph glyph-name="braceleft" unicode="{" horiz-adv-x="343" 
d="M297 577c-47 -1 -73 -27 -73 -69c0 -8 2 -18 4 -28l19 -81c3 -12 4 -24 4 -34c0 -54 -37 -97 -101 -115c64 -11 102 -52 102 -108c0 -13 -1 -26 -5 -41l-19 -81c-2 -11 -4 -21 -4 -29c0 -42 26 -67 73 -68l35 -1v-122h-29c-133 0 -213 61 -213 162c0 13 1 26 4 41l17 89
c3 10 3 20 3 30c0 46 -33 66 -91 67v122c59 1 92 23 92 67c0 10 -1 19 -4 30l-17 89c-3 15 -4 28 -4 42c0 100 80 161 213 161h29v-122z" />
    <glyph glyph-name="braceleft.case" horiz-adv-x="382" 
d="M329 577c-57 -2 -78 -27 -78 -71c0 -10 1 -22 3 -36c2 -11 3 -22 3 -33c0 -48 -38 -76 -78 -87c42 -10 79 -39 79 -86c0 -11 -2 -22 -4 -34c-2 -13 -3 -25 -3 -36c0 -44 21 -69 78 -71h37v-123h-53c-107 0 -189 26 -189 145c0 9 1 20 2 31c2 17 3 28 3 41
c0 55 -30 74 -100 74v119c70 0 100 18 100 74c0 11 -1 23 -3 37c-1 11 -2 24 -2 34c0 119 82 145 189 145h53v-123h-37z" />
    <glyph glyph-name="braceright" unicode="}" horiz-adv-x="343" 
d="M320 189c-57 -1 -91 -21 -91 -67c0 -10 1 -20 3 -30l18 -89c3 -15 4 -28 4 -41c0 -101 -80 -162 -214 -162h-29v122l36 1c47 1 72 26 72 68c0 8 -1 18 -3 29l-20 81c-4 15 -5 28 -5 41c0 56 38 97 102 108c-64 18 -101 61 -101 115c0 10 1 22 4 34l20 81c2 10 3 20 3 28
c0 42 -25 68 -72 69l-36 1v122h29c133 0 214 -61 214 -161c0 -14 -1 -27 -4 -42l-18 -89c-2 -11 -4 -20 -4 -30c0 -44 33 -66 92 -67v-122z" />
    <glyph glyph-name="braceright.case" horiz-adv-x="382" 
d="M253 484c0 -56 31 -74 100 -74v-119c-70 0 -100 -19 -100 -74c0 -13 1 -24 3 -41c1 -11 3 -22 3 -31c0 -119 -83 -145 -189 -145h-53v123h37c56 2 78 27 78 71c0 11 -1 23 -4 36c-2 12 -4 23 -4 34c0 47 37 76 79 86c-39 11 -78 39 -78 87c0 11 2 22 3 33c3 14 4 26 4 36
c0 44 -22 69 -78 71h-37v123h53c106 0 189 -26 189 -145c0 -10 -2 -23 -3 -34c-1 -14 -3 -26 -3 -37z" />
    <glyph glyph-name="bracketleft" unicode="[" horiz-adv-x="329" 
d="M51 700h267v-124h-135v-653h135v-123h-267v900z" />
    <glyph glyph-name="bracketleft.case" horiz-adv-x="335" 
d="M51 700h267v-123h-135v-454h135v-123h-267v700z" />
    <glyph glyph-name="bracketright" unicode="]" horiz-adv-x="329" 
d="M278 -200h-267v124h135v653h-135v123h267v-900z" />
    <glyph glyph-name="bracketright.case" horiz-adv-x="335" 
d="M284 700v-700h-267v123h135v454h-135v123h267z" />
    <glyph glyph-name="hyphen" unicode="-" horiz-adv-x="430" 
d="M40 227v114h350v-114h-350z" />
    <glyph glyph-name="hyphen.case" horiz-adv-x="440" 
d="M45 291v125h350v-125h-350z" />
    <glyph glyph-name="uni00AD" unicode="&#xad;" horiz-adv-x="346" 
d="M40 227v114h350v-114h-350z" />
    <glyph glyph-name="endash" unicode="&#x2013;" 
d="M40 227v114h520v-114h-520z" />
    <glyph glyph-name="endash.case" horiz-adv-x="610" 
d="M45 291v125h520v-125h-520z" />
    <glyph glyph-name="emdash" unicode="&#x2014;" horiz-adv-x="925" 
d="M40 341h845v-114h-845v114z" />
    <glyph glyph-name="emdash.case" horiz-adv-x="935" 
d="M45 415h845v-125h-845v125z" />
    <glyph glyph-name="underscore" unicode="_" horiz-adv-x="504" 
d="M50 -136v130h404v-130h-404z" />
    <glyph glyph-name="quotesinglbase" unicode="&#x201a;" horiz-adv-x="248" 
d="M114 158c63 0 105 -54 105 -131c0 -112 -73 -171 -187 -172v73c64 1 95 32 95 68c0 4 0 10 -1 14c-10 -5 -20 -8 -32 -8c-37 0 -68 25 -68 76c0 44 39 80 88 80z" />
    <glyph glyph-name="quotedblbase" unicode="&#x201e;" horiz-adv-x="464" 
d="M114 158c63 0 105 -54 105 -131c0 -112 -73 -171 -187 -172v73c64 1 95 32 95 68c0 4 0 10 -1 14c-10 -5 -20 -8 -32 -8c-37 0 -68 25 -68 76c0 44 39 80 88 80zM331 158c63 0 104 -54 104 -131c0 -112 -73 -171 -186 -172v73c63 1 94 32 94 68c0 4 0 10 -1 14
c-10 -5 -20 -8 -32 -8c-36 0 -67 25 -67 76c0 44 38 80 88 80z" />
    <glyph glyph-name="quotedblleft" unicode="&#x201c;" horiz-adv-x="464" 
d="M133 403c-63 0 -104 54 -104 131c0 112 73 171 186 172v-73c-63 0 -94 -32 -94 -68c0 -4 0 -9 1 -14c10 5 20 8 32 8c36 0 67 -25 67 -75c0 -45 -38 -81 -88 -81zM350 403c-63 0 -105 54 -105 131c0 112 73 171 187 172v-73c-64 0 -95 -32 -95 -68c0 -4 0 -9 1 -14
c10 5 20 8 32 8c37 0 68 -25 68 -75c0 -45 -39 -81 -88 -81z" />
    <glyph glyph-name="quotedblright" unicode="&#x201d;" horiz-adv-x="464" 
d="M114 706c63 0 105 -54 105 -131c0 -112 -73 -171 -187 -172v73c64 0 95 32 95 68c0 4 0 9 -1 14c-10 -5 -20 -8 -32 -8c-37 0 -68 25 -68 75c0 45 39 81 88 81zM331 706c63 0 104 -54 104 -131c0 -112 -73 -171 -186 -172v73c63 0 94 32 94 68c0 4 0 9 -1 14
c-10 -5 -20 -8 -32 -8c-36 0 -67 25 -67 75c0 45 38 81 88 81z" />
    <glyph glyph-name="quoteleft" unicode="&#x2018;" horiz-adv-x="248" 
d="M133 403c-63 0 -104 54 -104 131c0 112 73 171 186 172v-73c-63 0 -94 -32 -94 -68c0 -4 0 -9 1 -14c10 5 20 8 32 8c36 0 67 -25 67 -75c0 -45 -38 -81 -88 -81z" />
    <glyph glyph-name="quoteright" unicode="&#x2019;" horiz-adv-x="248" 
d="M114 706c63 0 105 -54 105 -131c0 -112 -73 -171 -187 -172v73c64 0 95 32 95 68c0 4 0 9 -1 14c-10 -5 -20 -8 -32 -8c-37 0 -68 25 -68 75c0 45 39 81 88 81z" />
    <glyph glyph-name="guillemotleft" unicode="&#xab;" horiz-adv-x="608" 
d="M324 514l-150 -257l150 -257h-142l-152 257l152 257h142zM574 513l-149 -257l149 -257h-141l-152 257l152 257h141z" />
    <glyph glyph-name="guillemotleft.case" horiz-adv-x="618" 
d="M329 609l-150 -257l150 -257h-142l-152 257l152 257h142zM579 608l-149 -257l149 -257h-141l-152 257l152 257h141z" />
    <glyph glyph-name="guillemotright" unicode="&#xbb;" horiz-adv-x="608" 
d="M284 514h142l152 -257l-152 -257h-142l150 257zM34 513h141l152 -257l-152 -257h-141l149 257z" />
    <glyph glyph-name="guillemotright.case" horiz-adv-x="618" 
d="M289 609h142l152 -257l-152 -257h-142l150 257zM39 608h141l152 -257l-152 -257h-141l149 257z" />
    <glyph glyph-name="guilsinglleft" unicode="&#x2039;" horiz-adv-x="357" 
d="M324 514l-150 -257l150 -257h-142l-152 257l152 257h142z" />
    <glyph glyph-name="guilsinglleft.case" horiz-adv-x="366" 
d="M182 605h151l-150 -255l150 -255h-151l-152 255z" />
    <glyph glyph-name="guilsinglright" unicode="&#x203a;" horiz-adv-x="357" 
d="M34 514h141l152 -257l-152 -257h-141l149 257z" />
    <glyph glyph-name="guilsinglright.case" horiz-adv-x="366" 
d="M184 605l152 -255l-152 -255h-150l149 255l-149 255h150z" />
    <glyph glyph-name="quotedbl" unicode="&#x22;" horiz-adv-x="413" 
d="M35 620c-8 46 17 85 73 85c57 0 81 -39 73 -85l-29 -191h-88zM232 620c-7 46 17 85 73 85c57 0 81 -39 74 -85l-30 -191h-87z" />
    <glyph glyph-name="quotesingle" unicode="'" horiz-adv-x="216" 
d="M35 620c-8 46 17 85 73 85c57 0 81 -39 73 -85l-29 -191h-88z" />
    <glyph glyph-name="uni00A0" unicode="&#xa0;" horiz-adv-x="248" 
 />
    <glyph glyph-name="uni0E3F" unicode="&#xe3f;" horiz-adv-x="657" 
d="M619 197c0 -119 -93 -195 -262 -197v-97h-79v97h-218v700h218v103h79v-103c154 -5 237 -72 237 -184c0 -88 -52 -141 -138 -157c98 -13 163 -62 163 -162zM210 582v-170h68v170h-68zM447 497c0 50 -31 82 -90 85v-170c59 3 90 35 90 85zM210 119h68v177h-68v-177z
M357 119c69 2 108 35 108 87c0 55 -41 88 -108 90v-177z" />
    <glyph glyph-name="cent" unicode="&#xa2;" horiz-adv-x="570" 
d="M294 201c56 0 93 33 104 86h145c-16 -103 -80 -173 -182 -194v-93h-124v91c-129 22 -208 119 -208 258c0 140 80 236 208 258v93h124v-94c101 -21 165 -91 182 -192h-146c-12 50 -49 83 -103 83c-74 0 -121 -60 -121 -148c0 -87 47 -148 121 -148z" />
    <glyph glyph-name="currency" unicode="&#xa4;" horiz-adv-x="664" 
d="M138 643l70 -70c36 21 79 33 124 33s88 -12 124 -33l70 70l99 -99l-68 -68c24 -38 37 -83 37 -133c0 -45 -12 -88 -32 -124l63 -63l-99 -99l-61 62c-38 -24 -84 -38 -133 -38s-95 14 -133 38l-61 -62l-99 99l63 63c-20 36 -32 79 -32 124c0 50 13 95 37 133l-68 68z
M191 343c0 -81 60 -142 141 -142s141 61 141 142c0 82 -60 143 -141 143s-141 -61 -141 -143z" />
    <glyph glyph-name="dollar" unicode="$" horiz-adv-x="625" 
d="M370 414c120 -22 226 -58 225 -199c-1 -113 -90 -198 -218 -217v-105h-124v107c-132 23 -219 113 -221 230l147 -2c5 -68 59 -115 145 -115c69 0 120 30 120 85c0 59 -57 71 -174 94c-118 22 -222 60 -222 202c0 107 83 189 205 208v106h124v-108
c120 -23 201 -106 204 -214h-147c-6 59 -52 100 -125 100c-64 0 -110 -27 -110 -81c0 -57 55 -69 171 -91z" />
    <glyph glyph-name="Euro" unicode="&#x20ac;" horiz-adv-x="676" 
d="M89 239h-68v87h62c-1 5 -1 15 -1 25c0 6 0 13 1 21h-62v86h68c26 155 131 248 280 248c168 0 271 -100 281 -260h-147c-10 85 -55 137 -128 137c-70 0 -119 -45 -136 -125h159l-16 -86h-152v-20c0 -9 0 -20 1 -26h141l-17 -87h-116c19 -79 67 -122 136 -122
c74 0 117 52 128 137h147c-11 -160 -113 -260 -280 -260c-149 0 -255 91 -281 245z" />
    <glyph glyph-name="florin" unicode="&#x192;" horiz-adv-x="481" 
d="M380 580c-30 0 -46 -14 -48 -45l-13 -152h108v-104h-117l-22 -248c-8 -86 -63 -137 -159 -137h-115v120h88c29 0 45 14 47 45l19 220h-102v104h111l16 180c8 86 63 137 159 137h115v-120h-87z" />
    <glyph glyph-name="franc" unicode="&#x20a3;" horiz-adv-x="567" 
d="M546 571h-313v-164h257v-123h-257v-88h122v-102h-122v-94h-150v94h-84v102h84v504h463v-129z" />
    <glyph glyph-name="uni20A8" unicode="&#x20a8;" horiz-adv-x="606" 
d="M60 700h524l-16 -87h-158c23 -28 39 -62 45 -102h114l-17 -87h-97c-12 -70 -55 -125 -116 -154l137 -270h-165l-118 235h-133v122h129c54 0 93 27 107 67h-236v87h236c-14 40 -53 66 -106 66h-130v123z" />
    <glyph glyph-name="sterling" unicode="&#xa3;" horiz-adv-x="622" 
d="M28 369h72c-10 39 -20 72 -20 112c0 135 108 224 249 224c160 0 258 -94 266 -244h-143c-5 74 -45 122 -118 122c-66 0 -111 -44 -111 -111c0 -31 11 -66 21 -103h191v-102h-178c4 -38 -21 -102 -53 -138l388 -2v-127h-543v121c37 41 60 94 65 146h-86v102z" />
    <glyph glyph-name="yen" unicode="&#xa5;" horiz-adv-x="700" 
d="M664 700l-201 -353h123v-101h-173v-60h173v-101h-173v-85h-150v85h-173v101h173v60h-173v101h122l-208 353h177l155 -287l161 287h167z" />
    <glyph glyph-name="dotmath" unicode="&#x22c5;" horiz-adv-x="248" 
d="M39 298c0 48 36 83 85 83c48 0 85 -35 85 -83s-37 -83 -85 -83c-49 0 -85 35 -85 83z" />
    <glyph glyph-name="dotmath.case" horiz-adv-x="248" 
d="M39 356c0 49 36 84 85 84c48 0 85 -35 85 -84c0 -48 -37 -83 -85 -83c-49 0 -85 35 -85 83z" />
    <glyph glyph-name="plus" unicode="+" horiz-adv-x="515" 
d="M193 504h128v-160h152v-119h-152v-161h-128v161h-151v119h151v160z" />
    <glyph glyph-name="plus.case" horiz-adv-x="515" 
d="M193 574h128v-160h152v-119h-152v-161h-128v161h-151v119h151v160z" />
    <glyph glyph-name="minus" unicode="&#x2212;" horiz-adv-x="515" 
d="M42 225v119h431v-119h-431z" />
    <glyph glyph-name="minus.case" horiz-adv-x="515" 
d="M42 295v119h431v-119h-431z" />
    <glyph glyph-name="multiply" unicode="&#xd7;" horiz-adv-x="515" 
d="M125 504l136 -136l132 133l84 -84l-133 -132l136 -136l-90 -91l-136 137l-133 -133l-83 83l133 133l-136 135z" />
    <glyph glyph-name="multiply.case" horiz-adv-x="515" 
d="M125 574l136 -136l132 133l84 -84l-133 -132l136 -136l-90 -91l-136 137l-133 -133l-83 83l133 133l-136 135z" />
    <glyph glyph-name="divide" unicode="&#xf7;" horiz-adv-x="515" 
d="M176 475c0 47 35 80 82 80s81 -33 81 -80c0 -46 -34 -79 -81 -79s-82 33 -82 79zM42 225v119h431v-119h-431zM176 104c0 46 35 80 82 80s81 -34 81 -80c0 -47 -34 -80 -81 -80s-82 33 -82 80z" />
    <glyph glyph-name="divide.case" horiz-adv-x="515" 
d="M176 545c0 47 35 80 82 80s81 -33 81 -80c0 -46 -34 -79 -81 -79s-82 33 -82 79zM42 295v119h431v-119h-431zM176 174c0 46 35 80 82 80s81 -34 81 -80c0 -47 -34 -80 -81 -80s-82 33 -82 80z" />
    <glyph glyph-name="equal" unicode="=" horiz-adv-x="515" 
d="M52 327v119h411v-119h-411zM52 112v118h411v-118h-411z" />
    <glyph glyph-name="equal.case" horiz-adv-x="515" 
d="M52 397v119h411v-119h-411zM52 182v118h411v-118h-411z" />
    <glyph glyph-name="notequal" unicode="&#x2260;" horiz-adv-x="515" 
d="M463 327h-123l-32 -97h155v-118h-194l-29 -87h-140l29 87h-77v118h116l32 97h-148v119h187l27 82h140l-27 -82h84v-119z" />
    <glyph glyph-name="notequal.case" horiz-adv-x="515" 
d="M463 397h-123l-32 -97h155v-118h-194l-29 -87h-140l29 87h-77v118h116l32 97h-148v119h187l27 82h140l-27 -82h84v-119z" />
    <glyph glyph-name="greater" unicode="&#x3e;" horiz-adv-x="515" 
d="M455 350v-132l-395 -164v136l238 94l-238 94v136z" />
    <glyph glyph-name="greater.case" horiz-adv-x="515" 
d="M455 420v-132l-395 -164v136l238 94l-238 94v136z" />
    <glyph glyph-name="less" unicode="&#x3c;" horiz-adv-x="515" 
d="M60 218v132l395 164v-136l-238 -94l238 -94v-136z" />
    <glyph glyph-name="less.case" horiz-adv-x="515" 
d="M60 288v132l395 164v-136l-238 -94l238 -94v-136z" />
    <glyph glyph-name="greaterequal" unicode="&#x2265;" horiz-adv-x="515" 
d="M455 457v-131l-395 -164v136l238 94l-238 94v136zM60 0v119h395v-119h-395z" />
    <glyph glyph-name="greaterequal.case" horiz-adv-x="515" 
d="M455 465v-131l-395 -164v136l238 93l-238 94v136zM60 8v118h395v-118h-395z" />
    <glyph glyph-name="lessequal" unicode="&#x2264;" horiz-adv-x="515" 
d="M60 326v131l395 165v-136l-238 -94l238 -94v-136zM60 0v119h395v-119h-395z" />
    <glyph glyph-name="lessequal.case" horiz-adv-x="515" 
d="M60 334v131l395 164v-136l-238 -94l238 -93v-136zM60 8v118h395v-118h-395z" />
    <glyph glyph-name="plusminus" unicode="&#xb1;" horiz-adv-x="515" 
d="M473 258h-152v-140h152v-118h-431v118h151v140h-151v118h151v161h128v-161h152v-118z" />
    <glyph glyph-name="plusminus.case" horiz-adv-x="515" 
d="M193 629h128v-161h152v-118h-152v-162h-128v162h-151v118h151v161zM42 8v118h431v-118h-431z" />
    <glyph glyph-name="approxequal" unicode="&#x2248;" horiz-adv-x="515" 
d="M151 304h-112c0 120 45 178 128 178c88 0 109 -54 152 -54c34 0 45 22 45 54h112c0 -119 -45 -177 -128 -177c-89 0 -109 53 -152 53c-34 0 -45 -22 -45 -54zM151 72h-112c0 119 45 178 128 178c88 0 109 -54 152 -54c34 0 45 22 45 53h112c0 -119 -45 -177 -128 -177
c-89 0 -109 53 -152 53c-34 0 -45 -21 -45 -53z" />
    <glyph glyph-name="approxequal.case" horiz-adv-x="515" 
d="M151 374h-112c0 120 45 178 128 178c88 0 109 -54 152 -54c34 0 45 22 45 54h112c0 -119 -45 -177 -128 -177c-89 0 -109 53 -152 53c-34 0 -45 -22 -45 -54zM151 142h-112c0 119 45 178 128 178c88 0 109 -54 152 -54c34 0 45 22 45 53h112c0 -119 -45 -177 -128 -177
c-89 0 -109 53 -152 53c-34 0 -45 -21 -45 -53z" />
    <glyph glyph-name="asciitilde" unicode="~" horiz-adv-x="515" 
d="M151 199h-112c0 120 45 178 128 178c88 0 109 -54 152 -54c34 0 45 22 45 53h112c0 -119 -45 -177 -128 -177c-89 0 -109 53 -152 53c-34 0 -45 -21 -45 -53z" />
    <glyph glyph-name="logicalnot" unicode="&#xac;" horiz-adv-x="515" 
d="M42 362h395v-279h-125v160h-270v119z" />
    <glyph glyph-name="asciitilde.case" horiz-adv-x="515" 
d="M151 269h-112c0 120 45 178 128 178c88 0 109 -54 152 -54c34 0 45 22 45 53h112c0 -119 -45 -177 -128 -177c-89 0 -109 53 -152 53c-34 0 -45 -21 -45 -53z" />
    <glyph glyph-name="logicalnot.case" horiz-adv-x="515" 
d="M42 432h395v-279h-125v160h-270v119z" />
    <glyph glyph-name="asciicircum" unicode="^" horiz-adv-x="526" 
d="M32 388l176 312h110l177 -312h-129l-106 188l-106 -188h-122z" />
    <glyph glyph-name="infinity" unicode="&#x221e;" horiz-adv-x="845" 
d="M613 79c-70 0 -122 24 -192 117c-70 -92 -122 -117 -192 -117c-134 0 -203 107 -203 218c0 112 69 219 203 219c70 0 123 -25 192 -116c70 92 122 116 192 116c134 0 204 -107 204 -219c0 -111 -70 -218 -204 -218zM236 205c37 0 66 22 114 92c-48 70 -77 93 -114 93
c-54 0 -84 -39 -84 -93c0 -56 30 -92 84 -92zM492 297c48 -69 77 -92 114 -92c54 0 84 36 84 92c0 54 -30 93 -84 93c-37 0 -66 -23 -114 -93z" />
    <glyph glyph-name="emptyset" unicode="&#x2205;" horiz-adv-x="624" 
d="M539 517c34 -43 53 -98 53 -160c0 -154 -117 -263 -280 -263c-63 0 -119 16 -164 45l-43 -42l-66 65l41 40c-30 43 -48 95 -48 155c0 153 117 263 280 263c60 0 113 -15 157 -41l46 44l66 -65zM175 357c0 -19 3 -38 9 -54l190 184c-18 9 -39 14 -62 14
c-79 0 -137 -61 -137 -144zM312 212c79 0 137 62 137 145c0 22 -4 43 -12 62l-194 -189c20 -11 43 -18 69 -18z" />
    <glyph glyph-name="integral" unicode="&#x222b;" horiz-adv-x="406" 
d="M24 13h57c35 0 51 17 51 57v468c0 101 51 162 155 162h95v-119h-58c-34 0 -51 -17 -51 -57v-468c0 -101 -50 -162 -155 -162h-94v119z" />
    <glyph glyph-name="uni2126" unicode="&#x2126;" horiz-adv-x="731" 
d="M420 0v186c94 60 121 125 121 213c0 106 -75 181 -177 181c-101 0 -174 -75 -174 -181c0 -88 26 -153 121 -214v-185h-263v129h159v19c-127 44 -170 139 -170 259c0 189 137 299 327 299c194 0 331 -110 331 -298c0 -122 -49 -220 -171 -260v-19h160v-129h-264z" />
    <glyph glyph-name="uni2206" unicode="&#x2206;" horiz-adv-x="704" 
d="M26 0v119l235 581h183l235 -581v-119h-653zM184 135h327l-164 414z" />
    <glyph glyph-name="product" unicode="&#x220f;" horiz-adv-x="739" 
d="M714 700v-129h-76v-677h-150v677h-238v-677h-150v677h-76v129h690z" />
    <glyph glyph-name="summation" unicode="&#x2211;" horiz-adv-x="627" 
d="M33 13l270 298l-251 270v119h527v-129h-334l198 -211v-95l-224 -244h368v-127h-554v119z" />
    <glyph glyph-name="radical" unicode="&#x221a;" horiz-adv-x="625" 
d="M102 328l-44 -22l-47 104l163 78l137 -315l166 527h137l-224 -700h-140z" />
    <glyph glyph-name="uni00B5" unicode="&#xb5;" horiz-adv-x="593" 
d="M190 20v-220h-141v714h141v-259c0 -93 32 -144 104 -144c67 0 109 56 109 153v250h141v-514h-126l-11 67c-32 -43 -74 -73 -140 -73c-32 0 -63 13 -77 26z" />
    <glyph glyph-name="partialdiff" unicode="&#x2202;" horiz-adv-x="607" 
d="M34 232c0 150 115 225 233 225c54 0 112 -13 147 -47c-28 90 -107 156 -302 174v122c322 -5 460 -207 460 -433c0 -153 -88 -279 -273 -279c-162 0 -265 102 -265 238zM299 107c77 0 127 52 127 128c0 73 -54 120 -127 120c-72 0 -121 -51 -121 -124s49 -124 121 -124z
" />
    <glyph glyph-name="percent" unicode="%" horiz-adv-x="934" 
d="M45 533c0 100 78 173 183 173c106 0 183 -73 183 -173s-77 -173 -183 -173c-105 0 -183 73 -183 173zM158 0l480 700h139l-480 -700h-139zM298 533c0 41 -30 71 -70 71c-39 0 -69 -30 -69 -71s30 -71 69 -71c40 0 70 30 70 71zM523 167c0 100 77 173 183 173
c105 0 183 -73 183 -173s-78 -173 -183 -173c-106 0 -183 73 -183 173zM775 167c0 40 -30 71 -69 71c-40 0 -70 -31 -70 -71c0 -41 30 -71 70 -71c39 0 69 30 69 71z" />
    <glyph glyph-name="perthousand" unicode="&#x2030;" horiz-adv-x="1336" 
d="M45 533c0 100 78 173 183 173c106 0 183 -73 183 -173s-77 -173 -183 -173c-105 0 -183 73 -183 173zM158 0l480 700h139l-480 -700h-139zM298 533c0 41 -30 71 -70 71c-39 0 -69 -30 -69 -71s30 -71 69 -71c40 0 70 30 70 71zM523 167c0 100 77 173 183 173
c105 0 183 -73 183 -173s-78 -173 -183 -173c-106 0 -183 73 -183 173zM925 167c0 100 78 173 183 173c106 0 183 -73 183 -173s-77 -173 -183 -173c-105 0 -183 73 -183 173zM775 167c0 40 -30 71 -69 71c-40 0 -70 -31 -70 -71c0 -41 30 -71 70 -71c39 0 69 30 69 71z
M1178 167c0 40 -30 71 -70 71c-39 0 -69 -31 -69 -71c0 -41 30 -71 69 -71c40 0 70 30 70 71z" />
    <glyph glyph-name="arrowup" unicode="&#x2191;" horiz-adv-x="658" 
d="M614 237l-86 -86l-135 140v-291h-129v291l-134 -140l-87 86l286 285z" />
    <glyph glyph-name="arrowup.case" horiz-adv-x="757" 
d="M39 365l340 341l340 -341l-102 -103l-166 169v-431h-145v431l-166 -169z" />
    <glyph glyph-name="uni2197" unicode="&#x2197;" horiz-adv-x="512" 
d="M134 88l-91 92l234 223l-213 -1l1 112h403v-404h-111l1 212z" />
    <glyph glyph-name="uni2197.case" horiz-adv-x="679" 
d="M159 700h481v-480h-143l1 236l-357 -356l-102 102l356 355l-236 -1v144z" />
    <glyph glyph-name="arrowright" unicode="&#x2192;" horiz-adv-x="619" 
d="M590 268l-285 -286l-86 87l141 134h-334v130h334l-141 134l86 87z" />
    <glyph glyph-name="arrowright.case" horiz-adv-x="786" 
d="M406 690l341 -340l-341 -341l-103 102l169 166h-433v145h433l-169 166z" />
    <glyph glyph-name="uni2198" unicode="&#x2198;" horiz-adv-x="525" 
d="M78 0l-1 112l213 -1l-247 236l91 92l237 -247l-1 212h111v-404h-403z" />
    <glyph glyph-name="uni2198.case" horiz-adv-x="679" 
d="M159 0v144l236 -1l-356 355l102 102l357 -356l-1 236h143v-480h-481z" />
    <glyph glyph-name="arrowdown" unicode="&#x2193;" horiz-adv-x="658" 
d="M614 279l-285 -285l-286 285l87 86l134 -141v292h129v-292l135 141z" />
    <glyph glyph-name="arrowdown.case" horiz-adv-x="757" 
d="M39 335l101 103l166 -169v431h145v-431l166 169l102 -103l-340 -341z" />
    <glyph glyph-name="uni2199" unicode="&#x2199;" horiz-adv-x="525" 
d="M43 0v404h112l-1 -213l236 247l92 -91l-247 -236l212 1v-112h-404z" />
    <glyph glyph-name="uni2199.case" horiz-adv-x="679" 
d="M538 600l102 -103l-356 -355l236 1v-143l-481 -1v481h144l-1 -236z" />
    <glyph glyph-name="arrowleft" unicode="&#x2190;" horiz-adv-x="619" 
d="M29 268l285 286l86 -87l-141 -134h335v-130h-335l141 -134l-86 -87z" />
    <glyph glyph-name="arrowleft.case" horiz-adv-x="786" 
d="M380 690l103 -102l-169 -166h433v-145h-433l169 -166l-103 -102l-341 341z" />
    <glyph glyph-name="uni2196" unicode="&#x2196;" horiz-adv-x="512" 
d="M377 88l-223 234l1 -212h-112v404h404l1 -112l-213 1l233 -223z" />
    <glyph glyph-name="uni2196.case" horiz-adv-x="679" 
d="M520 700v-144l-236 1l356 -355l-102 -102l-356 356l1 -236h-144v480h481z" />
    <glyph glyph-name="arrowboth" unicode="&#x2194;" horiz-adv-x="861" 
d="M563 527l259 -259l-259 -259l-86 87l114 107h-322l115 -107l-86 -87l-259 259l259 259l86 -87l-115 -107h322l-114 107z" />
    <glyph glyph-name="arrowboth.case" horiz-adv-x="1029" 
d="M1026 349l-331 -329l-101 101l155 156h-470l155 -156l-100 -101l-331 329l103 103l228 228l102 -101l-157 -156h471l-158 156l103 101z" />
    <glyph glyph-name="arrowupdn" unicode="&#x2195;" horiz-adv-x="596" 
d="M39 469l259 258l259 -258l-87 -86l-107 114v-302l107 114l87 -86l-260 -258l-258 258l87 86l107 -114v302l-107 -114z" />
    <glyph glyph-name="uni25CF" unicode="&#x25cf;" horiz-adv-x="788" 
d="M394 706c-209 0 -362 -148 -362 -356s153 -356 362 -356c210 0 363 148 363 356s-153 356 -363 356z" />
    <glyph glyph-name="circle" unicode="&#x25cb;" horiz-adv-x="790" 
d="M395 706c210 0 364 -148 364 -356s-154 -356 -364 -356s-363 148 -363 356s153 356 363 356zM395 619c-152 0 -262 -113 -262 -269s110 -269 262 -269c153 0 262 113 262 269s-109 269 -262 269z" />
    <glyph glyph-name="lozenge" unicode="&#x25ca;" horiz-adv-x="649" 
d="M412 700l198 -350l-198 -350h-175l-198 350l198 350h175zM325 115l122 235l-122 236l-123 -236z" />
    <glyph glyph-name="uni25AF" unicode="&#x25af;" horiz-adv-x="621" 
d="M60 700h502v-700h-502v700zM202 570v-440h217v440h-217z" />
    <glyph glyph-name="filledbox" unicode="&#x25a0;" horiz-adv-x="823" 
d="M60 700h704v-700h-704v700z" />
    <glyph glyph-name="uni25A1" unicode="&#x25a1;" horiz-adv-x="821" 
d="M60 700h702v-700h-702v700zM202 570v-439h417v439h-417z" />
    <glyph glyph-name="uni25FD" unicode="&#x25fd;" horiz-adv-x="612" 
d="M49 515h514v-515h-514v515zM160 410v-304h291v304h-291z" />
    <glyph glyph-name="uni25FE" unicode="&#x25fe;" horiz-adv-x="612" 
d="M49 515h514v-515h-514v515z" />
    <glyph glyph-name="triagup" unicode="&#x25b2;" horiz-adv-x="849" 
d="M426 712l409 -712h-820z" />
    <glyph glyph-name="uni25B6" unicode="&#x25b6;" horiz-adv-x="499" 
d="M49 506l446 -256l-446 -256v512z" />
    <glyph glyph-name="uni25C0" unicode="&#x25c0;" horiz-adv-x="499" 
d="M450 506v-512l-446 256z" />
    <glyph glyph-name="uni25B3" unicode="&#x25b3;" horiz-adv-x="849" 
d="M426 712l409 -712h-820zM425 450l-186 -322h371z" />
    <glyph glyph-name="uni25B7" unicode="&#x25b7;" horiz-adv-x="512" 
d="M49 521l459 -263l-459 -264v527zM157 171l153 87l-153 87v-174z" />
    <glyph glyph-name="uni25C1" unicode="&#x25c1;" horiz-adv-x="512" 
d="M463 521v-527l-459 264zM355 171v174l-154 -87z" />
    <glyph glyph-name="uni262E" unicode="&#x262e;" horiz-adv-x="780" 
d="M32 350c0 208 149 356 358 356s359 -148 359 -356s-150 -356 -359 -356s-358 148 -358 356zM336 432v148c-109 -20 -183 -110 -183 -230c0 -30 8 -58 21 -81zM444 580v-149l161 -163c14 23 23 51 23 82c0 120 -75 210 -184 230zM444 296v-176c46 8 85 28 115 58zM336 294
l-115 -117c31 -29 70 -49 115 -57v174z" />
    <glyph glyph-name="uni26AA" unicode="&#x26aa;" horiz-adv-x="576" 
d="M288 508c148 0 259 -110 259 -256s-111 -257 -259 -257s-259 111 -259 257s111 256 259 256zM288 401c-82 0 -146 -65 -146 -149s64 -149 146 -149s146 65 146 149s-64 149 -146 149z" />
    <glyph glyph-name="uni26AB" unicode="&#x26ab;" horiz-adv-x="576" 
d="M288 508c148 0 259 -110 259 -256s-111 -257 -259 -257s-259 111 -259 257s111 256 259 256z" />
    <glyph glyph-name="uni2713" unicode="&#x2713;" horiz-adv-x="980" 
d="M15 349l99 99l251 -249l500 501l101 -99l-601 -601z" />
    <glyph glyph-name="uni2715" unicode="&#x2715;" horiz-adv-x="767" 
d="M134 700l250 -250l250 250l100 -99l-251 -251l251 -251l-100 -99l-250 251l-251 -251l-99 99l251 251l-251 251z" />
    <glyph glyph-name="at" unicode="@" horiz-adv-x="981" 
d="M44 242c0 256 208 438 466 438c253 0 427 -150 427 -365c0 -162 -104 -268 -242 -268c-62 0 -101 35 -110 79l-3 13c-26 -55 -84 -91 -150 -91c-87 0 -168 69 -168 192c0 129 86 230 201 230c69 0 110 -32 118 -64l18 57h113l-32 -279c-4 -40 10 -55 40 -55
c56 0 111 80 111 191c0 168 -125 276 -326 276c-205 0 -359 -153 -359 -352c0 -202 128 -314 355 -314c81 0 156 19 219 51l-4 -91c-48 -28 -130 -48 -228 -48c-257 0 -446 153 -446 400zM574 280c0 60 -34 89 -79 89c-57 0 -100 -54 -100 -120s36 -99 79 -99
c53 0 100 49 100 130z" />
    <glyph glyph-name="ampersand" unicode="&#x26;" horiz-adv-x="804" 
d="M615 137c17 -18 30 -20 51 -20h71v-117h-93c-52 0 -99 11 -137 51l-12 12c-57 -47 -115 -69 -187 -69c-140 0 -251 62 -250 190c1 66 34 141 146 192c-46 57 -55 92 -55 150c0 103 91 180 219 180c109 0 196 -69 196 -165c0 -68 -32 -129 -159 -182l2 -2l111 -118l88 139
h133l-147 -217zM363 607c-45 0 -76 -33 -76 -77c0 -40 15 -63 49 -100c69 30 95 65 95 108c0 41 -28 69 -68 69zM317 103c41 0 74 13 107 36l-157 167c-48 -29 -63 -65 -63 -107c0 -62 44 -96 113 -96z" />
    <glyph glyph-name="paragraph" unicode="&#xb6;" horiz-adv-x="747" 
d="M356 0v221h-75c-156 0 -259 95 -259 239c0 145 103 240 259 240h209v-700h-134zM554 700h134v-700h-134v700z" />
    <glyph glyph-name="section" unicode="&#xa7;" horiz-adv-x="633" 
d="M574 305c0 -61 -40 -103 -108 -129c39 -25 64 -59 64 -115c0 -101 -85 -167 -215 -167c-125 0 -212 62 -218 162h137c3 -39 34 -63 81 -63c46 0 77 20 76 57c0 42 -34 56 -92 73c-126 37 -240 67 -240 172c0 63 38 106 103 132c-37 24 -60 58 -60 112
c0 101 85 167 216 167c124 0 211 -61 216 -162h-136c-3 39 -33 63 -80 63s-78 -20 -78 -57c1 -42 34 -56 93 -73c127 -37 241 -67 241 -172zM318 231c16 -4 31 -9 46 -13c38 13 63 36 63 75c0 41 -34 55 -113 76c-15 4 -30 8 -45 13c-39 -14 -64 -36 -64 -74
c0 -42 34 -56 113 -77z" />
    <glyph glyph-name="copyright" unicode="&#xa9;" horiz-adv-x="797" 
d="M31 350c0 203 157 356 367 356c209 0 367 -153 367 -356s-158 -356 -367 -356c-210 0 -367 153 -367 356zM689 350c0 167 -125 291 -291 291c-167 0 -290 -124 -290 -291s123 -291 290 -291c166 0 291 124 291 291zM582 297c-13 -98 -84 -152 -183 -152
c-125 0 -197 96 -197 206s72 206 197 206c91 0 170 -52 183 -153h-89c-11 42 -46 73 -93 73c-71 0 -106 -57 -106 -126s36 -126 106 -126c48 0 82 27 94 72h88z" />
    <glyph glyph-name="registered" unicode="&#xae;" horiz-adv-x="523" 
d="M39 490c0 122 100 216 222 216c123 0 223 -94 223 -215c0 -122 -100 -216 -223 -216c-122 0 -222 94 -222 215zM428 490c0 94 -73 167 -167 167c-93 0 -165 -73 -165 -168c0 -93 72 -165 165 -165c94 0 167 72 167 166zM177 605h92c55 0 91 -31 91 -77
c0 -30 -16 -53 -43 -66l46 -85h-63l-39 72h-27v-72h-57v228zM234 559v-62h32c21 0 35 12 35 31c0 20 -13 31 -35 31h-32z" />
    <glyph glyph-name="trademark" unicode="&#x2122;" horiz-adv-x="713" 
d="M45 700h239v-67h-83v-201h-72v201h-84v67zM314 700h102l74 -175l70 175h100v-268h-71v173l-75 -173h-54l-75 173v-173h-71v268z" />
    <glyph glyph-name="degree" unicode="&#xb0;" horiz-adv-x="436" 
d="M39 537c0 96 78 169 179 169c100 0 179 -73 179 -169c0 -97 -79 -170 -179 -170c-101 0 -179 73 -179 170zM299 537c0 47 -35 81 -81 81s-81 -34 -81 -81s35 -82 81 -82s81 35 81 82z" />
    <glyph glyph-name="bar" unicode="|" horiz-adv-x="260" 
d="M60 700h141v-900h-141v900z" />
    <glyph glyph-name="bar.case" horiz-adv-x="268" 
d="M60 700h149v-700h-149v700z" />
    <glyph glyph-name="brokenbar" unicode="&#xa6;" horiz-adv-x="260" 
d="M60 700h141v-411h-141v411zM60 206h141v-406h-141v406z" />
    <glyph glyph-name="brokenbar.case" horiz-adv-x="268" 
d="M60 700h149v-317h-149v317zM60 313h149v-313h-149v313z" />
    <glyph glyph-name="dagger" unicode="&#x2020;" horiz-adv-x="519" 
d="M494 507v-115h-172v-392h-125v392h-172v115h172v193h125v-193h172z" />
    <glyph glyph-name="daggerdbl" unicode="&#x2021;" horiz-adv-x="567" 
d="M526 430h-179v-160h179v-114h-179v-156h-126v156h-180v114h180v160h-180v114h180v156h126v-156h179v-114z" />
    <glyph glyph-name="uni02BC" unicode="&#x2bc;" horiz-adv-x="378" 
d="M145 700h132l-68 -148h-99z" />
    <glyph glyph-name="uni0308" unicode="&#x308;" horiz-adv-x="0" 
d="M-381 639c0 42 33 73 76 73s75 -31 75 -73c0 -41 -32 -73 -75 -73s-76 32 -76 73zM-170 639c0 42 33 73 75 73c43 0 76 -31 76 -73c0 -41 -33 -73 -76 -73c-42 0 -75 32 -75 73z" />
    <glyph glyph-name="uni0307" unicode="&#x307;" horiz-adv-x="0" 
d="M-200 569c-46 0 -82 34 -82 79c0 46 36 80 82 80s82 -34 82 -80c0 -45 -36 -79 -82 -79z" />
    <glyph glyph-name="gravecomb" unicode="&#x300;" horiz-adv-x="0" 
d="M-381 700h161l70 -144h-106z" />
    <glyph glyph-name="acutecomb" unicode="&#x301;" horiz-adv-x="0" 
d="M-249 559l73 141h161l-131 -141h-103z" />
    <glyph glyph-name="uni030B" unicode="&#x30b;" horiz-adv-x="0" 
d="M-360 556l73 144h154l-131 -144h-96zM-161 556l74 144h153l-130 -144h-97z" />
    <glyph glyph-name="uni0302" unicode="&#x302;" horiz-adv-x="0" 
d="M-200 617l-62 -59h-129l128 142h126l128 -142h-130z" />
    <glyph glyph-name="uni030C" unicode="&#x30c;" horiz-adv-x="0" 
d="M-200 641l62 59h129l-128 -142h-126l-128 142h130z" />
    <glyph glyph-name="uni0306" unicode="&#x306;" horiz-adv-x="0" 
d="M-356 700h101c0 -34 21 -56 55 -56c32 0 55 22 55 56h101c-4 -88 -67 -147 -159 -147c-89 0 -149 59 -153 147z" />
    <glyph glyph-name="uni030A" unicode="&#x30a;" horiz-adv-x="0" 
d="M-330 664c0 67 57 121 130 121s130 -54 130 -121c0 -68 -57 -121 -130 -121s-130 53 -130 121zM-142 664c0 33 -25 58 -58 58s-58 -25 -58 -58c0 -34 25 -59 58 -59s58 25 58 59z" />
    <glyph glyph-name="tildecomb" unicode="&#x303;" horiz-adv-x="0" 
d="M-241 613c-21 0 -34 -18 -34 -39h-82v20c0 61 39 107 95 107c58 0 67 -43 104 -43c20 0 33 17 33 39h82v-21c0 -61 -40 -107 -95 -107c-58 0 -70 44 -103 44z" />
    <glyph glyph-name="uni0304" unicode="&#x304;" horiz-adv-x="0" 
d="M-355 589v100h311v-100h-311z" />
    <glyph glyph-name="uni0312" unicode="&#x312;" horiz-adv-x="0" 
d="M-139 554h-137l83 146h107z" />
    <glyph glyph-name="uni0326" unicode="&#x326;" horiz-adv-x="0" 
d="M-272 -48h137l-85 -147h-105z" />
    <glyph glyph-name="uni0327" unicode="&#x327;" horiz-adv-x="0" 
d="M-230 32h74l-16 -62h17c55 0 91 -29 91 -77c0 -57 -43 -93 -109 -93h-119v69h92c17 0 29 7 29 25c0 14 -12 22 -29 22h-59z" />
    <glyph glyph-name="uni0328" unicode="&#x328;" horiz-adv-x="0" 
d="M-407 -103c0 55 38 93 86 125l121 -22c-60 -27 -95 -52 -95 -80c0 -17 12 -26 33 -26h64v-94h-90c-67 0 -119 37 -119 97z" />
    <glyph glyph-name="acute" unicode="&#xb4;" horiz-adv-x="400" 
d="M151 559l73 141h161l-131 -141h-103z" />
    <glyph glyph-name="breve" unicode="&#x2d8;" horiz-adv-x="400" 
d="M44 700h101c0 -34 21 -56 55 -56c32 0 55 22 55 56h101c-4 -88 -67 -147 -159 -147c-89 0 -149 59 -153 147z" />
    <glyph glyph-name="caron" unicode="&#x2c7;" horiz-adv-x="400" 
d="M200 641l62 59h129l-128 -142h-126l-128 142h130z" />
    <glyph glyph-name="cedilla" unicode="&#xb8;" horiz-adv-x="400" 
d="M170 32h74l-16 -62h17c55 0 91 -29 91 -77c0 -57 -43 -93 -109 -93h-119v69h92c17 0 29 7 29 25c0 14 -12 22 -29 22h-59z" />
    <glyph glyph-name="circumflex" unicode="&#x2c6;" horiz-adv-x="400" 
d="M200 617l-62 -59h-129l128 142h126l128 -142h-130z" />
    <glyph glyph-name="dieresis" unicode="&#xa8;" horiz-adv-x="400" 
d="M19 639c0 42 33 73 76 73s75 -31 75 -73c0 -41 -32 -73 -75 -73s-76 32 -76 73zM230 639c0 42 33 73 75 73c43 0 76 -31 76 -73c0 -41 -33 -73 -76 -73c-42 0 -75 32 -75 73z" />
    <glyph glyph-name="dotaccent" unicode="&#x2d9;" horiz-adv-x="400" 
d="M200 569c-46 0 -82 34 -82 79c0 46 36 80 82 80s82 -34 82 -80c0 -45 -36 -79 -82 -79z" />
    <glyph glyph-name="grave" unicode="`" horiz-adv-x="400" 
d="M19 700h161l70 -144h-106z" />
    <glyph glyph-name="hungarumlaut" unicode="&#x2dd;" horiz-adv-x="401" 
d="M40 556l73 144h154l-131 -144h-96zM239 556l74 144h153l-130 -144h-97z" />
    <glyph glyph-name="macron" unicode="&#xaf;" horiz-adv-x="400" 
d="M45 589v100h311v-100h-311z" />
    <glyph glyph-name="ogonek" unicode="&#x2db;" horiz-adv-x="400" 
d="M-7 -103c0 55 38 93 86 125l121 -22c-60 -27 -95 -52 -95 -80c0 -17 12 -26 33 -26h64v-94h-90c-67 0 -119 37 -119 97z" />
    <glyph glyph-name="ring" unicode="&#x2da;" horiz-adv-x="400" 
d="M70 664c0 67 57 121 130 121s130 -54 130 -121c0 -68 -57 -121 -130 -121s-130 53 -130 121zM258 664c0 33 -25 58 -58 58s-58 -25 -58 -58c0 -34 25 -59 58 -59s58 25 58 59z" />
    <glyph glyph-name="tilde" unicode="&#x2dc;" horiz-adv-x="400" 
d="M159 613c-21 0 -34 -18 -34 -39h-82v20c0 61 39 107 95 107c58 0 67 -43 104 -43c20 0 33 17 33 39h82v-21c0 -61 -40 -107 -95 -107c-58 0 -70 44 -103 44z" />
    <glyph glyph-name="uni20BF" unicode="&#x20bf;" horiz-adv-x="652" 
d="M60 700h129v104h91v-104h60v104h90v-112c101 -20 158 -83 158 -176c0 -88 -52 -141 -137 -157c98 -13 162 -62 162 -162s-65 -168 -183 -189v-104h-90v96h-60v-96h-91v96h-129v700zM210 582v-170h129c65 0 99 33 99 85s-33 85 -99 85h-129zM210 296v-177h135
c72 0 114 33 114 87c0 57 -43 90 -114 90h-135z" />
    </font>
</defs>
</svg>
