<svg width="40" height="40" viewBox="0 0 40 40" fill="none" xmlns="http://www.w3.org/2000/svg">
<circle cx="20" cy="20" r="20" fill="#304CC3"/>
<circle cx="20" cy="28" r="2" fill="white"/>
<path fill-rule="evenodd" clip-rule="evenodd" d="M25.6724 23.6695L27.3369 21.1441C25.3459 19.4927 22.7889 18.5 20 18.5C17.2112 18.5 14.6542 19.4927 12.6632 21.1441L14.3276 23.6695C15.8321 22.3205 17.8203 21.5 20 21.5C22.1798 21.5 24.1679 22.3205 25.6724 23.6695ZM29.2803 18.1955L30.9522 15.6588C28.0388 13.0714 24.2029 11.5 20 11.5C15.7971 11.5 11.9612 13.0714 9.04785 15.6588L10.7198 18.1955C13.139 15.9049 16.4054 14.5 20 14.5C23.5946 14.5 26.8611 15.9049 29.2803 18.1955Z" fill="white"/>
<path d="M22.5 11C22.5 9.61929 21.3807 8.5 20 8.5C18.6193 8.5 17.5 9.61929 17.5 11V22C17.5 23.3807 18.6193 24.5 20 24.5C21.3807 24.5 22.5 23.3807 22.5 22V11Z" fill="white" stroke="#304CC3" stroke-width="2"/>
</svg>
