<svg width="40" height="40" viewBox="0 0 40 40" fill="none" xmlns="http://www.w3.org/2000/svg">
<circle cx="20" cy="20" r="20" fill="#304CC3"/>
<path fill-rule="evenodd" clip-rule="evenodd" d="M15.5 14.5C15.5 14.2453 15.7647 13.3449 16.5923 12.4655C17.356 11.6542 18.4777 11 20 11C21.6789 11 22.793 11.5183 23.4741 12.1568C24.1629 12.8025 24.5 13.6525 24.5 14.5C24.5 15.5709 23.8133 16.5625 22.6216 17.6351C22.1842 18.0287 21.7419 18.3799 21.2938 18.7356L21.2938 18.7356C21.1433 18.8552 20.9921 18.9752 20.8403 19.0975C20.3112 19.5236 19.6514 20.0687 19.2519 20.6679C18.7034 21.4907 18.5515 22.4269 18.5033 23.1502C18.4701 23.6484 18.4836 24.2166 18.4933 24.6247V24.6247C18.4969 24.7755 18.5 24.9045 18.5 25C18.5 25.8284 19.1716 26.5 20 26.5C20.8284 26.5 21.5 25.8284 21.5 25C21.5 24.7666 21.4946 24.5606 21.4895 24.3658C21.4806 24.0215 21.4725 23.7124 21.4967 23.3498C21.5318 22.8231 21.6299 22.5093 21.7481 22.3321C21.8486 22.1813 22.1263 21.9139 22.7222 21.4338C22.8415 21.3377 22.9711 21.2349 23.108 21.1262L23.108 21.1262C23.5698 20.7597 24.1151 20.327 24.6284 19.8649C25.9367 18.6875 27.5 16.9291 27.5 14.5C27.5 12.8475 26.8371 11.1975 25.5259 9.96819C24.207 8.73174 22.3211 8 20 8C17.5223 8 15.644 9.09585 14.4077 10.4095C13.2353 11.6551 12.5 13.2547 12.5 14.5C12.5 15.3284 13.1716 16 14 16C14.8284 16 15.5 15.3284 15.5 14.5ZM20 33C18.8421 33 18 32.2143 18 31C18 29.7857 18.8421 29 20 29C21.1579 29 22 29.7857 22 31C22 32.2143 21.1579 33 20 33Z" fill="white"/>
</svg>
