<svg width="156" height="156" viewBox="0 0 156 156" fill="none" xmlns="http://www.w3.org/2000/svg">
<path d="M59 54C59 45.7157 65.7157 39 74 39H82C90.2843 39 97 45.7157 97 54V96C97 98.2091 95.2091 100 93 100H63C60.7909 100 59 98.2091 59 96V54Z" stroke="#092532" stroke-width="1.5"/>
<path d="M74.155 67.1537L74.155 67.9037L74.905 67.9037V67.1537H74.155ZM69 67.1537L69 66.4037H69V67.1537ZM74.155 74.8466H74.905V74.0966H74.155V74.8466ZM81.8479 74.8466V74.0966H81.0979V74.8466H81.8479ZM87.0016 67.1537L87.0016 67.9037H87.0016V67.1537ZM81.8479 67.1537H81.0979V67.9037L81.8479 67.9037L81.8479 67.1537ZM74.905 62C74.905 61.8619 75.0169 61.75 75.155 61.75V60.25C74.1885 60.25 73.405 61.0335 73.405 62H74.905ZM74.905 67.1537V62H73.405V67.1537H74.905ZM69 67.9037L74.155 67.9037L74.155 66.4037L69 66.4037L69 67.9037ZM68.75 68.1537C68.75 68.0156 68.8619 67.9037 69 67.9037V66.4037C68.0335 66.4037 67.25 67.1872 67.25 68.1537H68.75ZM68.75 73.8466V68.1537H67.25V73.8466H68.75ZM69 74.0966C68.8619 74.0966 68.75 73.9846 68.75 73.8466H67.25C67.25 74.8131 68.0335 75.5966 69 75.5966V74.0966ZM74.155 74.0966H69V75.5966H74.155V74.0966ZM74.905 80.0016V74.8466H73.405V80.0016H74.905ZM75.155 80.2516C75.0169 80.2516 74.905 80.1396 74.905 80.0016H73.405C73.405 80.9681 74.1885 81.7516 75.155 81.7516V80.2516ZM80.8479 80.2516H75.155V81.7516H80.8479V80.2516ZM81.0979 80.0016C81.0979 80.1396 80.986 80.2516 80.8479 80.2516V81.7516C81.8144 81.7516 82.5979 80.9681 82.5979 80.0016H81.0979ZM81.0979 74.8466V80.0016H82.5979V74.8466H81.0979ZM87.0016 74.0966H81.8479V75.5966H87.0016V74.0966ZM87.2516 73.8466C87.2516 73.9846 87.1396 74.0966 87.0016 74.0966V75.5966C87.9681 75.5966 88.7516 74.8131 88.7516 73.8466H87.2516ZM87.2516 68.1537V73.8466H88.7516V68.1537H87.2516ZM87.0016 67.9037C87.1396 67.9037 87.2516 68.0156 87.2516 68.1537H88.7516C88.7516 67.1872 87.9681 66.4037 87.0016 66.4037V67.9037ZM81.8479 67.9037L87.0016 67.9037L87.0016 66.4037L81.8479 66.4037L81.8479 67.9037ZM81.0979 62V67.1537H82.5979V62H81.0979ZM80.8479 61.75C80.986 61.75 81.0979 61.8619 81.0979 62H82.5979C82.5979 61.0335 81.8144 60.25 80.8479 60.25V61.75ZM75.155 61.75H80.8479V60.25H75.155V61.75Z" fill="#092532"/>
<path d="M59 54L97 54" stroke="#092532" stroke-width="1.5"/>
<path d="M59.5 89H97" stroke="#092532" stroke-width="1.5"/>
<path d="M70 29C70 26.7909 71.7909 25 74 25H82C84.2091 25 86 26.7909 86 29V36H70V29Z" stroke="#092532" stroke-width="1.5"/>
</svg>
