<svg width="156" height="156" viewBox="0 0 156 156" fill="none" xmlns="http://www.w3.org/2000/svg">
<mask id="path-1-inside-1" fill="white">
<path fill-rule="evenodd" clip-rule="evenodd" d="M78 34C74.134 34 71 37.134 71 41V77.0436C67.3917 79.3538 65 83.3976 65 88C65 95.1797 70.8203 101 78 101C85.1797 101 91 95.1797 91 88C91 83.3976 88.6083 79.3538 85 77.0436V41C85 37.134 81.866 34 78 34Z"/>
</mask>
<path d="M71 77.0436L71.8088 78.3069L72.5 77.8644V77.0436H71ZM85 77.0436H83.5V77.8644L84.1912 78.3069L85 77.0436ZM72.5 41C72.5 37.9624 74.9624 35.5 78 35.5V32.5C73.3056 32.5 69.5 36.3056 69.5 41H72.5ZM72.5 77.0436V41H69.5V77.0436H72.5ZM66.5 88C66.5 83.9302 68.613 80.353 71.8088 78.3069L70.1912 75.7804C66.1704 78.3546 63.5 82.8649 63.5 88H66.5ZM78 99.5C71.6487 99.5 66.5 94.3513 66.5 88H63.5C63.5 96.0081 69.9919 102.5 78 102.5V99.5ZM89.5 88C89.5 94.3513 84.3513 99.5 78 99.5V102.5C86.0081 102.5 92.5 96.0081 92.5 88H89.5ZM84.1912 78.3069C87.387 80.353 89.5 83.9302 89.5 88H92.5C92.5 82.8649 89.8296 78.3546 85.8088 75.7804L84.1912 78.3069ZM83.5 41V77.0436H86.5V41H83.5ZM78 35.5C81.0376 35.5 83.5 37.9624 83.5 41H86.5C86.5 36.3056 82.6944 32.5 78 32.5V35.5Z" fill="#092532" mask="url(#path-1-inside-1)"/>
<path d="M82.25 88C82.25 90.3472 80.3472 92.25 78 92.25V93.75C81.1756 93.75 83.75 91.1756 83.75 88H82.25ZM78 92.25C75.6528 92.25 73.75 90.3472 73.75 88H72.25C72.25 91.1756 74.8244 93.75 78 93.75V92.25ZM73.75 88C73.75 85.6528 75.6528 83.75 78 83.75V82.25C74.8244 82.25 72.25 84.8244 72.25 88H73.75ZM78 83.75C80.3472 83.75 82.25 85.6528 82.25 88H83.75C83.75 84.8244 81.1756 82.25 78 82.25V83.75Z" fill="#092532"/>
<path d="M78 82L78 43" stroke="#092532" stroke-width="1.5" stroke-linecap="round"/>
<path d="M88 44L98 44" stroke="#092532" stroke-width="1.5"/>
<path d="M88 48L97 48" stroke="#092532" stroke-width="1.5"/>
<path d="M88 56L93 56" stroke="#092532" stroke-width="1.5"/>
<path d="M88 52L95 52" stroke="#092532" stroke-width="1.5"/>
<path d="M88 60L91 60" stroke="#092532" stroke-width="1.5"/>
</svg>
