<svg width="156" height="156" viewBox="0 0 156 156" fill="none" xmlns="http://www.w3.org/2000/svg">
<path d="M56.1946 37.6925L56.1946 38.4425L56.9446 38.4425V37.6925H56.1946ZM53.5039 37.6925L53.5039 36.9425H53.5039V37.6925ZM56.1946 42.3079H56.9446V41.5579H56.1946V42.3079ZM60.81 42.3079V41.5579H60.06V42.3079H60.81ZM63.5039 37.6925L63.5039 38.4425H63.5039V37.6925ZM60.81 37.6925H60.06V38.4425L60.81 38.4425L60.81 37.6925ZM56.9446 35C56.9446 34.8619 57.0566 34.75 57.1946 34.75V33.25C56.2282 33.25 55.4446 34.0335 55.4446 35H56.9446ZM56.9446 37.6925V35H55.4446V37.6925H56.9446ZM53.5039 38.4425L56.1946 38.4425L56.1947 36.9425L53.5039 36.9425L53.5039 38.4425ZM53.2539 38.6925C53.2539 38.5544 53.3658 38.4425 53.5039 38.4425V36.9425C52.5374 36.9425 51.7539 37.726 51.7539 38.6925H53.2539ZM53.2539 41.3079V38.6925H51.7539V41.3079H53.2539ZM53.5039 41.5579C53.3658 41.5579 53.2539 41.446 53.2539 41.3079H51.7539C51.7539 42.2744 52.5374 43.0579 53.5039 43.0579V41.5579ZM56.1946 41.5579H53.5039V43.0579H56.1946V41.5579ZM56.9446 45V42.3079H55.4446V45H56.9446ZM57.1946 45.25C57.0566 45.25 56.9446 45.1381 56.9446 45H55.4446C55.4446 45.9665 56.2282 46.75 57.1946 46.75V45.25ZM59.81 45.25H57.1946V46.75H59.81V45.25ZM60.06 45C60.06 45.1381 59.9481 45.25 59.81 45.25V46.75C60.7765 46.75 61.56 45.9665 61.56 45H60.06ZM60.06 42.3079V45H61.56V42.3079H60.06ZM63.5039 41.5579H60.81V43.0579H63.5039V41.5579ZM63.7539 41.3079C63.7539 41.446 63.642 41.5579 63.5039 41.5579V43.0579C64.4704 43.0579 65.2539 42.2744 65.2539 41.3079H63.7539ZM63.7539 38.6925V41.3079H65.2539V38.6925H63.7539ZM63.5039 38.4425C63.642 38.4425 63.7539 38.5544 63.7539 38.6925H65.2539C65.2539 37.726 64.4704 36.9425 63.5039 36.9425V38.4425ZM60.81 38.4425L63.5039 38.4425L63.5039 36.9425L60.81 36.9425L60.81 38.4425ZM60.06 35V37.6925H61.56V35H60.06ZM59.81 34.75C59.9481 34.75 60.06 34.8619 60.06 35H61.56C61.56 34.0335 60.7765 33.25 59.81 33.25V34.75ZM57.1946 34.75H59.81V33.25H57.1946V34.75Z" fill="#092532"/>
<path d="M79.2698 43.7675V44.5175H80.0198V43.7675H79.2698ZM77.5039 43.7675L77.5039 44.5175H77.5039V43.7675ZM79.2698 47.2291H80.0198V46.4791H79.2698V47.2291ZM82.7313 47.2291V46.4791H81.9813V47.2291H82.7313ZM82.7313 43.7675H81.9813V44.5175H82.7313V43.7675ZM80.0198 42C80.0198 41.8619 80.1317 41.75 80.2698 41.75V40.25C79.3033 40.25 78.5198 41.0335 78.5198 42H80.0198ZM80.0198 43.7675V42H78.5198V43.7675H80.0198ZM77.5039 44.5175H79.2698V43.0175H77.5039V44.5175ZM77.2539 44.7675C77.2539 44.6295 77.3658 44.5175 77.5039 44.5175L77.5039 43.0175C76.5374 43.0175 75.7539 43.801 75.7539 44.7675H77.2539ZM77.2539 46.2291V44.7675H75.7539V46.2291H77.2539ZM77.5039 46.4791C77.3658 46.4791 77.2539 46.3671 77.2539 46.2291H75.7539C75.7539 47.1956 76.5374 47.9791 77.5039 47.9791V46.4791ZM79.2698 46.4791H77.5039V47.9791H79.2698V46.4791ZM80.0198 49V47.2291H78.5198V49H80.0198ZM80.2698 49.25C80.1317 49.25 80.0198 49.1381 80.0198 49H78.5198C78.5198 49.9665 79.3033 50.75 80.2698 50.75V49.25ZM81.7313 49.25H80.2698V50.75H81.7313V49.25ZM81.9813 49C81.9813 49.1381 81.8694 49.25 81.7313 49.25V50.75C82.6978 50.75 83.4813 49.9665 83.4813 49H81.9813ZM81.9813 47.2291V49H83.4813V47.2291H81.9813ZM84.5039 46.4791H82.7313V47.9791H84.5039V46.4791ZM84.7539 46.2291C84.7539 46.3671 84.642 46.4791 84.5039 46.4791V47.9791C85.4704 47.9791 86.2539 47.1956 86.2539 46.2291H84.7539ZM84.7539 44.7675V46.2291H86.2539V44.7675H84.7539ZM84.5039 44.5175C84.642 44.5175 84.7539 44.6295 84.7539 44.7675H86.2539C86.2539 43.801 85.4704 43.0175 84.5039 43.0175V44.5175ZM82.7313 44.5175H84.5039V43.0175H82.7313V44.5175ZM81.9813 42V43.7675H83.4813V42H81.9813ZM81.7313 41.75C81.8694 41.75 81.9813 41.8619 81.9813 42H83.4813C83.4813 41.0335 82.6978 40.25 81.7313 40.25V41.75ZM80.2698 41.75H81.7313V40.25H80.2698V41.75Z" fill="#092532"/>
<path d="M65.9644 57.8601V58.6101H66.7144V57.8601H65.9644ZM65.9644 60.937H66.7144V60.187H65.9644V60.937ZM69.0413 60.937V60.187H68.2913V60.937H69.0413ZM69.0413 57.8601H68.2913V58.6101H69.0413V57.8601ZM66.7144 56.3984C66.7144 56.2604 66.8263 56.1484 66.9644 56.1484V54.6484C65.9979 54.6484 65.2144 55.4319 65.2144 56.3984H66.7144ZM66.7144 57.8601V56.3984H65.2144V57.8601H66.7144ZM64.5039 58.6101H65.9644V57.1101H64.5039V58.6101ZM64.2539 58.8601C64.2539 58.722 64.3658 58.6101 64.5039 58.6101V57.1101C63.5374 57.1101 62.7539 57.8936 62.7539 58.8601H64.2539ZM64.2539 59.937V58.8601H62.7539V59.937H64.2539ZM64.5039 60.187C64.3658 60.187 64.2539 60.0751 64.2539 59.937H62.7539C62.7539 60.9035 63.5374 61.687 64.5039 61.687V60.187ZM65.9644 60.187H64.5039V61.687H65.9644V60.187ZM66.7144 62.3984V60.937H65.2144V62.3984H66.7144ZM66.9644 62.6484C66.8263 62.6484 66.7144 62.5365 66.7144 62.3984H65.2144C65.2144 63.3649 65.9979 64.1484 66.9644 64.1484V62.6484ZM68.0413 62.6484H66.9644V64.1484H68.0413V62.6484ZM68.2913 62.3984C68.2913 62.5365 68.1794 62.6484 68.0413 62.6484V64.1484C69.0078 64.1484 69.7913 63.3649 69.7913 62.3984H68.2913ZM68.2913 60.937V62.3984H69.7913V60.937H68.2913ZM70.5039 60.187H69.0413V61.687H70.5039V60.187ZM70.7539 59.937C70.7539 60.0751 70.642 60.187 70.5039 60.187V61.687C71.4704 61.687 72.2539 60.9035 72.2539 59.937H70.7539ZM70.7539 58.8601V59.937H72.2539V58.8601H70.7539ZM70.5039 58.6101C70.642 58.6101 70.7539 58.722 70.7539 58.8601H72.2539C72.2539 57.8936 71.4704 57.1101 70.5039 57.1101V58.6101ZM69.0413 58.6101H70.5039V57.1101H69.0413V58.6101ZM68.2913 56.3984V57.8601H69.7913V56.3984H68.2913ZM68.0413 56.1484C68.1794 56.1484 68.2913 56.2604 68.2913 56.3984H69.7913C69.7913 55.4319 69.0078 54.6484 68.0413 54.6484V56.1484ZM66.9644 56.1484H68.0413V54.6484H66.9644V56.1484Z" fill="#092532"/>
<path d="M90.6712 59.0134C88.7807 62.1301 87.0056 69.9552 84.4852 72.3505C75.0056 78.3984 52.5028 65.8984 45.0029 80.3984C38.0039 85.8984 26.5 91.7783 24.0029 94.3984C23.7522 95.899 42.0039 87.8984 45.0029 83.8984C43.7798 87.9791 44.8143 89.9758 46 91.8984C45.0029 95.3984 49.0504 96.3984 51.5039 96.3984C56.557 96.3984 65.6414 96.5 68 96.5C68.2025 96.1684 68.0029 94.5002 67 94C64.3471 92.6769 57.721 91.7543 56.5 91.8984C59.5 91.5443 95.0039 99.8984 95.0039 89.8984C95.5039 91.8984 94.5056 95.1484 99.0056 95.8984C103.432 95.3984 115.418 95.8984 117.003 95.8984C118.006 95.8984 122.506 96.3984 123.006 95.3984C124.086 93.2764 121.006 91.3984 116.505 91.8984C107.504 90.8984 101.504 89.8984 103.004 87.8984C105.004 85.8984 102.494 70.3948 103.837 69.9552C114.724 70.85 114.504 61.3467 114.504 59.4112C111.398 58.947 107.347 58.8144 103.432 58.3502C102.14 57.5455 102.959 55.6976 101.069 54.9682C96.8408 53.3368 92.8967 55.3701 90.6712 59.0134Z" stroke="#092532" stroke-width="1.5" stroke-miterlimit="10" stroke-linecap="round" stroke-linejoin="round"/>
<path d="M97.6612 60.0854C97.6612 60.0854 100.12 62.9035 99.2728 65.7458C97.5272 70.6274 90.0718 71.3165 89.069 66.1688C88.8281 65.0797 88.9234 63.2874 89.3086 62.2111" stroke="#092532" stroke-width="1.5" stroke-miterlimit="10" stroke-linecap="round" stroke-linejoin="round"/>
<path d="M64.5744 81.3984C66.5039 83.3984 68.0039 93.3984 57.0039 91.8984" stroke="#092532" stroke-width="1.5" stroke-linecap="round"/>
</svg>
