<svg width="156" height="156" viewBox="0 0 156 156" fill="none" xmlns="http://www.w3.org/2000/svg">
<path d="M43.6133 80.7292C43.6133 80.7292 49.9979 93.0494 49.9979 94.1302H57.4466C57.4466 94.1302 57.4466 89.8073 52.1261 89.8073L48.9338 81.1615C48.9338 81.1615 52.9242 80.9453 53.9883 77.7031" stroke="#092532" stroke-width="1.5" stroke-miterlimit="10" stroke-linecap="round" stroke-linejoin="round"/>
<path d="M83.024 78.5664L89.9301 89.8931C95.5 89 95.5 94.1289 95.5 94.1289H87.7566L79.0625 81.4216" stroke="#092532" stroke-width="1.5" stroke-miterlimit="10" stroke-linecap="round" stroke-linejoin="round"/>
<path d="M32.5465 79.4283C26.426 71.328 31.0432 57.259 40.5997 54.2746C45.1657 52.8178 51.6492 53.0627 56.1693 54.8076C61.7529 56.8326 66.3039 61.3046 72.8127 60.7762C82 60.0304 83.5353 54.3839 89.8592 52.3076C93.8643 51.0065 98.1381 51.9814 100.21 55.9588C100.542 56.6873 100.668 57.1482 100.533 57.909C100.509 58.2395 99.6403 59.9434 99.7402 60.0304C102.334 62.9036 105.246 65.614 107.241 67.9651C102.994 72.4994 96.4685 73.445 92.4973 68.9996C90.6594 68.383 87.3384 71.4584 86.1427 73.0043C85.0897 74.8586 83 82 73.5563 82.5573C73.7696 82.8793 80.6704 94.0685 80.6704 94.0685C86.356 92.4382 86.5 98 86.5 98H78L66.0898 82.5573C59.3934 83.0355 54.0704 76.8492 48.4961 73.9987C45.0286 81.3199 36.6584 85.2031 36.6584 85.2031L40.9928 93.8164C44.2435 93.8164 45.5 98 45.5 98C43.6729 98 39.5 98 37.8504 97.9076C37.3086 97.477 37.0919 96.9386 36.7668 96.4003C34.9247 92.955 32.9742 89.4021 31.1322 85.8491C29.5068 82.6192 32.3241 81.0042 33.6244 77.9896C34.8163 75.0826 35.3581 72.068 35.6832 69.0534" stroke="#092532" stroke-width="1.5" stroke-miterlimit="10" stroke-linecap="round" stroke-linejoin="round"/>
<path d="M92.5932 57.6204C92.5932 57.6204 93.0409 61.2578 90.8537 63.2292C86.8673 66.4671 80.5888 63.2476 82.5378 58.3828C82.9274 57.3389 83.9584 55.8718 84.8376 55.1582" stroke="#092532" stroke-width="1.5" stroke-miterlimit="10" stroke-linecap="round" stroke-linejoin="round"/>
<path d="M108.901 96.6318C101.856 99.3992 94.5003 96.5004 93.4993 100.501C92.9888 102.542 95.2059 103.599 98 103.5C101.104 103.39 104 101.428 106.5 102.502C112.5 105.081 114.137 102.666 116.499 102.999C120.334 103.54 124.999 101.499 122.49 98.2937C120.805 96.1421 114.452 94.4515 108.901 96.6318Z" stroke="#092532" stroke-width="1.5"/>
</svg>
