<svg width="24" height="24" viewBox="0 0 24 24" fill="none" xmlns="http://www.w3.org/2000/svg">
<rect width="24" height="24" rx="12" fill="#1F2E71"/>
<path d="M9.06447 14.8106C7.05603 12.8022 6.24273 9.99699 5.99241 8.92366C5.927 8.64321 6.00479 8.35434 6.18715 8.13145L7.89195 6.0478C8.31762 5.52754 9.12509 5.56703 9.49796 6.12634L10.8247 8.11645C11.0891 8.51307 11.0368 9.04119 10.6998 9.37826L10.0137 10.0643C10.0137 10.0643 10.6466 11.33 11.5959 12.2792C12.5451 13.2285 13.8108 13.8614 13.8108 13.8614L14.4969 13.1754C14.8339 12.8383 15.362 12.786 15.7587 13.0504L17.7488 14.3772C18.3081 14.75 18.3476 15.5575 17.8273 15.9832L15.7437 17.688C15.5208 17.8703 15.2319 17.9481 14.9515 17.8827C13.8781 17.6324 11.0729 16.8191 9.06447 14.8106Z" fill="white"/>
</svg>
