<svg width="24" height="24" viewBox="0 0 24 24" fill="none" xmlns="http://www.w3.org/2000/svg">
<rect width="24" height="24" rx="12" fill="#1F2E71"/>
<path fill-rule="evenodd" clip-rule="evenodd" d="M20 12C20 12 16.4183 16.5 12 16.5C7.58172 16.5 4 12 4 12C4 12 7.58172 7.5 12 7.5C16.4183 7.5 20 12 20 12ZM15 12C15 13.6569 13.6569 15 12 15C10.3431 15 9 13.6569 9 12C9 10.3431 10.3431 9 12 9C13.6569 9 15 10.3431 15 12ZM12 13C12.5523 13 13 12.5523 13 12C13 11.4477 12.5523 11 12 11C11.4477 11 11 11.4477 11 12C11 12.5523 11.4477 13 12 13Z" fill="white"/>
</svg>
