<svg width="24" height="24" viewBox="0 0 24 24" fill="none" xmlns="http://www.w3.org/2000/svg">
<rect width="24" height="24" rx="12" fill="#1F2E71"/>
<path fill-rule="evenodd" clip-rule="evenodd" d="M15.9148 11H7.08548C7.2914 10.4174 7.84702 10 8.50013 10C8.73131 10 8.95027 10.0523 9.14584 10.1457C9.05243 9.95014 9.00013 9.73118 9.00013 9.5C9.00013 8.67157 9.6717 8 10.5001 8C10.6953 8 10.8817 8.03726 11.0527 8.10504C11.226 7.46823 11.8084 7 12.5001 7C13.3286 7 14.0001 7.67157 14.0001 8.5C14.0001 8.73118 13.9478 8.95014 13.8544 9.14571C14.05 9.0523 14.269 9 14.5001 9C15.3286 9 16.0001 9.67157 16.0001 10.5C16.0001 10.6753 15.9701 10.8436 15.9148 11ZM17.2495 12H6.74954L5.46517 15.6697C5.23761 16.3198 5.72018 17 6.40902 17H17.5901C18.2789 17 18.7615 16.3198 18.5339 15.6697L17.2495 12Z" fill="white"/>
</svg>
