<svg width="156" height="156" viewBox="0 0 156 156" fill="none" xmlns="http://www.w3.org/2000/svg">
<path d="M56.7317 71.7949C39.2169 73.812 40.7208 93.4786 48.7253 96H107.773C119.781 89.9487 111.775 76.8376 105.77 76.8376M56.7317 71.7949C53.9288 64.5333 57.234 58.1795 63.7392 56.6667M56.7317 71.7949C59.2344 71.7949 65.0403 71.9966 68.2428 72.8034M63.7392 56.6667C62.238 51.1197 64.437 47.388 73.244 46.5812C84.2528 45.5727 99.7652 44.0598 99.7652 37C101.767 39.0171 101.266 46.5812 97.7636 51.1197C101.266 51.1197 104.769 56.6667 101.266 60.7009M63.7392 56.6667C65.9076 56.6667 71.0451 56.9692 74.2476 58.1795M101.266 60.7009C105.77 62.2137 112.275 66.7521 105.77 76.8376M101.266 60.7009C98.2649 61.8775 90.961 62.8188 85.7568 61.2051M105.77 76.8376C102.375 78.5482 95.6219 78.647 89.76 77.9539" stroke="#092532" stroke-width="1.5" stroke-linecap="round"/>
<path fill-rule="evenodd" clip-rule="evenodd" d="M52.2272 71.3767C49.612 69.0535 48.0953 65.8908 48 62.5627C48 57.7001 51.1736 52.6546 55.5476 45.7008C57.5154 42.5724 59.7261 39.0579 62 35C64.4264 39.8815 67.0469 44.0317 69.3571 47.6907C73.0816 53.5894 76 58.2116 76 62.5627C75.9047 65.8908 74.388 69.0535 71.7728 71.3767C69.1577 73.6999 65.651 75 62 75C58.349 75 54.8423 73.6999 52.2272 71.3767ZM72.9945 63.1075C73.0538 62.5585 72.6568 62.0652 72.1077 62.0059C71.5586 61.9465 71.0654 62.3435 71.006 62.8926C70.9143 63.7416 70.5742 65.1129 69.8647 66.3645C69.1578 67.6116 68.1425 68.6443 66.7322 69.0367C66.2001 69.1847 65.8888 69.7361 66.0369 70.2682C66.1849 70.8002 66.7363 71.1115 67.2683 70.9635C69.358 70.382 70.7386 68.8785 71.6046 67.3509C72.468 65.8278 72.8779 64.1862 72.9945 63.1075Z" fill="#092532"/>
</svg>
