<svg width="156" height="156" viewBox="0 0 156 156" fill="none" xmlns="http://www.w3.org/2000/svg">
<path fill-rule="evenodd" clip-rule="evenodd" d="M45.6986 33.7254C44.8324 34.8874 44.5217 36.3602 44.5217 37.2692C44.5217 39.1173 43.0618 40.6154 41.2609 40.6154C39.4599 40.6154 38 39.1173 38 37.2692C38 35.2039 38.6133 32.2152 40.5188 29.6592C42.5417 26.9456 45.8225 25 50.5 25C54.8555 25 58.0916 26.3348 60.2303 28.5939C62.3167 30.7979 63 33.5068 63 35.5962C63 40.5273 59.4538 43.427 57.2716 45.2114C57.1402 45.3188 57.0138 45.4222 56.8935 45.5217C54.2758 47.6856 53.2174 48.8381 53.2174 50.6538C53.2174 52.5019 51.7575 54 49.9565 54C48.1556 54 46.6957 52.5019 46.6957 50.6538C46.6957 45.3492 50.3479 42.3354 52.6369 40.4465C52.6928 40.4003 52.748 40.3549 52.8022 40.31C55.5728 38.0198 56.4783 37.0605 56.4783 35.5962C56.4783 34.8971 56.2377 33.981 55.5524 33.257C54.9193 32.5883 54.1039 31.6923 51.0682 31.6923C48.3544 31.6923 46.4474 32.7211 45.6986 33.7254Z" stroke="#092532" stroke-width="1.5" stroke-linecap="round"/>
<path d="M60.7317 71.7949C43.2169 73.812 44.7208 93.4786 52.7253 96H111.773C123.781 89.9487 115.775 76.8376 109.77 76.8376M60.7317 71.7949C57.9288 64.5333 61.234 58.1795 67.7392 56.6667M60.7317 71.7949C63.2344 71.7949 69.0403 71.9966 72.2428 72.8034M67.7392 56.6667C66.238 51.1197 68.437 47.388 77.244 46.5812C88.2528 45.5727 103.765 44.0598 103.765 37C105.767 39.0171 105.266 46.5812 101.764 51.1197C105.266 51.1197 108.769 56.6667 105.266 60.7009M67.7392 56.6667C69.9076 56.6667 75.0451 56.9692 78.2476 58.1795M105.266 60.7009C109.77 62.2137 116.275 66.7521 109.77 76.8376M105.266 60.7009C102.265 61.8775 94.961 62.8188 89.7568 61.2051M109.77 76.8376C106.375 78.5482 99.6219 78.647 93.76 77.9539" stroke="#092532" stroke-width="1.5" stroke-linecap="round"/>
<circle cx="50" cy="62" r="4" stroke="#092532" stroke-width="1.5"/>
</svg>
