<svg width="156" height="156" viewBox="0 0 156 156" fill="none" xmlns="http://www.w3.org/2000/svg">
<path d="M83.5 100.094H89.5089C89.5 95.3633 84 95.8633 84 95.8633C81.3848 89.0431 83.2226 81.3359 87.0935 74.5C93.5 73 98.3823 60.2165 104.44 57.2376C112.5 57.3633 115.034 59.1902 117.432 50.8668C114.773 49.4701 111.154 48.0833 107.763 46.4337C107.641 46.3915 107.804 44.5356 107.705 44.2283C107.55 43.4917 107.268 43.1211 106.702 42.5842C105.226 41.3229 101.942 40.7899 100 41.075C98.0575 41.3601 96.0914 42.7425 94.5001 44.0767C89.3785 48.3709 83.5 51.8633 75.5 51.3653C64 51.3633 53.5 69.3653 53.5 80.3653C53.5 80.3653 50.5 85.3653 31 94.8653C31 94.8653 43 94.8653 53.5 85.8683C53.5 85.8683 59.5 89.8653 66.0009 87.8677C66.0009 87.8677 66.65 94.2111 64.5 97.369L76 101.369H83.5C83.5 101.369 82.5 95.3714 77 97.3633C74.5 96.3714 72 95.8633 70.5 94.869C70.5 94.869 77 79.0526 77 78C77 78 79 71 69 70.3653M79.3154 96.9638C79.1691 95.3124 76.264 86.3922 76.4567 79.7896" stroke="#092532" stroke-width="1.5" stroke-miterlimit="10" stroke-linecap="round" stroke-linejoin="round"/>
<path d="M99.561 45.0781C99.561 45.0781 101.666 48.0781 100.662 50.8463C98.666 55.5781 91.611 55.688 91.0443 50.4781C90.8975 49.3736 91.1178 47.594 91.5583 46.5508" stroke="#092532" stroke-width="1.5" stroke-miterlimit="10" stroke-linecap="round" stroke-linejoin="round"/>
<path d="M53.948 57.5245C52.8329 57.8677 50.5112 59.8346 50.3349 61.9814" stroke="#092532" stroke-width="1.5" stroke-linecap="round"/>
<path d="M94.9411 79.4599C96.0556 79.1148 98.3739 77.1439 98.5466 74.9968" stroke="#092532" stroke-width="1.5" stroke-linecap="round"/>
<path d="M49.9847 55.1645C49.0977 55.652 48.1857 56.4926 48.0512 57.6368" stroke="#092532" stroke-width="1.5" stroke-linecap="round"/>
<path d="M98.9111 81.8124C99.7973 81.3234 100.708 80.4812 100.84 79.3367" stroke="#092532" stroke-width="1.5" stroke-linecap="round"/>
</svg>
