<svg width="156" height="156" viewBox="0 0 156 156" fill="none" xmlns="http://www.w3.org/2000/svg">
<path d="M55.7139 71.7949C38.2217 73.812 39.7237 93.4786 47.7179 96H106.689C113.495 92.5658 113.863 86.8579 111.813 82.5631M55.7139 71.7949C58.2133 71.7949 64.0117 71.9966 67.2101 72.8034M55.7139 71.7949C54.4704 68.5692 54.4307 65.5227 55.3401 63M62.7124 56.6667C61.2131 51.1197 63.4092 47.388 72.2049 46.5812C83.1995 45.5726 98.6918 44.0598 98.6918 37C100.691 39.0171 100.191 46.5812 96.6928 51.1197C98.2652 51.1197 99.8377 52.2404 100.775 53.8407M62.7124 56.6667C64.878 56.6667 70.0088 56.9692 73.2072 58.1795M62.7124 56.6667C60.2397 57.2424 58.23 58.5195 56.8433 60.2809M100.191 60.7009C104.689 62.2137 111.186 66.7521 104.689 76.8376M100.191 60.7009C97.1935 61.8775 89.8989 62.8188 84.7015 61.2051M100.191 60.7009C101.212 59.5233 101.637 58.2168 101.64 56.957M104.689 76.8376C101.298 78.5482 94.5538 78.6469 88.6995 77.9539M104.689 76.8376C106.496 76.8376 108.484 78.0279 110.053 79.8567" stroke="#092532" stroke-width="1.5" stroke-linecap="round"/>
<path fill-rule="evenodd" clip-rule="evenodd" d="M47.4916 52.5C48.3201 52.4997 48.9919 53.171 48.9922 53.9995C48.9928 55.7958 49.5048 56.8002 50.174 57.4754C50.906 58.214 51.9784 58.718 53.4076 59.2052C53.8089 59.342 54.2543 59.4815 54.7223 59.628C55.7817 59.9597 56.9564 60.3275 57.9948 60.7822C59.57 61.472 61.1455 62.4741 62.2391 64.1957C62.6833 64.895 62.4765 65.822 61.7772 66.2662C61.0779 66.7103 60.1509 66.5035 59.7068 65.8043C59.0535 64.7759 58.0709 64.0905 56.7914 63.5303C55.9015 63.1406 55.0058 62.8613 54.0371 62.5592C53.528 62.4005 52.9988 62.2354 52.4395 62.0448C50.9357 61.532 49.2932 60.8485 48.0431 59.5871C46.7302 58.2623 45.9931 56.4542 45.9922 54.0005C45.9919 53.1721 46.6632 52.5003 47.4916 52.5Z" stroke="#092532" stroke-width="1.5" stroke-linecap="round"/>
<path fill-rule="evenodd" clip-rule="evenodd" d="M120.473 78.0714C120.309 78.8835 119.518 79.4089 118.706 79.2449C116.972 78.8947 115.825 79.1339 114.923 79.6029C113.956 80.1061 113.134 80.9391 112.151 82.0655C111.995 82.2437 111.837 82.4282 111.674 82.6173C109.857 84.7349 107.542 87.4306 103.199 88.2383C102.384 88.3897 101.601 87.8522 101.449 87.0376C101.298 86.2231 101.835 85.44 102.649 85.2886C105.92 84.6804 107.586 82.7541 109.442 80.6083C109.59 80.4372 109.739 80.2648 109.891 80.0915C110.88 78.958 112.022 77.7294 113.539 76.9408C115.121 76.1181 116.978 75.8352 119.299 76.304C120.111 76.468 120.636 77.2593 120.473 78.0714Z" stroke="#092532" stroke-width="1.5" stroke-linecap="round"/>
<path fill-rule="evenodd" clip-rule="evenodd" d="M106.04 46.0852C106.842 45.8748 107.662 46.3538 107.872 47.155C108.398 49.1595 108.148 50.9473 107.311 52.4631C106.497 53.938 105.192 55.0417 103.789 55.8614C101.002 57.4888 97.4486 58.2169 95.047 58.4138C94.2213 58.4815 93.4971 57.867 93.4294 57.0413C93.3617 56.2157 93.9762 55.4915 94.8019 55.4238C96.9557 55.2473 100.019 54.589 102.276 53.2708C103.394 52.6177 104.218 51.8589 104.685 51.0132C105.129 50.2084 105.312 49.2175 104.97 47.917C104.76 47.1157 105.239 46.2956 106.04 46.0852Z" stroke="#092532" stroke-width="1.5" stroke-linecap="round"/>
</svg>
