<svg width="8" height="9" viewBox="0 0 8 9" fill="none" xmlns="http://www.w3.org/2000/svg">
<path d="M0.841064 0.599976V8.99998H4.18906C6.25307 8.99998 7.40506 8.08798 7.40506 6.63598C7.40506 5.43598 6.63707 4.84798 5.44907 4.69198C6.48107 4.49998 7.10506 3.86398 7.10506 2.80798C7.10506 1.40398 5.97707 0.599976 4.03306 0.599976H0.841064ZM2.64106 2.01598H4.08106C4.86106 2.01598 5.30506 2.41198 5.30506 3.03598C5.30506 3.65998 4.84906 4.05598 4.08106 4.05598H2.64106V2.01598ZM2.64106 5.44798H4.20106C5.05306 5.44798 5.55706 5.84398 5.55706 6.52798C5.55706 7.17598 5.06506 7.57198 4.20106 7.57198H2.64106V5.44798Z" fill="white"/>
</svg>
