<svg width="156" height="156" viewBox="0 0 156 156" fill="none" xmlns="http://www.w3.org/2000/svg">
<path d="M89 54.52C75.1828 56.1006 62 55.5 56.5 56.5C51 57.5 34.075 58.9211 33 50.5C33 50.5 29.5 62 56.5 60C56.5 60 48.5 64.5 45.5 74.5039C45.5 74.5039 40.65 79.346 38.5 82.5039L29.5 92.5039C29.5 92.5039 30.9259 94.3443 33 94C36.1047 93.4847 38.5 89.0039 38.5 87.5039C38.5 87.5039 46 80.5 50 80.0039C50 80.0039 62.925 76.8684 64 69.5" stroke="#092532" stroke-width="1.5" stroke-miterlimit="10" stroke-linecap="round" stroke-linejoin="round"/>
<path d="M88.4969 74.9995C79.9982 76.9968 70.4977 68.9524 62.5006 72.9979" stroke="#092532" stroke-width="1.5" stroke-miterlimit="10" stroke-linecap="round" stroke-linejoin="round"/>
<path d="M101.5 67C101.5 67 101 69.5 97.5 71.502C102 73 103.841 72.8195 109 74.5C111.876 75.4366 116.316 79.1008 119 82.5C119 82.5 117.168 83.5 115.5 83.5C113.5 83.5 113 83 107 78.5L89.5 75.5L83.5 71.502" stroke="#092532" stroke-width="1.5" stroke-miterlimit="10" stroke-linecap="round" stroke-linejoin="round"/>
<path d="M103.502 78.0006C105.781 79.9884 108.895 85.6145 110.033 89.7932C110.033 89.7932 107.581 90.3245 106 89.7932C104.193 89.1861 104.317 87.9039 100.558 81.4138L94.0018 76.5006" stroke="#092532" stroke-width="1.5" stroke-miterlimit="10" stroke-linecap="round" stroke-linejoin="round"/>
<path d="M88.7301 54.4934C91.4942 54.0142 92.6524 53.7887 96.7647 51M101.499 67C104 63.5 110.983 59.4191 112 59.5C120.597 60.0604 123.498 62.5001 127.001 53.0004C124.5 51.9976 120 51.3115 116.54 49.8443C114.344 48.9131 117.997 43.9983 108.001 44.4977C107.029 44.573 105.834 45.0466 104.671 45.6541" stroke="#092532" stroke-width="1.5" stroke-miterlimit="10" stroke-linecap="round" stroke-linejoin="round"/>
<path d="M103.003 52.5251C91.1229 51.2826 92.0975 42.9263 106.502 46.1191" stroke="#092532" stroke-width="1.5" stroke-miterlimit="10" stroke-linecap="round" stroke-linejoin="round"/>
<path d="M61.0002 75.0002C61.0002 75.0002 64.5001 77.4997 49.9383 89.68L51.4999 98.9997C51.4999 98.9997 53.7244 100.553 55.0323 98.4997C56.2349 96.6112 53.4998 92.4997 55.0323 88.9448C55.0323 88.9448 62.6454 85.4587 65.9998 82.4997C69.8425 79.1099 71.0011 73.9998 74.5003 72.9964" stroke="#092532" stroke-width="1.5" stroke-miterlimit="10" stroke-linecap="round" stroke-linejoin="round"/>
</svg>
