<svg width="156" height="156" viewBox="0 0 156 156" fill="none" xmlns="http://www.w3.org/2000/svg">
<path d="M102.965 65.2539H106.091L102.994 69.9432H106.091" stroke="#092532" stroke-width="1.5" stroke-miterlimit="10" stroke-linecap="round" stroke-linejoin="round"/>
<path d="M111.344 54H116.815L111.395 60.2524H116.815" stroke="#092532" stroke-width="1.5" stroke-miterlimit="10" stroke-linecap="round" stroke-linejoin="round"/>
<path d="M105.133 80.5674C105.772 80.1135 108.14 78.8625 108.875 78.5241C109.876 78.0818 110.938 77.6665 112.015 77.5513C114.054 77.4171 116.497 78.7064 117.924 80.1379C118.466 80.7421 118.728 81.15 118.828 81.9271C118.905 82.2542 118.581 84.1663 118.704 84.2201C122.086 86.2138 125.725 87.9535 128.368 89.6238C127.194 92.7365 125.5 96 122.001 96.4985" stroke="#092532" stroke-width="1.5" stroke-miterlimit="10" stroke-linecap="round" stroke-linejoin="round"/>
<path d="M62.7866 94.9531C69.5 99.5 84.5 98.5 88.5 97.5" stroke="#092532" stroke-width="1.5" stroke-miterlimit="10" stroke-linecap="round" stroke-linejoin="round"/>
<path d="M64.5744 84C67.0039 85 69.5039 94.5 59.5039 94.5" stroke="#092532" stroke-width="1.5" stroke-linecap="round"/>
<path d="M113.264 83.094C113.264 83.094 113.808 86.7183 111.673 88.7467C107.774 92.0887 101.412 89.0359 103.232 84.1214C103.594 83.0676 104.64 81.2366 105.5 80.5" stroke="#092532" stroke-width="1.5" stroke-miterlimit="10" stroke-linecap="round" stroke-linejoin="round"/>
<path d="M105.011 80.5841C101.424 82.8798 96.2683 76.1828 82.4992 76.7101C71.7788 77.1206 48.4992 69.4999 44.1869 83.9968C37.2023 89.9915 25.4992 96 21 98.3917C27.9992 98.3917 39.9992 92.0029 44.1869 87.5C42.8139 89.9028 42.7301 98.7917 46.5 98.7917C49.0959 98.7917 50.9468 98.7917 53.5427 98.7917C57.8692 98.9187 62.072 98.9187 66.3984 99.0456C66.3984 98.1569 66.0276 97.2682 65.5331 96.6334C65.0387 96.1256 64.4206 95.7447 63.8026 95.4908C60.0942 94.0942 55.8914 94.602 52.0594 95.1099" stroke="#092532" stroke-width="1.5" stroke-miterlimit="10" stroke-linecap="round" stroke-linejoin="round"/>
<path d="M97.9982 88C97.9982 88 97.194 92.2362 98.6197 92.786C98.6197 92.786 112.787 95.2749 113.5 95C119.5 94 124 97.5 121.998 99C121.998 99 89.9226 98.9704 89.0672 98.0084C88.2117 97.0464 87.9982 95.123 87.9982 95.123" stroke="#092532" stroke-width="1.5" stroke-miterlimit="10" stroke-linecap="round" stroke-linejoin="round"/>
</svg>
