<svg width="156" height="156" viewBox="0 0 156 156" fill="none" xmlns="http://www.w3.org/2000/svg">
<path d="M55.6133 78.7292C55.6133 78.7292 61.9979 91.0494 61.9979 92.1302H69.4466C69.4466 92.1302 69.4466 87.8073 64.1261 87.8073L60.9338 79.1615C60.9338 79.1615 64.9242 78.9453 65.9883 75.7031" stroke="#092532" stroke-width="1.5" stroke-miterlimit="10" stroke-linecap="round" stroke-linejoin="round"/>
<path d="M95.024 76.5664L101.93 87.8931C107.5 87 107.5 92.1289 107.5 92.1289H99.7566L91.0625 79.4216" stroke="#092532" stroke-width="1.5" stroke-miterlimit="10" stroke-linecap="round" stroke-linejoin="round"/>
<path d="M44.5465 77.4283C38.426 69.328 43.0432 55.259 52.5997 52.2746C57.1657 50.8178 63.6492 51.0627 68.1693 52.8076C73.7529 54.8326 78.3039 59.3046 84.8127 58.7762C94 58.0304 95.5353 52.3839 101.859 50.3076C105.864 49.0065 110.138 49.9814 112.21 53.9588C112.542 54.6873 112.668 55.1482 112.533 55.909C112.509 56.2395 111.64 57.9434 111.74 58.0304C114.334 60.9036 117.246 63.614 119.241 65.9651C114.994 70.4994 108.469 71.445 104.497 66.9996C102.659 66.383 99.3384 69.4584 98.1427 71.0043C97.0897 72.8586 95 80 85.5563 80.5573C85.7696 80.8793 92.6704 92.0685 92.6704 92.0685C98.356 90.4382 98.5 96 98.5 96H90L78.0898 80.5573C71.3934 81.0355 66.0704 74.8492 60.4961 71.9987C57.0286 79.3199 48.6584 83.2031 48.6584 83.2031L52.9928 91.8164C56.2435 91.8164 57.5 96 57.5 96C55.6729 96 51.5 96 49.8504 95.9076C49.3086 95.477 49.0919 94.9386 48.7668 94.4003C46.9247 90.955 44.9742 87.4021 43.1322 83.8491C41.5068 80.6192 44.3241 79.0042 45.6244 75.9896C46.8163 73.0826 47.3581 70.068 47.6832 67.0534" stroke="#092532" stroke-width="1.5" stroke-miterlimit="10" stroke-linecap="round" stroke-linejoin="round"/>
<path d="M104.593 55.6204C104.593 55.6204 105.041 59.2578 102.854 61.2292C98.8673 64.4671 92.5888 61.2476 94.5378 56.3828C94.9274 55.3389 95.9584 53.8718 96.8376 53.1582" stroke="#092532" stroke-width="1.5" stroke-miterlimit="10" stroke-linecap="round" stroke-linejoin="round"/>
<path d="M45.9997 49.0015C44.8423 49.1485 42.2178 50.6883 41.6761 52.7732" stroke="#092532" stroke-width="1.5" stroke-linecap="round"/>
<path d="M115.854 49.5574C115.459 48.4596 113.386 46.232 111.234 46.1559" stroke="#092532" stroke-width="1.5" stroke-linecap="round"/>
<path d="M42.5 45.9999C41.5426 46.3282 40.5 47 40.1713 48.1042" stroke="#092532" stroke-width="1.5" stroke-linecap="round"/>
<path d="M116.808 44.7227C116.137 43.9647 115.116 43.2599 113.97 43.3803" stroke="#092532" stroke-width="1.5" stroke-linecap="round"/>
</svg>
