<svg width="156" height="156" viewBox="0 0 156 156" fill="none" xmlns="http://www.w3.org/2000/svg">
<path d="M83.5 77.5C76.8436 78.5318 71.4839 76.1806 65 75" stroke="#092532" stroke-width="1.5" stroke-miterlimit="10" stroke-linecap="round" stroke-linejoin="round"/>
<path d="M85.5001 70.5015C83.999 72.0026 84.3534 75.647 83.8534 78.1471C83.8534 83.1471 81.3534 88.6471 81.3534 88.6471L73.3511 90.6465C74.8534 95.1471 84.3534 91.6471 84.3534 91.6471C87.8534 86.6471 88.91 81.6641 91.3534 78.1471C94.1906 78.0073 96.5224 76.527 98.3512 74.6721" stroke="#092532" stroke-width="1.5" stroke-miterlimit="10" stroke-linecap="round" stroke-linejoin="round"/>
<path d="M103.181 63.9977C103.181 63.9977 103.181 73.0008 100.5 76.5008C101.032 81.9553 100.5 85.5 103 93.5008C103 93.5008 109 91.5008 109 97.7884L100 97.7884C100 97.7884 96.9651 85.236 93.9996 77.4972" stroke="#092532" stroke-width="1.5" stroke-miterlimit="10" stroke-linecap="round" stroke-linejoin="round"/>
<path d="M64 72.5C67.5 79 58.5 88.5 58.5 88.5C58.5 89.5526 63.0274 95.2759 63.0274 95.2759C69.1084 93.2853 68.703 99.0008 68.703 99.0008H60.6L51.3749 87.4218C53.5249 84.2639 54.5 84 55 81C54.5 78.5 49.5222 72 49.5222 69.5M103.414 64.011C104.501 60.0008 107.42 53.1522 108.441 53.1633C113.5 55 119.035 55.116 121.432 46.7926C118.773 45.3958 115.155 44.0091 111.763 42.3594C111.641 42.3173 111.804 40.4614 111.706 40.1541C111.55 39.4175 111.269 39.0469 110.703 38.51C109.226 37.2486 105.943 36.7157 104.001 37.0008C94.8306 38.3465 94.3743 49.5812 87.5006 54C80.5006 58.5 61.5006 51 52.0006 57.5C52.0006 57.5 40.537 50 38.9989 42.3594C38.9989 42.3594 36.0001 50.5 50.5018 60C50.5018 60 49.877 61.7174 49.5222 64.011" stroke="#092532" stroke-width="1.5" stroke-miterlimit="10" stroke-linecap="round" stroke-linejoin="round"/>
<path d="M49.5 64C49.5 64 45.0948 74.1018 40.2604 74.306L36.1049 87.5963L37.5 94.5C37.5 94.5 43.1063 92.0815 40.0377 86.7027C40.0377 86.7027 43.761 79.4527 44.4256 78.7671C44.4256 78.7671 49.0301 78.4537 52 76.5" stroke="#092532" stroke-width="1.5" stroke-miterlimit="10" stroke-linecap="round" stroke-linejoin="round"/>
<path d="M104.731 42.1504C104.731 42.1504 106.838 45.1399 105.664 47.7685C103.362 52.2494 95.8913 52.0444 95.5012 46.9889C95.3902 45.916 95.6949 44.2074 96.2031 43.2196" stroke="#092532" stroke-width="1.5" stroke-miterlimit="10" stroke-linecap="round" stroke-linejoin="round"/>
</svg>
