<svg width="52" height="52" viewBox="0 0 52 52" fill="none" xmlns="http://www.w3.org/2000/svg">
<circle cx="26" cy="26" r="26" fill="#1F2E71"/>
<path fill-rule="evenodd" clip-rule="evenodd" d="M30.2236 14.5529L29.8288 14.3555L29.584 14.7227C29.1125 15.4299 28.672 15.8551 28.1514 16.1154C27.625 16.3786 26.9633 16.5001 26 16.5001C24.3233 16.5001 23.2208 17.2575 22.5327 18.2066C21.9818 18.9665 21.7024 19.8376 21.5705 20.5202C19.2867 20.7365 17.5 22.6596 17.5 25C17.5 25.628 17.7315 26.2018 18.1139 26.6409C15.945 27.1457 14.252 28.9556 13.9653 31.2496C13.6832 33.5065 15.443 35.5 17.7175 35.5H34.2833C36.5578 35.5 38.3176 33.5065 38.0355 31.2496C37.7833 29.2322 36.4436 27.5892 34.6491 26.879C35.1707 26.4208 35.5 25.7489 35.5 25C35.5 22.6235 33.6577 20.6772 31.3234 20.5114C31.9728 19.7111 32.2363 18.7268 32.1868 17.7863C32.1169 16.4583 31.4168 15.1495 30.2236 14.5529ZM21.9764 21.5001H30.1385L30.1386 21.5H31C32.933 21.5 34.5 23.067 34.5 25C34.5 25.8284 33.8284 26.5 33 26.5H32.6552H20C19.1716 26.5 18.5 25.8284 18.5 25C18.5 23.0749 20.0542 21.5128 21.9764 21.5001ZM29.8564 20.5C30.8443 19.8518 31.2403 18.8291 31.1882 17.8389C31.1417 16.9554 30.7429 16.1473 30.1347 15.674C29.6862 16.2652 29.2002 16.709 28.5986 17.0098C27.875 17.3716 27.0366 17.5001 26 17.5001C24.6767 17.5001 23.8625 18.076 23.3423 18.7936C22.9518 19.3321 22.7227 19.9595 22.597 20.5H29.8564ZM20 27.5H32.6552C34.8854 27.5 36.7666 29.1607 37.0432 31.3736C37.2507 33.0337 35.9563 34.5 34.2833 34.5H17.7175C16.0445 34.5 14.7501 33.0337 14.9576 31.3736C15.2342 29.1607 17.1154 27.5 19.3455 27.5H20Z" fill="white"/>
</svg>
