<svg width="23" height="23" viewBox="0 0 23 23" fill="none" xmlns="http://www.w3.org/2000/svg">
<path d="M21.1865 9.92456C21.1013 10.8987 20.7784 11.7353 20.3518 12.3014C19.9201 12.8741 19.4366 13.1104 19.0124 13.0733C18.5883 13.0362 18.1531 12.7195 17.8275 12.0805C17.5056 11.449 17.3329 10.569 17.4181 9.59487C17.5034 8.62072 17.8262 7.78412 18.2529 7.21803C18.6845 6.6453 19.1681 6.40904 19.5922 6.44614C20.0164 6.48325 20.4515 6.79989 20.7772 7.43887C21.0991 8.07045 21.2717 8.95041 21.1865 9.92456Z" fill="#FB949F" stroke="#092532"/>
<path d="M4.59996 9.59477C4.68519 10.5689 4.5125 11.4489 4.19062 12.0805C3.86497 12.7194 3.42981 13.0361 3.00567 13.0732C2.58153 13.1103 2.09799 12.874 1.66633 12.3013C1.23966 11.7352 0.916801 10.8986 0.831575 9.92446C0.746348 8.95031 0.91903 8.07036 1.24091 7.43877C1.56657 6.79979 2.00173 6.48315 2.42587 6.44605C2.85001 6.40894 3.33354 6.6452 3.76521 7.21793C4.19187 7.78402 4.51473 8.62062 4.59996 9.59477Z" fill="#FB949F" stroke="#092532"/>
<path d="M9.38274 3.85551C9.46797 4.82965 9.29528 5.70961 8.9734 6.34119C8.64775 6.98018 8.21259 7.29681 7.78845 7.33392C7.36431 7.37103 6.88077 7.13477 6.44911 6.56204C6.02244 5.99595 5.69958 5.15934 5.61435 4.1852C5.52913 3.21106 5.70181 2.3311 6.02369 1.69952C6.34935 1.06053 6.78451 0.743896 7.20865 0.706788C7.63279 0.669681 8.11632 0.90594 8.54799 1.47867C8.97465 2.04476 9.29751 2.88137 9.38274 3.85551Z" fill="#FB949F" stroke="#092532"/>
<path d="M16.4037 4.18493C16.3185 5.15908 15.9956 5.99568 15.569 6.56177C15.1373 7.1345 14.6538 7.37076 14.2296 7.33365C13.8055 7.29655 13.3703 6.97991 13.0447 6.34093C12.7228 5.70934 12.5501 4.82938 12.6353 3.85524C12.7206 2.8811 13.0434 2.04449 13.4701 1.4784C13.9018 0.905673 14.3853 0.669413 14.8094 0.706521C15.2336 0.743628 15.6687 1.06026 15.9944 1.69925C16.3163 2.33083 16.489 3.21079 16.4037 4.18493Z" fill="#FB949F" stroke="#092532"/>
<path d="M6.54269 13.5859C7.97753 10.7162 8.93408 9.28137 11.3255 9.28137C13.7169 9.28137 14.6734 10.7162 15.63 13.5859C16.5515 16.3503 18.9779 16.9338 20.4128 16.9338C20.4128 18.3687 19.4562 21.7166 16.5865 21.7166C12.7603 21.7166 13.2386 19.8035 11.3255 19.8035C9.41236 19.8035 9.89064 21.7166 6.06442 21.7166C3.19475 21.7166 1.75991 18.3687 1.75991 16.9338C3.19475 16.9338 5.13165 16.408 6.54269 13.5859Z" fill="#FB949F" stroke="#092532"/>
</svg>
