<svg width="225" height="53" viewBox="0 0 225 53" fill="none" xmlns="http://www.w3.org/2000/svg">
<path fill-rule="evenodd" clip-rule="evenodd" d="M76.5174 3.01263C76.5174 4.67646 75.165 6.02526 73.4967 6.02526C71.8285 6.02526 70.4761 4.67646 70.4761 3.01263C70.4761 1.3488 71.8285 0 73.4967 0C75.165 0 76.5174 1.3488 76.5174 3.01263ZM92.9417 12.0852C95.8369 10.1558 99.2408 9.12599 102.723 9.12599C107.391 9.13065 111.866 10.9821 115.167 14.2741C118.468 17.566 120.324 22.0295 120.329 26.685C120.329 30.1578 119.296 33.5527 117.361 36.4403C115.427 39.3278 112.677 41.5784 109.46 42.9074C106.243 44.2364 102.703 44.5841 99.2882 43.9066C95.873 43.2291 92.736 41.5568 90.2738 39.1011C87.8116 36.6454 86.1348 33.5167 85.4555 30.1106C84.7762 26.7045 85.1248 23.1739 86.4573 19.9655C87.7899 16.757 90.0464 14.0146 92.9417 12.0852ZM95.6405 37.2564C97.7369 38.6535 100.202 39.3991 102.723 39.3991C106.103 39.396 109.344 38.0555 111.734 35.6718C114.124 33.2881 115.468 30.056 115.471 26.685C115.471 24.1704 114.723 21.7122 113.322 19.6214C111.922 17.5306 109.931 15.901 107.601 14.9387C105.272 13.9764 102.709 13.7246 100.236 14.2152C97.763 14.7057 95.4916 15.9166 93.7087 17.6947C91.9259 19.4729 90.7118 21.7383 90.2199 24.2046C89.728 26.6709 89.9805 29.2273 90.9453 31.5505C91.9102 33.8737 93.5441 35.8594 95.6405 37.2564ZM61.2418 23.4492V43.3807L61.2889 45.4537V45.5653V51.8255C61.2889 52.137 61.1649 52.4357 60.944 52.656C60.7232 52.8762 60.4236 53 60.1113 53H57.6088C57.2965 53 56.997 52.8762 56.7761 52.656C56.5553 52.4357 56.4312 52.137 56.4312 51.8255V43.3807V23.4492C56.4312 21.035 55.4696 18.7198 53.758 17.0127C52.0464 15.3057 49.725 14.3467 47.3045 14.3467C44.8839 14.3467 42.5625 15.3057 40.8509 17.0127C39.1394 18.7198 38.1778 21.035 38.1778 23.4492V42.2062C38.1778 42.5177 38.0537 42.8164 37.8329 43.0367C37.612 43.257 37.3125 43.3807 37.0002 43.3807H34.4859C34.1736 43.3807 33.874 43.257 33.6532 43.0367C33.4323 42.8164 33.3083 42.5177 33.3083 42.2062V23.4492C33.2478 21.0789 32.2613 18.826 30.5591 17.1709C28.8568 15.5158 26.5736 14.5895 24.1963 14.5895C21.819 14.5895 19.5357 15.5158 17.8335 17.1709C16.1313 18.826 15.1447 21.0789 15.0843 23.4492V42.2062C15.0843 42.5177 14.9602 42.8164 14.7394 43.0367C14.5185 43.257 14.219 43.3807 13.9067 43.3807H11.4042C11.0919 43.3807 10.7923 43.257 10.5715 43.0367C10.3506 42.8164 10.2266 42.5177 10.2266 42.2062V23.4492C10.2278 20.4722 11.1852 17.574 12.9585 15.1793C14.7317 12.7846 17.2276 11.0196 20.0801 10.1428C22.9326 9.26611 25.9916 9.32386 28.8088 10.3076C31.626 11.2914 34.0531 13.1494 35.7342 15.6093C37.4153 13.1494 39.8424 11.2914 42.6596 10.3076C45.4768 9.32386 48.5358 9.26611 51.3883 10.1428C54.2408 11.0196 56.7367 12.7846 58.5099 15.1793C60.2832 17.574 61.2406 20.4722 61.2418 23.4492ZM165.849 9.51943C163.574 9.52106 161.333 10.0766 159.322 11.1379C157.311 12.1992 155.59 13.7341 154.308 15.6093C152.629 13.1481 150.202 11.2887 147.385 10.304C144.567 9.31935 141.508 9.26126 138.655 10.1383C135.802 11.0153 133.307 12.7812 131.534 15.1769C129.762 17.5726 128.806 20.4719 128.807 23.4492V42.2062C128.807 42.5177 128.931 42.8164 129.152 43.0367C129.372 43.257 129.672 43.3807 129.984 43.3807H132.481C132.793 43.3807 133.093 43.257 133.314 43.0367C133.534 42.8164 133.659 42.5177 133.659 42.2062V23.4492C133.659 21.035 134.62 18.7198 136.332 17.0127C138.043 15.3057 140.365 14.3467 142.785 14.3467C145.206 14.3467 147.527 15.3057 149.239 17.0127C150.95 18.7198 151.912 21.035 151.912 23.4492V42.2062C151.912 42.5177 152.036 42.8164 152.257 43.0367C152.478 43.257 152.777 43.3807 153.09 43.3807H155.592C155.904 43.3807 156.204 43.257 156.425 43.0367C156.646 42.8164 156.77 42.5177 156.77 42.2062V37.5081V23.4492C156.83 21.0789 157.817 18.826 159.519 17.1709C161.221 15.5158 163.504 14.5895 165.882 14.5895C168.259 14.5895 170.542 15.5158 172.244 17.1709C173.947 18.826 174.933 21.0789 174.994 23.4492V42.2062C174.994 42.5177 175.118 42.8164 175.339 43.0367C175.559 43.257 175.859 43.3807 176.171 43.3807H178.668C178.98 43.3807 179.28 43.257 179.501 43.0367C179.721 42.8164 179.845 42.5177 179.845 42.2062V23.4492C179.841 19.7511 178.364 16.2063 175.739 13.5941C173.114 10.982 169.557 9.51631 165.849 9.51943ZM206.366 9.126C203.404 9.12294 200.49 9.86511 197.892 11.2838C195.294 12.7025 193.097 14.7518 191.505 17.2422C189.912 19.7325 188.975 22.5834 188.78 25.5308C188.586 28.4782 189.14 31.427 190.391 34.1042C191.642 36.7814 193.551 39.1005 195.939 40.8468C198.328 42.5931 201.12 43.7102 204.056 44.0946C206.993 44.4791 209.979 44.1185 212.739 43.0462C215.498 41.974 217.942 40.2247 219.844 37.9604L219.956 37.8429C220.067 37.7336 220.156 37.6033 220.216 37.4597C220.276 37.316 220.307 37.1618 220.307 37.0061C220.307 36.8503 220.276 36.6961 220.216 36.5524C220.156 36.4088 220.067 36.2785 219.956 36.1692L218.19 34.4544C218.08 34.3443 217.95 34.257 217.806 34.1973C217.663 34.1377 217.509 34.107 217.353 34.107C217.198 34.107 217.044 34.1377 216.901 34.1973C216.757 34.257 216.627 34.3443 216.517 34.4544C215.287 35.9561 213.745 37.174 211.998 38.0246C210.251 38.8752 208.339 39.3381 206.396 39.3815C203.437 39.3776 200.571 38.3488 198.289 36.471C196.007 34.5932 194.449 31.9831 193.883 29.0869H223.83L223.86 28.8461C223.952 28.1234 223.999 27.3958 224.001 26.6674C223.992 22.0098 222.129 17.5464 218.823 14.2575C215.516 10.9685 211.036 9.12288 206.366 9.126ZM193.854 24.2655C194.417 21.3669 195.973 18.754 198.257 16.8753C200.541 14.9965 203.409 13.969 206.369 13.969C209.329 13.969 212.197 14.9965 214.481 16.8753C216.765 18.754 218.321 21.3669 218.884 24.2655H193.854ZM71.082 31.2597V12.0094V10.2476H75.9221V12.0094V31.2597V33.0215H71.082V31.2597ZM2.68697 9.49598C1.97486 9.49598 1.29191 9.77812 0.788376 10.2803C0.284838 10.7825 0.00195312 11.4637 0.00195312 12.1739C0.00195312 12.8841 0.284838 13.5652 0.788376 14.0674C1.29191 14.5696 1.97486 14.8518 2.68697 14.8518C3.39908 14.8518 4.08202 14.5696 4.58556 14.0674C5.0891 13.5652 5.37198 12.8841 5.37198 12.1739C5.37198 11.4637 5.0891 10.7825 4.58556 10.2803C4.08202 9.77812 3.39908 9.49598 2.68697 9.49598ZM2.68697 14.5112C2.06231 14.5112 1.46324 14.2637 1.02154 13.8231C0.579836 13.3826 0.331692 12.7851 0.331692 12.1621C0.331692 11.5391 0.579836 10.9416 1.02154 10.5011C1.46324 10.0606 2.06231 9.8131 2.68697 9.8131C3.31163 9.8131 3.9107 10.0606 4.3524 10.5011C4.7941 10.9416 5.04224 11.5391 5.04224 12.1621C5.04224 12.7851 4.7941 13.3826 4.3524 13.8231C3.9107 14.2637 3.31163 14.5112 2.68697 14.5112ZM2.26621 13.2605C2.40194 13.3215 2.54896 13.3534 2.69782 13.3542C2.91323 13.3714 3.12747 13.3091 3.29996 13.1792C3.47245 13.0494 3.5912 12.8609 3.63374 12.6495L4.17528 12.6847C4.119 13.0285 3.93661 13.3391 3.66354 13.5562C3.39048 13.7733 3.04626 13.8813 2.69782 13.8593C2.48099 13.864 2.26557 13.8234 2.06541 13.74C1.86526 13.6567 1.68481 13.5325 1.53567 13.3754C1.38652 13.2183 1.27199 13.0318 1.19944 12.8279C1.12688 12.624 1.09792 12.4072 1.1144 12.1914C1.09698 11.977 1.12499 11.7614 1.1966 11.5585C1.26822 11.3556 1.38185 11.17 1.53009 11.0138C1.67833 10.8576 1.85787 10.7343 2.05703 10.6518C2.25618 10.5694 2.4705 10.5297 2.68604 10.5354C3.03576 10.5105 3.38213 10.6173 3.65676 10.8347C3.93139 11.0522 4.1143 11.3645 4.16939 11.7099L3.63374 11.7451C3.59754 11.5257 3.48003 11.3279 3.3045 11.1908C3.12897 11.0538 2.90823 10.9875 2.68604 11.0052C2.53762 11.0058 2.39101 11.0377 2.25581 11.0988C2.12061 11.1599 1.99987 11.2488 1.90151 11.3597C1.80314 11.4706 1.72937 11.601 1.68502 11.7423C1.64068 11.8836 1.62675 12.0326 1.64417 12.1797C1.62854 12.3274 1.6441 12.4767 1.68986 12.618C1.73561 12.7593 1.81054 12.8895 1.90981 13.0002C2.00908 13.1108 2.13049 13.1995 2.26621 13.2605Z" fill="#FB949F"/>
</svg>
