<svg width="24" height="24" viewBox="0 0 24 24" fill="none" xmlns="http://www.w3.org/2000/svg">
<path fill-rule="evenodd" clip-rule="evenodd" d="M24 11.75C24 11.75 18.6274 18.5 12 18.5C5.37258 18.5 0 11.75 0 11.75C0 11.75 5.37258 5 12 5C18.6274 5 24 11.75 24 11.75ZM16.5 11.75C16.5 14.2353 14.4853 16.25 12 16.25C9.51472 16.25 7.5 14.2353 7.5 11.75C7.5 9.26472 9.51472 7.25 12 7.25C14.4853 7.25 16.5 9.26472 16.5 11.75ZM12 13.75C13.1046 13.75 14 12.8546 14 11.75C14 10.6454 13.1046 9.75 12 9.75C10.8954 9.75 10 10.6454 10 11.75C10 12.8546 10.8954 13.75 12 13.75Z" fill="#979899"/>
<path d="M22 2L2 22" stroke="#979899" stroke-width="2" stroke-linecap="round"/>
</svg>
