<svg width="156" height="156" viewBox="0 0 156 156" fill="none" xmlns="http://www.w3.org/2000/svg">
<path d="M90.5013 72.9995C90.5013 81.9993 94.0006 98.7868 94.0006 98.7868L103.001 98.7868C103.001 92.4992 97.0006 94.4993 97.0006 94.4993C95.4988 87.4993 98.9987 80.4993 100.501 76.4992C104.999 72.9995 103.414 64.011 103.414 64.011C104.501 60.0008 107.42 53.1522 108.441 53.1633C113.5 55 119.035 55.116 121.432 46.7926C118.773 45.3958 115.155 44.0091 111.763 42.3594C111.641 42.3173 111.804 40.4614 111.706 40.1541C111.55 39.4175 111.269 39.0469 110.703 38.51C109.226 37.2486 105.943 36.7157 104.001 37.0008C94.8306 38.3465 94.3743 49.5812 87.5006 54C80.5006 58.5 61.5006 51 52.0006 57.5C52.0006 57.5 40.537 50 38.9989 42.3594C38.9989 42.3594 36.0001 50.5 50.5018 60C50.5018 60 49.877 61.7174 49.5222 64.011C48.5183 70.5 53 77 53.5 79.5C54.3 83.5 51.0006 84 50.3749 87.4218L54.6 99.0008H63.703C63.703 99.0008 64.1084 93.2853 58.0274 95.2759C58.0274 95.2759 55.6 89.5526 55.6 88.5C55.6 88.5 60.218 84.064 62.5 79.5C64.5 75.5 64.297 73.5 63.5 70.5" stroke="#092532" stroke-width="1.5" stroke-miterlimit="10" stroke-linecap="round" stroke-linejoin="round"/>
<path d="M90 76.2911C86.6314 80.3659 64 79.4927 64 76" stroke="#092532" stroke-width="1.5" stroke-miterlimit="10" stroke-linecap="round" stroke-linejoin="round"/>
<path d="M104.731 42.1504C104.731 42.1504 106.838 45.1399 105.664 47.7685C103.362 52.2494 95.8913 52.0444 95.5012 46.9889C95.3902 45.916 95.6949 44.2074 96.2031 43.2196" stroke="#092532" stroke-width="1.5" stroke-miterlimit="10" stroke-linecap="round" stroke-linejoin="round"/>
<path d="M44.5005 61.9988L35.3258 60.0794M44.5005 64.9988L35.3258 68.4985M32.5005 55.0007C29.6545 52.7906 25.2711 56.8458 29.0457 60.1272C21.6715 59.4465 22.8716 70.5622 29.0005 69.0009C25.1738 73.3847 29.9909 76.091 33.0575 73.9557" stroke="#092532" stroke-width="1.5" stroke-linecap="round"/>
</svg>
